Bellota_italic (Autosaved).glyphspackage
{
glyphname = exclam;
layers = (
{
layerId = "0CAF3BED-C4AC-4024-B3E1-4C69D1EF7EC0";
shapes = (
{
closed = 1;
nodes = (
(135,144,l,{
"Letterink-NibData" = {
AngleInDegrees = 0.90143;
};
}),
(214,712,l,{
"Letterink-NibData" = {
AngleInDegrees = 270;
};
}),
(123,712,l,{
"Letterink-NibData" = {
AngleInDegrees = 179.09857;
};
}),
(62,144,l,{
"Letterink-NibData" = {
AngleInDegrees = 90;
};
})
);
},
{
pos = (-7,2);
ref = period;
}
);
width = 223;
},
{
layerId = "49C16FD3-6177-408B-A733-AEB3898BB77C";
shapes = (
{
closed = 1;
nodes = (
(91,143,l,{
"Letterink-NibData" = {
AngleInDegrees = 0.91747;
};
}),
(169,705,l,{
"Letterink-NibData" = {
AngleInDegrees = 270;
};
}),
(128,705,l,{
"Letterink-NibData" = {
AngleInDegrees = 179.08253;
};
}),
(65,143,l,{
"Letterink-NibData" = {
AngleInDegrees = 90;
};
})
);
},
{
pos = (-21,-2);
ref = period;
}
);
width = 184;
},
{
layerId = m004;
shapes = (
{
closed = 1;
nodes = (
(194,185,l,{
"Letterink-NibData" = {
AngleInDegrees = 0.90143;
};
}),
(281,734,l,{
"Letterink-NibData" = {
AngleInDegrees = 270;
};
}),
(111,734,l,{
"Letterink-NibData" = {
AngleInDegrees = 179.09857;
};
}),
(62,185,l,{
"Letterink-NibData" = {
AngleInDegrees = 90;
};
})
);
},
{
pos = (-8,-7);
ref = period;
}
);
width = 272;
}
);
unicode = 33;
userData = {
position = 51;
width = 56;
};
}
{
glyphname = numbersign;
layers = (
{
layerId = "0CAF3BED-C4AC-4024-B3E1-4C69D1EF7EC0";
shapes = (
{
closed = 1;
nodes = (
(174,29,l),
(210,178,l,{
"Letterink-NibData" = {
AngleInDegrees = "90";
};
}),
(350,178,l,{
"Letterink-NibData" = {
AngleInDegrees = "180";
};
}),
(314,29,l,{
"Letterink-NibData" = {
AngleInDegrees = "90";
};
}),
(390,29,l),
(426,178,l,{
"Letterink-NibData" = {
AngleInDegrees = "90";
};
}),
(537,178,l),
(555,252,l,{
"Letterink-NibData" = {
AngleInDegrees = "270";
};
}),
(444,252,l),
(480,399,l,{
"Letterink-NibData" = {
AngleInDegrees = "90";
};
}),
(591,399,l),
(609,472,l,{
"Letterink-NibData" = {
AngleInDegrees = "270";
};
}),
(498,472,l),
(535,621,l,{
"Letterink-NibData" = {
AngleInDegrees = "180";
};
}),
(457,621,l,{
"Letterink-NibData" = {
AngleInDegrees = "180";
};
}),
(420,472,l,{
"Letterink-NibData" = {
AngleInDegrees = "270";
};
}),
(282,472,l),
(319,621,l,{
"Letterink-NibData" = {
AngleInDegrees = "180";
};
}),
(241,621,l,{
"Letterink-NibData" = {
AngleInDegrees = "180";
};
}),
(204,472,l,{
"Letterink-NibData" = {
AngleInDegrees = "270";
};
}),
(93,472,l,{
"Letterink-NibData" = {
AngleInDegrees = "180";
};
}),
(75,399,l,{
"Letterink-NibData" = {
AngleInDegrees = "90";
};
}),
(186,399,l,{
"Letterink-NibData" = {
AngleInDegrees = "180";
};
}),
(150,252,l,{
"Letterink-NibData" = {
AngleInDegrees = "270";
};
}),
(39,252,l,{
"Letterink-NibData" = {
AngleInDegrees = "180";
};
}),
(21,178,l,{
"Letterink-NibData" = {
AngleInDegrees = "90";
};
}),
(134,178,l,{
"Letterink-NibData" = {
AngleInDegrees = "180";
};
}),
(98,29,l,{
"Letterink-NibData" = {
AngleInDegrees = "90";
};
})
);
},
{
closed = 1;
nodes = (
(264,399,l,{
"Letterink-NibData" = {
AngleInDegrees = "90";
};
}),
(402,399,l,{
"Letterink-NibData" = {
AngleInDegrees = "180";
};
}),
(366,252,l,{
"Letterink-NibData" = {
AngleInDegrees = "270";
};
}),
(228,252,l)
);
}
);
width = 612;
},
{
layerId = "49C16FD3-6177-408B-A733-AEB3898BB77C";
shapes = (
{
closed = 1;
nodes = (
(139,32,l),
(178,190,l,{
"Letterink-NibData" = {
AngleInDegrees = 90;
};
}),
(370,190,l,{
"Letterink-NibData" = {
AngleInDegrees = 180;
};
}),
(331,32,l,{
"Letterink-NibData" = {
AngleInDegrees = 90;
};
}),
(366,32,l),
(405,190,l,{
"Letterink-NibData" = {
AngleInDegrees = 90;
};
}),
(522,190,l),
(531,226,l,{
"Letterink-NibData" = {
AngleInDegrees = 270;
};
}),
(414,226,l),
(462,425,l,{
"Letterink-NibData" = {
AngleInDegrees = 90;
};
}),
(579,425,l),
(588,460,l,{
"Letterink-NibData" = {
AngleInDegrees = 270;
};
}),
(471,460,l),
(510,617,l,{
"Letterink-NibData" = {
AngleInDegrees = 270;
};
}),
(471,617,l,{
"Letterink-NibData" = {
AngleInDegrees = 180;
};
}),
(432,460,l,{
"Letterink-NibData" = {
AngleInDegrees = 270;
};
}),
(244,460,l),
(283,617,l,{
"Letterink-NibData" = {
AngleInDegrees = 270;
};
}),
(245,617,l,{
"Letterink-NibData" = {
AngleInDegrees = 180;
};
}),
(206,460,l,{
"Letterink-NibData" = {
AngleInDegrees = 270;
};
}),
(89,460,l,{
"Letterink-NibData" = {
AngleInDegrees = 180;
};
}),
(80,425,l,{
"Letterink-NibData" = {
AngleInDegrees = 90;
};
}),
(197,425,l,{
"Letterink-NibData" = {
AngleInDegrees = 180;
};
}),
(149,226,l,{
"Letterink-NibData" = {
AngleInDegrees = 270;
};
}),
(32,226,l,{
"Letterink-NibData" = {
AngleInDegrees = 180;
};
}),
(23,190,l,{
"Letterink-NibData" = {
AngleInDegrees = 90;
};
}),
(142,190,l,{
"Letterink-NibData" = {
AngleInDegrees = 180;
};
}),
(103,32,l,{
"Letterink-NibData" = {
AngleInDegrees = 90;
};
})
);
},
{
closed = 1;
nodes = (
(235,425,l,{
"Letterink-NibData" = {
AngleInDegrees = 90;
};
}),
(423,425,l,{
"Letterink-NibData" = {
AngleInDegrees = 180;
};
}),
(375,226,l,{
"Letterink-NibData" = {
AngleInDegrees = 270;
};
}),
(187,226,l)
);
}
);
width = 592;
},
{
layerId = m004;
shapes = (
{
closed = 1;
nodes = (
(244,25,l),
(276,155,l,{
"Letterink-NibData" = {
AngleInDegrees = "90";
};
}),
(326,155,l,{
"Letterink-NibData" = {
AngleInDegrees = "180";
};
}),
(294,25,l,{
"Letterink-NibData" = {
AngleInDegrees = "90";
};
}),
(453,25,l),
(485,155,l,{
"Letterink-NibData" = {
AngleInDegrees = "90";
};
}),
(585,155,l),
(622,303,l,{
"Letterink-NibData" = {
AngleInDegrees = "270";
};
}),
(522,303,l),
(534,354,l,{
"Letterink-NibData" = {
AngleInDegrees = "90";
};
}),
(634,354,l),
(671,502,l,{
"Letterink-NibData" = {
AngleInDegrees = "270";
};
}),
(571,502,l),
(603,636,l,{
"Letterink-NibData" = {
AngleInDegrees = "270";
};
}),
(442,636,l,{
"Letterink-NibData" = {
AngleInDegrees = "180";
};
}),
(410,502,l,{
"Letterink-NibData" = {
AngleInDegrees = "270";
};
}),
(362,502,l),
(394,636,l,{
"Letterink-NibData" = {
AngleInDegrees = "270";
};
}),
(233,636,l,{
"Letterink-NibData" = {
AngleInDegrees = "180";
};
}),
(201,502,l,{
"Letterink-NibData" = {
AngleInDegrees = "270";
};
}),
(101,502,l,{
"Letterink-NibData" = {
AngleInDegrees = "180";
};
}),
(64,354,l,{
"Letterink-NibData" = {
AngleInDegrees = "90";
};
}),
(164,354,l,{
"Letterink-NibData" = {
AngleInDegrees = "180";
};
}),
(152,303,l,{
"Letterink-NibData" = {
AngleInDegrees = "270";
};
}),
(52,303,l,{
"Letterink-NibData" = {
AngleInDegrees = "180";
};
}),
(15,155,l,{
"Letterink-NibData" = {
AngleInDegrees = "90";
};
}),
(117,155,l,{
"Letterink-NibData" = {
AngleInDegrees = "180";
};
}),
(85,25,l,{
"Letterink-NibData" = {
AngleInDegrees = "90";
};
})
);
},
{
closed = 1;
nodes = (
(325,354,l,{
"Letterink-NibData" = {
AngleInDegrees = "90";
};
}),
(373,354,l,{
"Letterink-NibData" = {
AngleInDegrees = "180";
};
}),
(361,303,l,{
"Letterink-NibData" = {
AngleInDegrees = "270";
};
}),
(313,303,l)
);
}
);
width = 667;
}
);
unicode = 35;
userData = {
position = 366;
width = 56;
};
}
{
glyphname = ampersand;
kernRight = k;
layers = (
{
layerId = "0CAF3BED-C4AC-4024-B3E1-4C69D1EF7EC0";
shapes = (
{
closed = 1;
nodes = (
(575,-7,o),
(599,6,o),
(619,24,c),
(573,78,l),
(569,75,o),
(560,69,o),
(550,69,cs),
(536,69,o),
(522,89,o),
(436,169,cs),
(405,198,o),
(309,306,o),
(276,339,cs),
(217,398,o),
(199,454,o),
(203,487,cs),
(209,540,o),
(254,577,o),
(311,577,cs),
(351,577,o),
(381,557,o),
(377,532,cs),
(375,518,o),
(366,508,o),
(353,508,cs,{
"Letterink-NibData" = {
AngleInDegrees = 270;
};
}),
(348,508,o),
(345,509,o),
(343,515,c,{
"Letterink-NibData" = {
AngleInDegrees = 241.2602;
};
}),
(276,487,l),
(287,452,o),
(316,432,o),
(355,432,cs),
(402,432,o),
(445,470,o),
(451,522,cs),
(459,594,o),
(399,653,o),
(313,653,cs),
(221,653,o),
(135,581,o),
(124,495,cs),
(116,434,o),
(144,375,o),
(222,292,cs),
(264,247,o),
(349,149,o),
(384,119,cs),
(503,17,o),
(509,-7,o),
(548,-7,cs)
);
},
{
closed = 1;
nodes = (
(403,-18,o),
(549,138,o),
(560,349,c),
(485,342,l),
(478,186,o),
(367,58,o),
(222,58,cs),
(146,58,o),
(100,104,o),
(108,172,cs),
(115,229,o),
(161,288,o),
(219,310,c),
(191,373,l),
(103,339,o),
(39,262,o),
(29,180,cs),
(15,65,o),
(89,-18,o),
(218,-18,cs)
);
}
);
width = 663;
},
{
layerId = "49C16FD3-6177-408B-A733-AEB3898BB77C";
shapes = (
{
closed = 1;
nodes = (
(577,-2,o),
(602,6,o),
(620,22,c),
(596,50,l),
(591,45,o),
(576,34,o),
(563,34,cs),
(540,34,o),
(499,70,o),
(443,126,cs),
(408,161,o),
(305,269,o),
(255,326,cs),
(178,414,o),
(166,463,o),
(171,502,cs),
(179,567,o),
(243,613,o),
(306,613,cs),
(357,613,o),
(406,585,o),
(401,540,cs),
(398,515,o),
(382,494,o),
(358,494,cs),
(345,494,o),
(332,501,o),
(327,514,c),
(294,501,l),
(303,474,o),
(329,458,o),
(358,458,cs),
(397,458,o),
(430,490,o),
(436,535,cs),
(444,594,o),
(395,649,o),
(309,649,cs),
(220,649,o),
(143,586,o),
(133,504,cs),
(126,449,o),
(145,392,o),
(240,290,cs),
(278,249,o),
(385,135,o),
(414,107,cs),
(477,46,o),
(510,-2,o),
(557,-2,cs)
);
},
{
closed = 1;
nodes = (
(425,-13,o),
(544,173,o),
(541,342,c),
(508,339,l),
(509,185,o),
(399,24,o),
(234,22,cs),
(127,21,o),
(61,78,o),
(71,170,cs),
(78,232,o),
(129,301,o),
(207,339,c),
(189,364,l),
(105,327,o),
(43,251,o),
(33,167,cs),
(20,56,o),
(107,-13,o),
(226,-13,cs)
);
}
);
width = 672;
},
{
layerId = m004;
shapes = (
{
closed = 1;
nodes = (
(590,-29,o),
(638,-4,o),
(666,22,c),
(572,130,l),
(569,126,o),
(560,119,o),
(551,119,cs),
(542,119,o),
(506,170,o),
(469,201,cs),
(415,246,o),
(355,323,o),
(323,355,cs),
(263,415,o),
(267,447,o),
(270,472,cs),
(273,496,o),
(298,515,o),
(325,515,cs),
(343,515,o),
(353,506,o),
(351,490,cs),
(350,481,o),
(372,480,o),
(379,480,cs),
(381,480,o),
(398,497,o),
(393,511,c),
(294,468,l),
(308,419,o),
(338,384,o),
(389,384,cs),
(434,384,o),
(498,413,o),
(508,491,cs),
(523,605,o),
(428,661,o),
(330,661,cs),
(206,661,o),
(119,570,o),
(108,480,cs),
(99,409,o),
(135,349,o),
(215,263,cs),
(246,230,o),
(348,116,o),
(368,100,cs),
(433,48,o),
(469,-29,o),
(545,-29,cs)
);
},
{
closed = 1;
nodes = (
(450,-32,o),
(597,172,o),
(595,360,c),
(447,349,l),
(448,220,o),
(337,116,o),
(248,116,cs),
(207,116,o),
(180,143,o),
(184,179,cs),
(187,209,o),
(206,254,o),
(255,275,c),
(202,408,l),
(114,369,o),
(33,287,o),
(21,195,cs),
(2,51,o),
(101,-32,o),
(239,-32,cs)
);
}
);
width = 704;
}
);
unicode = 38;
userData = {
position = 485;
width = 53;
};
}
{
glyphname = quotesingle;
kernLeft = qt;
kernRight = qt;
layers = (
{
layerId = "0CAF3BED-C4AC-4024-B3E1-4C69D1EF7EC0";
shapes = (
{
closed = 1;
nodes = (
(184,487,l,{
"Letterink-NibData" = {
AngleInDegrees = 3.01279;
};
}),
(221,716,l,{
"Letterink-NibData" = {
AngleInDegrees = 270;
};
}),
(134,716,l,{
"Letterink-NibData" = {
AngleInDegrees = 176.98721;
};
}),
(115,487,l,{
"Letterink-NibData" = {
AngleInDegrees = 90;
};
})
);
}
);
width = 241;
},
{
layerId = "49C16FD3-6177-408B-A733-AEB3898BB77C";
shapes = (
{
closed = 1;
nodes = (
(154,498,l,{
"Letterink-NibData" = {
AngleInDegrees = 3.14496;
};
}),
(186,705,l,{
"Letterink-NibData" = {
AngleInDegrees = 270;
};
}),
(140,705,l,{
"Letterink-NibData" = {
AngleInDegrees = 176.85504;
};
}),
(120,498,l,{
"Letterink-NibData" = {
AngleInDegrees = 90;
};
})
);
}
);
width = 213;
},
{
layerId = m004;
shapes = (
{
closed = 1;
nodes = (
(231,449,l,{
"Letterink-NibData" = {
AngleInDegrees = "3.01279";
};
}),
(282,743,l,{
"Letterink-NibData" = {
AngleInDegrees = "270";
};
}),
(120,743,l,{
"Letterink-NibData" = {
AngleInDegrees = "176.98721";
};
}),
(99,449,l,{
"Letterink-NibData" = {
AngleInDegrees = "90";
};
})
);
}
);
width = 280;
}
);
unicode = 39;
userData = {
position = 55;
width = 52;
};
}
{
glyphname = parenleft;
kernLeft = parclosed;
kernRight = paropen;
layers = (
{
layerId = "0CAF3BED-C4AC-4024-B3E1-4C69D1EF7EC0";
shapes = (
{
closed = 1;
nodes = (
(287,-100,l,{
"Letterink-NibData" = {
AngleInDegrees = 298.49564;
};
}),
(162,-26,o),
(98,125,o),
(118,292,cs),
(139,469,o),
(244,622,o),
(387,691,c,{
"Letterink-NibData" = {
AngleInDegrees = 329.85862;
};
}),
(355,755,l,{
"Letterink-NibData" = {
AngleInDegrees = 243.18365;
};
}),
(168,666,o),
(57,488,o),
(34,299,cs,{
"Letterink-NibData" = {
AngleInDegrees = 180;
};
}),
(10,104,o),
(85,-70,o),
(246,-160,c,{
"Letterink-NibData" = {
AngleInDegrees = 30.14138;
};
})
);
}
);
width = 343;
},
{
layerId = "49C16FD3-6177-408B-A733-AEB3898BB77C";
shapes = (
{
closed = 1;
nodes = (
(257,-132,l,{
"Letterink-NibData" = {
AngleInDegrees = 302.30733;
};
}),
(128,-49,o),
(57,108,o),
(79,292,cs),
(100,471,o),
(211,635,o),
(363,721,c,{
"Letterink-NibData" = {
AngleInDegrees = 329.85862;
};
}),
(348,749,l,{
"Letterink-NibData" = {
AngleInDegrees = 241.05999;
};
}),
(161,650,o),
(62,477,o),
(39,295,cs,{
"Letterink-NibData" = {
AngleInDegrees = 180;
};
}),
(15,105,o),
(84,-67,o),
(238,-161,c,{
"Letterink-NibData" = {
AngleInDegrees = 29.35776;
};
})
);
}
);
width = 319;
},
{
layerId = m004;
shapes = (
{
closed = 1;
nodes = (
(353,-30,l,{
"Letterink-NibData" = {
AngleInDegrees = "298.49564";
};
}),
(247,12,o),
(171,157,o),
(187,294,cs),
(205,451,o),
(313,601,o),
(439,636,c,{
"Letterink-NibData" = {
AngleInDegrees = "329.85862";
};
}),
(374,770,l,{
"Letterink-NibData" = {
AngleInDegrees = "243.18365";
};
}),
(176,695,o),
(50,511,o),
(26,313,cs,{
"Letterink-NibData" = {
AngleInDegrees = "180";
};
}),
(0,100,o),
(94,-77,o),
(267,-159,c,{
"Letterink-NibData" = {
AngleInDegrees = "30.14138";
};
})
);
}
);
width = 396;
}
);
unicode = 40;
userData = {
position = 25;
width = 61;
};
}
{
glyphname = asterisk;
kernLeft = qt;
kernRight = qt;
layers = (
{
layerId = "0CAF3BED-C4AC-4024-B3E1-4C69D1EF7EC0";
shapes = (
{
closed = 1;
nodes = (
(264,532,l,{
"Letterink-NibData" = {
AngleInDegrees = 146.92932;
};
}),
(329,409,l,{
"Letterink-NibData" = {
AngleInDegrees = 54.95062;
};
}),
(403,458,l,{
"Letterink-NibData" = {
AngleInDegrees = 320.87739;
};
}),
(330,564,l,{
"Letterink-NibData" = {
AngleInDegrees = 74.69386;
};
}),
(471,602,l,{
"Letterink-NibData" = {
AngleInDegrees = 343.10135;
};
}),
(455,683,l,{
"Letterink-NibData" = {
AngleInDegrees = 248.29946;
};
}),
(310,628,l,{
"Letterink-NibData" = {
AngleInDegrees = 3.17983;
};
}),
(337,780,l,{
"Letterink-NibData" = {
AngleInDegrees = 270;
};
}),
(252,780,l,{
"Letterink-NibData" = {
AngleInDegrees = 176.79052;
};
}),
(241,629,l,{
"Letterink-NibData" = {
AngleInDegrees = 291.39289;
};
}),
(111,683,l,{
"Letterink-NibData" = {
AngleInDegrees = 198.2171;
};
}),
(75,602,l,{
"Letterink-NibData" = {
AngleInDegrees = 104.45243;
};
}),
(207,566,l,{
"Letterink-NibData" = {
AngleInDegrees = 219.5794;
};
}),
(107,459,l,{
"Letterink-NibData" = {
AngleInDegrees = 126.73283;
};
}),
(169,407,l,{
"Letterink-NibData" = {
AngleInDegrees = 32.93223;
};
})
);
}
);
width = 460;
},
{
layerId = "49C16FD3-6177-408B-A733-AEB3898BB77C";
shapes = (
{
closed = 1;
nodes = (
(255,580,l,{
"Letterink-NibData" = {
AngleInDegrees = 146.71247;
};
}),
(328,442,l,{
"Letterink-NibData" = {
AngleInDegrees = 54.90418;
};
}),
(367,468,l,{
"Letterink-NibData" = {
AngleInDegrees = 320.85601;
};
}),
(285,585,l,{
"Letterink-NibData" = {
AngleInDegrees = 74.74488;
};
}),
(442,629,l,{
"Letterink-NibData" = {
AngleInDegrees = 342.34988;
};
}),
(433,671,l,{
"Letterink-NibData" = {
AngleInDegrees = 248.55226;
};
}),
(272,610,l,{
"Letterink-NibData" = {
AngleInDegrees = 3.72131;
};
}),
(304,779,l,{
"Letterink-NibData" = {
AngleInDegrees = 270;
};
}),
(257,779,l,{
"Letterink-NibData" = {
AngleInDegrees = 176.71614;
};
}),
(245,611,l,{
"Letterink-NibData" = {
AngleInDegrees = 291.17574;
};
}),
(100,671,l,{
"Letterink-NibData" = {
AngleInDegrees = 104.64188;
};
}),
(82,629,l,{
"Letterink-NibData" = {
AngleInDegrees = 104.64188;
};
}),
(229,587,l,{
"Letterink-NibData" = {
AngleInDegrees = 219.2176;
};
}),
(117,468,l,{
"Letterink-NibData" = {
AngleInDegrees = 126.8699;
};
}),
(148,441,l,{
"Letterink-NibData" = {
AngleInDegrees = 33.02387;
};
})
);
}
);
width = 430;
},
{
layerId = m004;
shapes = (
{
closed = 1;
nodes = (
(278,482,l,{
"Letterink-NibData" = {
AngleInDegrees = "146.92932";
};
}),
(330,372,l,{
"Letterink-NibData" = {
AngleInDegrees = "54.95062";
};
}),
(458,455,l,{
"Letterink-NibData" = {
AngleInDegrees = "320.87739";
};
}),
(390,547,l,{
"Letterink-NibData" = {
AngleInDegrees = "74.69386";
};
}),
(511,573,l,{
"Letterink-NibData" = {
AngleInDegrees = "343.10135";
};
}),
(487,713,l,{
"Letterink-NibData" = {
AngleInDegrees = "248.29946";
};
}),
(360,662,l,{
"Letterink-NibData" = {
AngleInDegrees = "3.17983";
};
}),
(389,796,l,{
"Letterink-NibData" = {
AngleInDegrees = "270";
};
}),
(242,796,l,{
"Letterink-NibData" = {
AngleInDegrees = "176.79052";
};
}),
(237,663,l,{
"Letterink-NibData" = {
AngleInDegrees = "291.39289";
};
}),
(124,713,l,{
"Letterink-NibData" = {
AngleInDegrees = "198.2171";
};
}),
(61,573,l,{
"Letterink-NibData" = {
AngleInDegrees = "104.45243";
};
}),
(180,548,l,{
"Letterink-NibData" = {
AngleInDegrees = "219.5794";
};
}),
(88,458,l,{
"Letterink-NibData" = {
AngleInDegrees = "126.73283";
};
}),
(197,369,l,{
"Letterink-NibData" = {
AngleInDegrees = "32.93223";
};
})
);
}
);
width = 493;
}
);
unicode = 42;
userData = {
position = 27;
width = 295;
};
}
{
glyphname = plus;
layers = (
{
layerId = "0CAF3BED-C4AC-4024-B3E1-4C69D1EF7EC0";
shapes = (
{
closed = 1;
nodes = (
(281,103,l),
(300,259,l,{
"Letterink-NibData" = {
AngleInDegrees = 90;
};
}),
(453,259,l),
(462,332,l,{
"Letterink-NibData" = {
AngleInDegrees = 270;
};
}),
(309,332,l),
(328,487,l,{
"Letterink-NibData" = {
AngleInDegrees = 270;
};
}),
(251,487,l,{
"Letterink-NibData" = {
AngleInDegrees = 180;
};
}),
(232,332,l,{
"Letterink-NibData" = {
AngleInDegrees = 270;
};
}),
(79,332,l,{
"Letterink-NibData" = {
AngleInDegrees = 180;
};
}),
(70,259,l,{
"Letterink-NibData" = {
AngleInDegrees = 90;
};
}),
(223,259,l,{
"Letterink-NibData" = {
AngleInDegrees = 180;
};
}),
(204,103,l,{
"Letterink-NibData" = {
AngleInDegrees = 90;
};
})
);
}
);
width = 520;
},
{
layerId = "49C16FD3-6177-408B-A733-AEB3898BB77C";
shapes = (
{
closed = 1;
nodes = (
(242,111,l),
(262,275,l,{
"Letterink-NibData" = {
AngleInDegrees = 90;
};
}),
(425,275,l),
(429,311,l,{
"Letterink-NibData" = {
AngleInDegrees = 270;
};
}),
(266,311,l),
(287,474,l,{
"Letterink-NibData" = {
AngleInDegrees = 270;
};
}),
(249,474,l,{
"Letterink-NibData" = {
AngleInDegrees = 180;
};
}),
(228,311,l,{
"Letterink-NibData" = {
AngleInDegrees = 270;
};
}),
(65,311,l,{
"Letterink-NibData" = {
AngleInDegrees = 180;
};
}),
(61,275,l,{
"Letterink-NibData" = {
AngleInDegrees = 90;
};
}),
(224,275,l,{
"Letterink-NibData" = {
AngleInDegrees = 180;
};
}),
(204,111,l,{
"Letterink-NibData" = {
AngleInDegrees = 90;
};
})
);
}
);
width = 480;
},
{
layerId = m004;
shapes = (
{
closed = 1;
nodes = (
(334,90,l),
(351,227,l,{
"Letterink-NibData" = {
AngleInDegrees = 90;
};
}),
(485,227,l),
(503,375,l,{
"Letterink-NibData" = {
AngleInDegrees = 270;
};
}),
(369,375,l),
(386,511,l,{
"Letterink-NibData" = {
AngleInDegrees = 270;
};
}),
(225,511,l,{
"Letterink-NibData" = {
AngleInDegrees = 180;
};
}),
(208,375,l,{
"Letterink-NibData" = {
AngleInDegrees = 270;
};
}),
(74,375,l,{
"Letterink-NibData" = {
AngleInDegrees = 180;
};
}),
(56,227,l,{
"Letterink-NibData" = {
AngleInDegrees = 90;
};
}),
(190,227,l,{
"Letterink-NibData" = {
AngleInDegrees = 180;
};
}),
(173,90,l,{
"Letterink-NibData" = {
AngleInDegrees = 90;
};
})
);
}
);
width = 546;
}
);
unicode = 43;
userData = {
position = 173;
width = 56;
};
}
{
glyphname = comma;
kernLeft = punct;
kernRight = punct;
layers = (
{
layerId = "0CAF3BED-C4AC-4024-B3E1-4C69D1EF7EC0";
shapes = (
{
closed = 1;
nodes = (
(76,-116,o),
(106,-74,o),
(119,-46,cs,{
"Letterink-NibData" = {
AngleInDegrees = 26.56505;
};
}),
(132,-20,o),
(145,22,o),
(148,49,cs),
(151,77,o),
(137,95,o),
(112,95,cs,{
"Letterink-NibData" = {
AngleInDegrees = 270;
};
}),
(89,95,o),
(68,77,o),
(65,50,cs,{
"Letterink-NibData" = {
AngleInDegrees = 180;
};
}),
(63,29,o),
(65,-8,o),
(57,-30,cs,{
"Letterink-NibData" = {
AngleInDegrees = 192.99462;
};
}),
(49,-56,o),
(20,-96,o),
(3,-116,c,{
"Letterink-NibData" = {
AngleInDegrees = 139.3987;
};
}),
(41,-148,l,{
"Letterink-NibData" = {
AngleInDegrees = 57.52881;
};
})
);
}
);
width = 232;
},
{
layerId = "49C16FD3-6177-408B-A733-AEB3898BB77C";
shapes = (
{
closed = 1;
nodes = (
(68,-96,o),
(86,-67,o),
(96,-44,cs),
(108,-16,o),
(115,16,o),
(118,43,cs),
(120,57,o),
(114,71,o),
(98,71,cs,{
"Letterink-NibData" = {
AngleInDegrees = 270;
};
}),
(83,71,o),
(73,60,o),
(71,43,cs,{
"Letterink-NibData" = {
AngleInDegrees = 180;
};
}),
(70,33,o),
(68,-7,o),
(58,-32,cs),
(52,-48,o),
(35,-81,o),
(17,-103,c,{
"Letterink-NibData" = {
AngleInDegrees = 135;
};
}),
(46,-121,l,{
"Letterink-NibData" = {
AngleInDegrees = 52.30576;
};
})
);
}
);
width = 216;
},
{
layerId = m004;
shapes = (
{
closed = 1;
nodes = (
(93,-170,o),
(131,-124,o),
(161,-66,cs,{
"Letterink-NibData" = {
AngleInDegrees = 26.56505;
};
}),
(192,-5,o),
(203,52,o),
(205,65,cs),
(212,124,o),
(174,158,o),
(131,158,cs,{
"Letterink-NibData" = {
AngleInDegrees = 270;
};
}),
(90,158,o),
(47,123,o),
(42,78,cs,{
"Letterink-NibData" = {
AngleInDegrees = 180;
};
}),
(38,51,o),
(49,8,o),
(36,-40,cs,{
"Letterink-NibData" = {
AngleInDegrees = 192.99462;
};
}),
(29,-67,o),
(12,-104,o),
(-14,-133,c,{
"Letterink-NibData" = {
AngleInDegrees = 139.3987;
};
}),
(62,-198,l,{
"Letterink-NibData" = {
AngleInDegrees = 57.52881;
};
})
);
}
);
width = 265;
}
);
unicode = 44;
userData = {
position = 56;
width = 64;
};
}
{
glyphname = hyphen;
kernLeft = dash;
kernRight = dash;
layers = (
{
layerId = "0CAF3BED-C4AC-4024-B3E1-4C69D1EF7EC0";
shapes = (
{
closed = 1;
nodes = (
(414,269,l),
(424,345,l,{
"Letterink-NibData" = {
AngleInDegrees = 270;
};
}),
(93,345,l,{
"Letterink-NibData" = {
AngleInDegrees = 180;
};
}),
(83,269,l,{
"Letterink-NibData" = {
AngleInDegrees = 90;
};
})
);
}
);
width = 493;
},
{
layerId = "49C16FD3-6177-408B-A733-AEB3898BB77C";
shapes = (
{
closed = 1;
nodes = (
(398,288,l),
(402,324,l,{
"Letterink-NibData" = {
AngleInDegrees = 270;
};
}),
(95,324,l,{
"Letterink-NibData" = {
AngleInDegrees = 180;
};
}),
(91,288,l,{
"Letterink-NibData" = {
AngleInDegrees = 90;
};
})
);
}
);
width = 479;
},
{
layerId = m004;
shapes = (
{
closed = 1;
nodes = (
(449,244,l),
(467,392,l,{
"Letterink-NibData" = {
AngleInDegrees = 270;
};
}),
(83,392,l,{
"Letterink-NibData" = {
AngleInDegrees = 180;
};
}),
(65,244,l,{
"Letterink-NibData" = {
AngleInDegrees = 90;
};
})
);
}
);
width = 516;
}
);
unicode = 45;
userData = {
position = 54;
width = 297;
};
}
{
glyphname = period;
kernLeft = punct;
kernRight = punct;
layers = (
{
layerId = "0CAF3BED-C4AC-4024-B3E1-4C69D1EF7EC0";
shapes = (
{
closed = 1;
nodes = (
(118,-14,o),
(144,9,o),
(147,34,cs),
(151,64,o),
(127,91,o),
(98,91,cs,{
"Letterink-NibData" = {
AngleInDegrees = 270;
};
}),
(72,91,o),
(46,68,o),
(43,42,cs,{
"Letterink-NibData" = {
AngleInDegrees = 180;
};
}),
(40,13,o),
(63,-14,o),
(92,-14,cs,{
"Letterink-NibData" = {
AngleInDegrees = 90;
};
})
);
}
);
width = 243;
},
{
layerId = "49C16FD3-6177-408B-A733-AEB3898BB77C";
shapes = (
{
closed = 1;
nodes = (
(101,-5,o),
(118,8,o),
(120,28,cs),
(122,49,o),
(108,64,o),
(87,64,cs,{
"Letterink-NibData" = {
AngleInDegrees = 270;
};
}),
(68,64,o),
(53,50,o),
(51,32,cs,{
"Letterink-NibData" = {
AngleInDegrees = 180;
};
}),
(49,10,o),
(61,-5,o),
(82,-5,cs,{
"Letterink-NibData" = {
AngleInDegrees = 90;
};
})
);
}
);
width = 225;
},
{
layerId = m004;
shapes = (
{
closed = 1;
nodes = (
(166,-20,o),
(211,19,o),
(217,66,cs),
(224,123,o),
(183,169,o),
(125,169,cs,{
"Letterink-NibData" = {
AngleInDegrees = 270;
};
}),
(77,169,o),
(33,129,o),
(27,82,cs,{
"Letterink-NibData" = {
AngleInDegrees = 180;
};
}),
(20,27,o),
(60,-20,o),
(115,-20,cs,{
"Letterink-NibData" = {
AngleInDegrees = 90;
};
})
);
}
);
width = 288;
}
);
unicode = 46;
userData = {
position = 46;
width = 83;
};
}
{
glyphname = slash;
layers = (
{
layerId = "0CAF3BED-C4AC-4024-B3E1-4C69D1EF7EC0";
shapes = (
{
closed = 1;
nodes = (
(70,-68,l,{
"Letterink-NibData" = {
AngleInDegrees = 14.85728;
};
}),
(388,750,l,{
"Letterink-NibData" = {
AngleInDegrees = 270;
};
}),
(302,750,l,{
"Letterink-NibData" = {
AngleInDegrees = 194.98808;
};
}),
(-17,-68,l,{
"Letterink-NibData" = {
AngleInDegrees = 90;
};
})
);
}
);
width = 349;
},
{
layerId = "49C16FD3-6177-408B-A733-AEB3898BB77C";
shapes = (
{
closed = 1;
nodes = (
(31,-69,l,{
"Letterink-NibData" = {
AngleInDegrees = 14.9184;
};
}),
(351,751,l,{
"Letterink-NibData" = {
AngleInDegrees = 270;
};
}),
(310,751,l,{
"Letterink-NibData" = {
AngleInDegrees = 194.9184;
};
}),
(-9,-69,l,{
"Letterink-NibData" = {
AngleInDegrees = 90;
};
})
);
}
);
width = 319;
},
{
layerId = m004;
shapes = (
{
closed = 1;
nodes = (
(145,-69,l,{
"Letterink-NibData" = {
AngleInDegrees = "14.85728";
};
}),
(458,751,l,{
"Letterink-NibData" = {
AngleInDegrees = "270";
};
}),
(289,751,l,{
"Letterink-NibData" = {
AngleInDegrees = "194.98808";
};
}),
(-31,-69,l,{
"Letterink-NibData" = {
AngleInDegrees = "90";
};
})
);
}
);
width = 404;
}
);
unicode = 47;
userData = {
position = 15;
width = 282;
};
}
{
glyphname = zero;
kernLeft = O;
kernRight = O;
layers = (
{
layerId = "0CAF3BED-C4AC-4024-B3E1-4C69D1EF7EC0";
shapes = (
{
closed = 1;
nodes = (
(472,-9,o),
(584,147,o),
(605,317,cs),
(626,490,o),
(552,657,o),
(369,657,cs,{
"Letterink-NibData" = {
AngleInDegrees = "270";
};
}),
(190,657,o),
(77,497,o),
(56,328,cs,{
"Letterink-NibData" = {
AngleInDegrees = "180";
};
}),
(35,158,o),
(109,-9,o),
(295,-9,cs,{
"Letterink-NibData" = {
AngleInDegrees = "90";
};
})
);
},
{
closed = 1;
nodes = (
(169,65,o),
(124,191,o),
(140,320,cs),
(156,454,o),
(234,583,o),
(367,583,cs,{
"Letterink-NibData" = {
AngleInDegrees = "90";
};
}),
(493,583,o),
(539,462,o),
(522,329,cs,{
"Letterink-NibData" = {
AngleInDegrees = "180";
};
}),
(505,199,o),
(433,65,o),
(297,65,cs,{
"Letterink-NibData" = {
AngleInDegrees = "270";
};
})
);
}
);
width = 643;
},
{
layerId = "49C16FD3-6177-408B-A733-AEB3898BB77C";
shapes = (
{
closed = 1;
nodes = (
(460,-9,o),
(575,141,o),
(597,317,cs),
(619,492,o),
(543,652,o),
(367,652,cs,{
"Letterink-NibData" = {
AngleInDegrees = 270;
};
}),
(196,652,o),
(83,498,o),
(62,325,cs,{
"Letterink-NibData" = {
AngleInDegrees = 180;
};
}),
(41,151,o),
(115,-9,o),
(290,-9,cs,{
"Letterink-NibData" = {
AngleInDegrees = 90;
};
})
);
},
{
closed = 1;
nodes = (
(143,26,o),
(84,172,o),
(102,321,cs),
(120,469,o),
(216,617,o),
(368,617,cs,{
"Letterink-NibData" = {
AngleInDegrees = 90;
};
}),
(516,617,o),
(576,474,o),
(558,326,cs,{
"Letterink-NibData" = {
AngleInDegrees = 180;
};
}),
(540,181,o),
(451,26,o),
(292,26,cs,{
"Letterink-NibData" = {
AngleInDegrees = 270;
};
})
);
}
);
width = 642;
},
{
layerId = m004;
shapes = (
{
closed = 1;
nodes = (
(502,-15,o),
(600,155,o),
(619,311,cs),
(639,477,o),
(578,662,o),
(369,662,cs,{
"Letterink-NibData" = {
AngleInDegrees = 270;
};
}),
(170,662,o),
(64,489,o),
(44,330,cs,{
"Letterink-NibData" = {
AngleInDegrees = 180;
};
}),
(24,169,o),
(86,-15,o),
(298,-15,cs,{
"Letterink-NibData" = {
AngleInDegrees = 90;
};
})
);
},
{
closed = 1;
nodes = (
(228,129,o),
(196,195,o),
(211,314,cs),
(228,442,o),
(281,518,o),
(359,518,cs,{
"Letterink-NibData" = {
AngleInDegrees = 90;
};
}),
(433,518,o),
(467,451,o),
(452,331,cs,{
"Letterink-NibData" = {
AngleInDegrees = 180;
};
}),
(437,204,o),
(380,129,o),
(301,129,cs,{
"Letterink-NibData" = {
AngleInDegrees = 270;
};
})
);
}
);
width = 647;
}
);
unicode = 48;
userData = {
position = 521;
width = 62;
};
}
{
glyphname = one;
layers = (
{
layerId = "0CAF3BED-C4AC-4024-B3E1-4C69D1EF7EC0";
shapes = (
{
closed = 1;
nodes = (
(239,-1,l),
(321,667,l,{
"Letterink-NibData" = {
AngleInDegrees = 270;
};
}),
(295,668,l,{
"Letterink-NibData" = {
AngleInDegrees = 235.40771;
};
}),
(200,608,o),
(124,566,o),
(58,558,c,{
"Letterink-NibData" = {
AngleInDegrees = 165.77404;
};
}),
(72,491,l,{
"Letterink-NibData" = {
AngleInDegrees = 90.98776;
};
}),
(130,500,o),
(176,509,o),
(224,543,c,{
"Letterink-NibData" = {
AngleInDegrees = 180;
};
}),
(156,-1,l,{
"Letterink-NibData" = {
AngleInDegrees = 90;
};
})
);
}
);
width = 356;
},
{
layerId = "49C16FD3-6177-408B-A733-AEB3898BB77C";
shapes = (
{
closed = 1;
nodes = (
(202,0,l),
(283,661,l,{
"Letterink-NibData" = {
AngleInDegrees = 90;
};
}),
(270,662,l,{
"Letterink-NibData" = {
AngleInDegrees = 236.73857;
};
}),
(183,598,o),
(116,562,o),
(64,550,c,{
"Letterink-NibData" = {
AngleInDegrees = 164.74488;
};
}),
(71,516,l,{
"Letterink-NibData" = {
AngleInDegrees = 87.18444;
};
}),
(134,533,o),
(183,553,o),
(238,601,c,{
"Letterink-NibData" = {
AngleInDegrees = 180;
};
}),
(164,0,l,{
"Letterink-NibData" = {
AngleInDegrees = 90;
};
})
);
}
);
width = 324;
},
{
layerId = m004;
shapes = (
{
closed = 1;
nodes = (
(314,-5,l),
(398,675,l,{
"Letterink-NibData" = {
AngleInDegrees = 270;
};
}),
(310,677,l,{
"Letterink-NibData" = {
AngleInDegrees = 235.40771;
};
}),
(227,620,o),
(120,571,o),
(56,561,c,{
"Letterink-NibData" = {
AngleInDegrees = 165.77404;
};
}),
(77,401,l,{
"Letterink-NibData" = {
AngleInDegrees = 90.98776;
};
}),
(127,408,o),
(176,426,o),
(205,448,c,{
"Letterink-NibData" = {
AngleInDegrees = 180;
};
}),
(147,-5,l,{
"Letterink-NibData" = {
AngleInDegrees = 90;
};
})
);
}
);
width = 417;
}
);
unicode = 49;
userData = {
position = 217;
width = 61;
};
}
{
glyphname = two;
layers = (
{
layerId = "0CAF3BED-C4AC-4024-B3E1-4C69D1EF7EC0";
shapes = (
{
closed = 1;
nodes = (
(456,-1,l),
(465,76,l,{
"Letterink-NibData" = {
AngleInDegrees = 270;
};
}),
(110,74,l,{
"Letterink-NibData" = {
AngleInDegrees = 19.88516;
};
}),
(132,121,o),
(171,157,o),
(206,181,cs,{
"Letterink-NibData" = {
AngleInDegrees = 50.71059;
};
}),
(344,276,o),
(464,328,o),
(482,470,cs),
(497,586,o),
(427,658,o),
(303,658,cs,{
"Letterink-NibData" = {
AngleInDegrees = 270;
};
}),
(196,658,o),
(115,604,o),
(68,499,c,{
"Letterink-NibData" = {
AngleInDegrees = 117.55281;
};
}),
(133,461,l,{
"Letterink-NibData" = {
AngleInDegrees = 11.88866;
};
}),
(158,535,o),
(221,584,o),
(299,584,cs,{
"Letterink-NibData" = {
AngleInDegrees = 90;
};
}),
(371,584,o),
(407,543,o),
(399,481,cs,{
"Letterink-NibData" = {
AngleInDegrees = 180;
};
}),
(387,388,o),
(292,336,o),
(204,277,cs,{
"Letterink-NibData" = {
AngleInDegrees = 233.05441;
};
}),
(83,197,o),
(23,123,o),
(11,17,cs,{
"Letterink-NibData" = {
AngleInDegrees = 180;
};
}),
(9,-1,l,{
"Letterink-NibData" = {
AngleInDegrees = 90;
};
})
);
}
);
width = 520;
},
{
layerId = "49C16FD3-6177-408B-A733-AEB3898BB77C";
shapes = (
{
closed = 1;
nodes = (
(436,0,l),
(440,37,l,{
"Letterink-NibData" = {
AngleInDegrees = 270;
};
}),
(52,36,l,{
"Letterink-NibData" = {
AngleInDegrees = 9.75243;
};
}),
(70,98,o),
(117,141,o),
(197,198,cs,{
"Letterink-NibData" = {
AngleInDegrees = 51.57192;
};
}),
(326,290,o),
(446,344,o),
(462,474,cs),
(475,584,o),
(406,655,o),
(286,655,cs,{
"Letterink-NibData" = {
AngleInDegrees = 270;
};
}),
(194,655,o),
(123,609,o),
(78,519,c,{
"Letterink-NibData" = {
AngleInDegrees = 117.29957;
};
}),
(109,502,l,{
"Letterink-NibData" = {
AngleInDegrees = 18.65789;
};
}),
(146,575,o),
(208,620,o),
(288,620,cs,{
"Letterink-NibData" = {
AngleInDegrees = 90;
};
}),
(378,620,o),
(432,558,o),
(422,477,cs,{
"Letterink-NibData" = {
AngleInDegrees = 180;
};
}),
(409,369,o),
(301,317,o),
(199,246,cs,{
"Letterink-NibData" = {
AngleInDegrees = 232.54323;
};
}),
(75,159,o),
(10,96,o),
(10,3,cs,{
"Letterink-NibData" = {
AngleInDegrees = 180;
};
}),
(10,0,l,{
"Letterink-NibData" = {
AngleInDegrees = 90;
};
})
);
}
);
width = 502;
},
{
layerId = m004;
shapes = (
{
closed = 1;
nodes = (
(481,1,l),
(499,150,l,{
"Letterink-NibData" = {
AngleInDegrees = 270;
};
}),
(233,146,l,{
"Letterink-NibData" = {
AngleInDegrees = 19.88516;
};
}),
(241,166,o),
(319,227,o),
(368,260,cs,{
"Letterink-NibData" = {
AngleInDegrees = 50.71059;
};
}),
(443,310,o),
(515,375,o),
(525,459,cs),
(539,577,o),
(452,662,o),
(316,662,cs,{
"Letterink-NibData" = {
AngleInDegrees = 270;
};
}),
(194,662,o),
(96,594,o),
(58,489,c,{
"Letterink-NibData" = {
AngleInDegrees = 117.55281;
};
}),
(185,419,l,{
"Letterink-NibData" = {
AngleInDegrees = 11.88866;
};
}),
(206,479,o),
(253,518,o),
(307,518,cs,{
"Letterink-NibData" = {
AngleInDegrees = 90;
};
}),
(340,518,o),
(360,500,o),
(357,469,cs,{
"Letterink-NibData" = {
AngleInDegrees = 180;
};
}),
(352,427,o),
(309,391,o),
(256,359,cs,{
"Letterink-NibData" = {
AngleInDegrees = 233.05441;
};
}),
(11,212,o),
(20,104,o),
(9,17,cs,{
"Letterink-NibData" = {
AngleInDegrees = 180;
};
}),
(7,1,l,{
"Letterink-NibData" = {
AngleInDegrees = 90;
};
})
);
}
);
width = 548;
}
);
unicode = 50;
userData = {
position = 390;
width = 57;
};
}
{
glyphname = three;
kernRight = B;
layers = (
{
layerId = "0CAF3BED-C4AC-4024-B3E1-4C69D1EF7EC0";
shapes = (
{
closed = 1;
nodes = (
(360,-12,o),
(468,64,o),
(482,175,cs),
(493,260,o),
(447,349,o),
(377,365,c,{
"Letterink-NibData" = {
AngleInDegrees = 67.38013;
};
}),
(446,392,o),
(479,450,o),
(486,501,cs),
(500,601,o),
(413,664,o),
(299,664,cs,{
"Letterink-NibData" = {
AngleInDegrees = 270;
};
}),
(234,664,o),
(171,643,o),
(115,601,c,{
"Letterink-NibData" = {
AngleInDegrees = 147.82878;
};
}),
(150,537,l,{
"Letterink-NibData" = {
AngleInDegrees = 48.01279;
};
}),
(194,574,o),
(252,590,o),
(297,590,cs,{
"Letterink-NibData" = {
AngleInDegrees = 90;
};
}),
(356,590,o),
(408,561,o),
(401,501,cs,{
"Letterink-NibData" = {
AngleInDegrees = 180;
};
}),
(395,447,o),
(345,397,o),
(273,397,cs,{
"Letterink-NibData" = {
AngleInDegrees = 270;
};
}),
(168,397,l,{
"Letterink-NibData" = {
AngleInDegrees = 180;
};
}),
(158,321,l,{
"Letterink-NibData" = {
AngleInDegrees = 90;
};
}),
(268,321,ls,{
"Letterink-NibData" = {
AngleInDegrees = 90;
};
}),
(341,321,o),
(410,276,o),
(400,193,cs,{
"Letterink-NibData" = {
AngleInDegrees = 180;
};
}),
(390,108,o),
(310,62,o),
(227,62,cs,{
"Letterink-NibData" = {
AngleInDegrees = 270;
};
}),
(160,62,o),
(95,94,o),
(49,145,c,{
"Letterink-NibData" = {
AngleInDegrees = 218.90414;
};
}),
(-2,88,l,{
"Letterink-NibData" = {
AngleInDegrees = 137.95078;
};
}),
(45,29,o),
(136,-12,o),
(231,-12,cs,{
"Letterink-NibData" = {
AngleInDegrees = 90;
};
})
);
}
);
width = 532;
},
{
layerId = "49C16FD3-6177-408B-A733-AEB3898BB77C";
shapes = (
{
closed = 1;
nodes = (
(354,-11,o),
(452,67,o),
(466,178,cs),
(479,280,o),
(415,355,o),
(307,358,c,{
"Letterink-NibData" = {
AngleInDegrees = 87.10142;
};
}),
(389,360,o),
(458,441,o),
(467,514,cs),
(478,600,o),
(406,659,o),
(293,659,cs,{
"Letterink-NibData" = {
AngleInDegrees = 270;
};
}),
(242,659,o),
(175,640,o),
(128,609,c,{
"Letterink-NibData" = {
AngleInDegrees = 151.38954;
};
}),
(142,577,l,{
"Letterink-NibData" = {
AngleInDegrees = 52.22432;
};
}),
(185,609,o),
(244,624,o),
(297,624,cs,{
"Letterink-NibData" = {
AngleInDegrees = 90;
};
}),
(386,624,o),
(435,581,o),
(427,516,cs,{
"Letterink-NibData" = {
AngleInDegrees = 180;
};
}),
(417,437,o),
(329,377,o),
(262,377,cs,{
"Letterink-NibData" = {
AngleInDegrees = 270;
};
}),
(163,377,l,{
"Letterink-NibData" = {
AngleInDegrees = 180;
};
}),
(159,341,l,{
"Letterink-NibData" = {
AngleInDegrees = 90;
};
}),
(261,341,ls,{
"Letterink-NibData" = {
AngleInDegrees = 90;
};
}),
(348,341,o),
(438,286,o),
(426,178,cs,{
"Letterink-NibData" = {
AngleInDegrees = 180;
};
}),
(415,82,o),
(335,24,o),
(221,24,cs,{
"Letterink-NibData" = {
AngleInDegrees = 270;
};
}),
(141,24,o),
(79,48,o),
(30,104,c,{
"Letterink-NibData" = {
AngleInDegrees = 216.25384;
};
}),
(5,79,l,{
"Letterink-NibData" = {
AngleInDegrees = 130.50285;
};
}),
(55,28,o),
(112,-11,o),
(210,-11,cs,{
"Letterink-NibData" = {
AngleInDegrees = 90;
};
})
);
}
);
width = 521;
},
{
layerId = m004;
shapes = (
{
closed = 1;
nodes = (
(388,-22,o),
(496,56,o),
(511,175,cs),
(522,261,o),
(480,333,o),
(413,356,c,{
"Letterink-NibData" = {
AngleInDegrees = 67.38013;
};
}),
(473,381,o),
(507,427,o),
(514,483,cs),
(527,589,o),
(440,669,o),
(309,669,cs,{
"Letterink-NibData" = {
AngleInDegrees = 270;
};
}),
(228,669,o),
(128,636,o),
(86,596,c,{
"Letterink-NibData" = {
AngleInDegrees = 147.82878;
};
}),
(151,472,l,{
"Letterink-NibData" = {
AngleInDegrees = 48.01279;
};
}),
(188,504,o),
(232,525,o),
(281,525,cs,{
"Letterink-NibData" = {
AngleInDegrees = 90;
};
}),
(327,525,o),
(351,508,o),
(347,475,cs,{
"Letterink-NibData" = {
AngleInDegrees = 180;
};
}),
(342,438,o),
(316,414,o),
(283,414,cs,{
"Letterink-NibData" = {
AngleInDegrees = 270;
};
}),
(171,414,l,{
"Letterink-NibData" = {
AngleInDegrees = 180;
};
}),
(154,275,l,{
"Letterink-NibData" = {
AngleInDegrees = 90;
};
}),
(273,275,ls,{
"Letterink-NibData" = {
AngleInDegrees = 90;
};
}),
(326,275,o),
(351,254,o),
(346,212,cs,{
"Letterink-NibData" = {
AngleInDegrees = 180;
};
}),
(340,157,o),
(297,122,o),
(231,122,cs,{
"Letterink-NibData" = {
AngleInDegrees = 270;
};
}),
(177,122,o),
(123,143,o),
(88,187,c,{
"Letterink-NibData" = {
AngleInDegrees = 218.90414;
};
}),
(-8,82,l,{
"Letterink-NibData" = {
AngleInDegrees = 137.95078;
};
}),
(36,21,o),
(132,-22,o),
(240,-22,cs,{
"Letterink-NibData" = {
AngleInDegrees = 90;
};
})
);
}
);
width = 550;
}
);
unicode = 51;
userData = {
position = 425;
width = 64;
};
}
{
glyphname = four;
layers = (
{
layerId = "0CAF3BED-C4AC-4024-B3E1-4C69D1EF7EC0";
shapes = (
{
closed = 1;
nodes = (
(391,-3,l),
(410,158,l,{
"Letterink-NibData" = {
AngleInDegrees = 90;
};
}),
(369,122,l,{
"Letterink-NibData" = {
AngleInDegrees = 90;
};
}),
(487,122,l),
(496,198,l,{
"Letterink-NibData" = {
AngleInDegrees = 270;
};
}),
(380,198,l),
(412,162,l),
(442,415,l,{
"Letterink-NibData" = {
AngleInDegrees = 270;
};
}),
(360,415,l,{
"Letterink-NibData" = {
AngleInDegrees = 180;
};
}),
(330,162,l,{
"Letterink-NibData" = {
AngleInDegrees = 270;
};
}),
(370,198,l,{
"Letterink-NibData" = {
AngleInDegrees = 270;
};
}),
(85,198,l,{
"Letterink-NibData" = {
AngleInDegrees = 23.24427;
};
}),
(104,165,l,{
"Letterink-NibData" = {
AngleInDegrees = 23.24427;
};
}),
(372,652,l,{
"Letterink-NibData" = {
AngleInDegrees = 270;
};
}),
(282,652,l,{
"Letterink-NibData" = {
AngleInDegrees = 203.30172;
};
}),
(23,183,l,{
"Letterink-NibData" = {
AngleInDegrees = 180;
};
}),
(16,122,l,{
"Letterink-NibData" = {
AngleInDegrees = 90;
};
}),
(359,122,l,{
"Letterink-NibData" = {
AngleInDegrees = 180;
};
}),
(328,158,l,{
"Letterink-NibData" = {
AngleInDegrees = 180;
};
}),
(309,-3,l,{
"Letterink-NibData" = {
AngleInDegrees = 90;
};
})
);
}
);
width = 530;
},
{
layerId = "49C16FD3-6177-408B-A733-AEB3898BB77C";
shapes = (
{
closed = 1;
nodes = (
(372,-2,l),
(390,148,l,{
"Letterink-NibData" = {
AngleInDegrees = 90;
};
}),
(372,132,l,{
"Letterink-NibData" = {
AngleInDegrees = 90;
};
}),
(475,132,l),
(480,168,l,{
"Letterink-NibData" = {
AngleInDegrees = 270;
};
}),
(377,168,l),
(391,152,l),
(421,397,l,{
"Letterink-NibData" = {
AngleInDegrees = 270;
};
}),
(383,397,l,{
"Letterink-NibData" = {
AngleInDegrees = 180;
};
}),
(353,152,l,{
"Letterink-NibData" = {
AngleInDegrees = 270;
};
}),
(371,168,l,{
"Letterink-NibData" = {
AngleInDegrees = 270;
};
}),
(50,168,l,{
"Letterink-NibData" = {
AngleInDegrees = 23.16971;
};
}),
(58,153,l,{
"Letterink-NibData" = {
AngleInDegrees = 23.16971;
};
}),
(331,650,l,{
"Letterink-NibData" = {
AngleInDegrees = 270;
};
}),
(292,650,l,{
"Letterink-NibData" = {
AngleInDegrees = 203.16971;
};
}),
(28,170,l,{
"Letterink-NibData" = {
AngleInDegrees = 180;
};
}),
(23,132,l,{
"Letterink-NibData" = {
AngleInDegrees = 90;
};
}),
(366,132,l,{
"Letterink-NibData" = {
AngleInDegrees = 180;
};
}),
(352,148,l,{
"Letterink-NibData" = {
AngleInDegrees = 180;
};
}),
(334,-2,l,{
"Letterink-NibData" = {
AngleInDegrees = 90;
};
})
);
}
);
width = 521;
},
{
layerId = m004;
shapes = (
{
closed = 1;
nodes = (
(445,-3,l),
(462,149,l,{
"Letterink-NibData" = {
AngleInDegrees = 90;
};
}),
(422,113,l,{
"Letterink-NibData" = {
AngleInDegrees = 90;
};
}),
(524,113,l),
(542,261,l,{
"Letterink-NibData" = {
AngleInDegrees = 270;
};
}),
(442,261,l),
(474,225,l),
(498,428,l,{
"Letterink-NibData" = {
AngleInDegrees = 270;
};
}),
(333,428,l,{
"Letterink-NibData" = {
AngleInDegrees = 180;
};
}),
(309,225,l,{
"Letterink-NibData" = {
AngleInDegrees = 270;
};
}),
(349,261,l,{
"Letterink-NibData" = {
AngleInDegrees = 270;
};
}),
(183,261,l,{
"Letterink-NibData" = {
AngleInDegrees = 23.24427;
};
}),
(202,228,l,{
"Letterink-NibData" = {
AngleInDegrees = 23.24427;
};
}),
(425,650,l,{
"Letterink-NibData" = {
AngleInDegrees = 270;
};
}),
(258,650,l,{
"Letterink-NibData" = {
AngleInDegrees = 203.30172;
};
}),
(22,225,l,{
"Letterink-NibData" = {
AngleInDegrees = 180;
};
}),
(9,113,l,{
"Letterink-NibData" = {
AngleInDegrees = 90;
};
}),
(329,113,l,{
"Letterink-NibData" = {
AngleInDegrees = 180;
};
}),
(297,149,l,{
"Letterink-NibData" = {
AngleInDegrees = 180;
};
}),
(280,-3,l,{
"Letterink-NibData" = {
AngleInDegrees = 90;
};
})
);
}
);
width = 566;
}
);
unicode = 52;
userData = {
position = 338;
width = 62;
};
}
{
glyphname = five;
layers = (
{
layerId = "0CAF3BED-C4AC-4024-B3E1-4C69D1EF7EC0";
shapes = (
{
closed = 1;
nodes = (
(344,-16,o),
(460,82,o),
(476,213,cs),
(492,348,o),
(406,435,o),
(253,435,cs,{
"Letterink-NibData" = {
AngleInDegrees = "270";
};
}),
(212,435,o),
(163,431,o),
(142,424,c),
(174,395,l),
(198,601,l,{
"Letterink-NibData" = {
AngleInDegrees = "90.21621";
};
}),
(156,565,l,{
"Letterink-NibData" = {
AngleInDegrees = "90.21621";
};
}),
(467,564,l),
(477,641,l,{
"Letterink-NibData" = {
AngleInDegrees = "269.66977";
};
}),
(119,639,l,{
"Letterink-NibData" = {
AngleInDegrees = "180";
};
}),
(87,338,l,{
"Letterink-NibData" = {
AngleInDegrees = "60.01836";
};
}),
(114,349,o),
(168,357,o),
(228,357,cs,{
"Letterink-NibData" = {
AngleInDegrees = "90";
};
}),
(353,357,o),
(404,317,o),
(393,228,cs,{
"Letterink-NibData" = {
AngleInDegrees = "180";
};
}),
(381,127,o),
(308,58,o),
(214,58,cs,{
"Letterink-NibData" = {
AngleInDegrees = "270";
};
}),
(156,58,o),
(111,77,o),
(68,120,c,{
"Letterink-NibData" = {
AngleInDegrees = "213.23171";
};
}),
(18,61,l,{
"Letterink-NibData" = {
AngleInDegrees = "140.47737";
};
}),
(60,14,o),
(132,-16,o),
(205,-16,cs,{
"Letterink-NibData" = {
AngleInDegrees = "90";
};
})
);
}
);
width = 520;
},
{
layerId = "49C16FD3-6177-408B-A733-AEB3898BB77C";
shapes = (
{
closed = 1;
nodes = (
(333,-6,o),
(437,86,o),
(452,212,cs),
(467,339,o),
(382,421,o),
(236,421,cs,{
"Letterink-NibData" = {
AngleInDegrees = 270;
};
}),
(203,421,o),
(150,416,o),
(108,407,c),
(129,394,l),
(156,621,l,{
"Letterink-NibData" = {
AngleInDegrees = 90;
};
}),
(138,605,l,{
"Letterink-NibData" = {
AngleInDegrees = 90;
};
}),
(456,605,l),
(461,641,l,{
"Letterink-NibData" = {
AngleInDegrees = 270;
};
}),
(121,641,l,{
"Letterink-NibData" = {
AngleInDegrees = 180;
};
}),
(88,366,l,{
"Letterink-NibData" = {
AngleInDegrees = 70.14479;
};
}),
(127,380,o),
(163,386,o),
(232,386,cs,{
"Letterink-NibData" = {
AngleInDegrees = 90;
};
}),
(368,386,o),
(427,318,o),
(414,212,cs,{
"Letterink-NibData" = {
AngleInDegrees = 180;
};
}),
(401,107,o),
(312,30,o),
(202,30,cs,{
"Letterink-NibData" = {
AngleInDegrees = 270;
};
}),
(143,30,o),
(89,52,o),
(51,87,c,{
"Letterink-NibData" = {
AngleInDegrees = 219.61069;
};
}),
(25,58,l,{
"Letterink-NibData" = {
AngleInDegrees = 132.06432;
};
}),
(59,25,o),
(122,-6,o),
(199,-6,cs,{
"Letterink-NibData" = {
AngleInDegrees = 90;
};
})
);
}
);
width = 502;
},
{
layerId = m004;
shapes = (
{
closed = 1;
nodes = (
(376,-22,o),
(492,77,o),
(509,215,cs),
(525,344,o),
(451,430,o),
(320,430,cs,{
"Letterink-NibData" = {
AngleInDegrees = 270;
};
}),
(307,430,o),
(260,430,o),
(234,422,c),
(256,391,l),
(270,529,l,{
"Letterink-NibData" = {
AngleInDegrees = 90.21621;
};
}),
(227,494,l,{
"Letterink-NibData" = {
AngleInDegrees = 90.21621;
};
}),
(506,494,l),
(524,641,l,{
"Letterink-NibData" = {
AngleInDegrees = 269.66977;
};
}),
(118,643,l,{
"Letterink-NibData" = {
AngleInDegrees = 180;
};
}),
(76,283,l,{
"Letterink-NibData" = {
AngleInDegrees = 60.01836;
};
}),
(144,297,o),
(190,303,o),
(228,303,cs,{
"Letterink-NibData" = {
AngleInDegrees = 90;
};
}),
(310,303,o),
(348,272,o),
(341,222,cs,{
"Letterink-NibData" = {
AngleInDegrees = 180;
};
}),
(333,165,o),
(291,122,o),
(229,122,cs,{
"Letterink-NibData" = {
AngleInDegrees = 270;
};
}),
(189,122,o),
(135,137,o),
(96,175,c,{
"Letterink-NibData" = {
AngleInDegrees = 213.23171;
};
}),
(1,64,l,{
"Letterink-NibData" = {
AngleInDegrees = 140.47737;
};
}),
(47,7,o),
(143,-22,o),
(228,-22,cs,{
"Letterink-NibData" = {
AngleInDegrees = 90;
};
})
);
}
);
width = 547;
}
);
unicode = 53;
userData = {
position = 400;
width = 59;
};
}
{
glyphname = six;
kernLeft = O;
layers = (
{
layerId = "0CAF3BED-C4AC-4024-B3E1-4C69D1EF7EC0";
shapes = (
{
closed = 1;
nodes = (
(394,-17,o),
(506,63,o),
(523,207,cs),
(539,342,o),
(453,443,o),
(319,443,cs,{
"Letterink-NibData" = {
AngleInDegrees = "270";
};
}),
(214,443,o),
(129,372,o),
(104,279,c,{
"Letterink-NibData" = {
AngleInDegrees = "15.39555";
};
}),
(129,316,l,{
"Letterink-NibData" = {
AngleInDegrees = "15.39555";
};
}),
(169,467,o),
(307,580,o),
(494,580,c),
(499,654,l,{
"Letterink-NibData" = {
AngleInDegrees = "272.14759";
};
}),
(258,654,o),
(76,494,o),
(47,258,cs,{
"Letterink-NibData" = {
AngleInDegrees = "180";
};
}),
(28,101,o),
(118,-17,o),
(257,-17,cs,{
"Letterink-NibData" = {
AngleInDegrees = "90";
};
})
);
},
{
closed = 1;
nodes = (
(178,57,o),
(121,122,o),
(132,210,cs),
(143,300,o),
(219,369,o),
(309,369,cs,{
"Letterink-NibData" = {
AngleInDegrees = "90";
};
}),
(395,369,o),
(450,304,o),
(440,217,cs,{
"Letterink-NibData" = {
AngleInDegrees = "180";
};
}),
(430,126,o),
(353,57,o),
(266,57,cs,{
"Letterink-NibData" = {
AngleInDegrees = "270";
};
})
);
}
);
width = 564;
},
{
layerId = "49C16FD3-6177-408B-A733-AEB3898BB77C";
shapes = (
{
closed = 1;
nodes = (
(385,-12,o),
(499,85,o),
(514,206,cs),
(529,328,o),
(439,429,o),
(315,429,cs,{
"Letterink-NibData" = {
AngleInDegrees = 270;
};
}),
(216,429,o),
(120,362,o),
(69,255,c,{
"Letterink-NibData" = {
AngleInDegrees = 6.34019;
};
}),
(83,255,l,{
"Letterink-NibData" = {
AngleInDegrees = 6.34019;
};
}),
(116,438,o),
(276,608,o),
(484,614,c),
(487,650,l,{
"Letterink-NibData" = {
AngleInDegrees = 270;
};
}),
(274,649,o),
(80,470,o),
(54,260,cs,{
"Letterink-NibData" = {
AngleInDegrees = 180;
};
}),
(34,100,o),
(120,-12,o),
(257,-12,cs,{
"Letterink-NibData" = {
AngleInDegrees = 90;
};
})
);
},
{
closed = 1;
nodes = (
(159,23,o),
(81,107,o),
(93,204,cs),
(106,306,o),
(210,394,o),
(313,394,cs,{
"Letterink-NibData" = {
AngleInDegrees = 90;
};
}),
(412,394,o),
(486,311,o),
(474,211,cs,{
"Letterink-NibData" = {
AngleInDegrees = 180;
};
}),
(462,108,o),
(364,23,o),
(261,23,cs,{
"Letterink-NibData" = {
AngleInDegrees = 270;
};
})
);
}
);
width = 560;
},
{
layerId = m004;
shapes = (
{
closed = 1;
nodes = (
(416,-27,o),
(527,69,o),
(545,211,cs),
(563,350,o),
(473,453,o),
(338,453,cs,{
"Letterink-NibData" = {
AngleInDegrees = "270";
};
}),
(193,453,o),
(129,336,o),
(127,232,c,{
"Letterink-NibData" = {
AngleInDegrees = "15.39555";
};
}),
(168,296,l,{
"Letterink-NibData" = {
AngleInDegrees = "15.39555";
};
}),
(222,456,o),
(327,519,o),
(511,516,c),
(524,672,l,{
"Letterink-NibData" = {
AngleInDegrees = "272.14759";
};
}),
(263,672,o),
(66,509,o),
(37,271,cs,{
"Letterink-NibData" = {
AngleInDegrees = "180";
};
}),
(15,89,o),
(105,-27,o),
(269,-27,cs,{
"Letterink-NibData" = {
AngleInDegrees = "90";
};
})
);
},
{
closed = 1;
nodes = (
(224,121,o),
(194,154,o),
(200,205,cs),
(207,265,o),
(253,308,o),
(309,308,cs,{
"Letterink-NibData" = {
AngleInDegrees = "90";
};
}),
(359,308,o),
(388,273,o),
(381,221,cs,{
"Letterink-NibData" = {
AngleInDegrees = "180";
};
}),
(373,162,o),
(330,121,o),
(274,121,cs,{
"Letterink-NibData" = {
AngleInDegrees = "270";
};
})
);
}
);
width = 577;
}
);
metricLeft = zero;
unicode = 54;
userData = {
position = 454;
width = 53;
};
}
{
glyphname = seven;
layers = (
{
layerId = "0CAF3BED-C4AC-4024-B3E1-4C69D1EF7EC0";
shapes = (
{
closed = 1;
nodes = (
(178,-1,l,{
"Letterink-NibData" = {
AngleInDegrees = 22.05712;
};
}),
(504,616,l),
(507,641,l,{
"Letterink-NibData" = {
AngleInDegrees = 270;
};
}),
(73,641,l,{
"Letterink-NibData" = {
AngleInDegrees = 180;
};
}),
(63,565,l,{
"Letterink-NibData" = {
AngleInDegrees = 90.36148;
};
}),
(385,565,l,{
"Letterink-NibData" = {
AngleInDegrees = 202.47337;
};
}),
(85,-1,l,{
"Letterink-NibData" = {
AngleInDegrees = 90;
};
})
);
}
);
width = 484;
},
{
layerId = "49C16FD3-6177-408B-A733-AEB3898BB77C";
shapes = (
{
closed = 1;
nodes = (
(146,1,l,{
"Letterink-NibData" = {
AngleInDegrees = 22.274;
};
}),
(480,626,l),
(480,641,l,{
"Letterink-NibData" = {
AngleInDegrees = 270;
};
}),
(77,641,l,{
"Letterink-NibData" = {
AngleInDegrees = 180;
};
}),
(72,605,l,{
"Letterink-NibData" = {
AngleInDegrees = 90.1637;
};
}),
(425,604,l,{
"Letterink-NibData" = {
AngleInDegrees = 202.21183;
};
}),
(104,1,l,{
"Letterink-NibData" = {
AngleInDegrees = 90;
};
})
);
}
);
width = 466;
},
{
layerId = m004;
shapes = (
{
closed = 1;
nodes = (
(230,-5,l,{
"Letterink-NibData" = {
AngleInDegrees = "22.05712";
};
}),
(518,552,l),
(528,641,l,{
"Letterink-NibData" = {
AngleInDegrees = "270";
};
}),
(72,641,l,{
"Letterink-NibData" = {
AngleInDegrees = "180";
};
}),
(54,493,l,{
"Letterink-NibData" = {
AngleInDegrees = "90.36148";
};
}),
(305,493,l,{
"Letterink-NibData" = {
AngleInDegrees = "202.47337";
};
}),
(48,-5,l,{
"Letterink-NibData" = {
AngleInDegrees = "90";
};
})
);
}
);
width = 504;
}
);
unicode = 55;
userData = {
position = 592;
width = 56;
};
}
{
glyphname = eight;
kernRight = B;
layers = (
{
layerId = "0CAF3BED-C4AC-4024-B3E1-4C69D1EF7EC0";
shapes = (
{
closed = 1;
nodes = (
(378,-16,o),
(480,62,o),
(494,177,cs),
(505,265,o),
(459,335,o),
(377,368,c,{
"Letterink-NibData" = {
AngleInDegrees = "52.88314";
};
}),
(378,342,l,{
"Letterink-NibData" = {
AngleInDegrees = "52.88314";
};
}),
(444,379,o),
(487,435,o),
(494,492,cs),
(505,583,o),
(426,658,o),
(316,658,cs,{
"Letterink-NibData" = {
AngleInDegrees = "270";
};
}),
(210,658,o),
(119,588,o),
(109,496,cs,{
"Letterink-NibData" = {
AngleInDegrees = "180";
};
}),
(102,434,o),
(130,383,o),
(187,353,c,{
"Letterink-NibData" = {
AngleInDegrees = "232.33438";
};
}),
(189,385,l,{
"Letterink-NibData" = {
AngleInDegrees = "232.33438";
};
}),
(91,325,o),
(42,261,o),
(33,187,cs,{
"Letterink-NibData" = {
AngleInDegrees = "180";
};
}),
(18,67,o),
(105,-16,o),
(244,-16,cs,{
"Letterink-NibData" = {
AngleInDegrees = "90";
};
})
);
},
{
closed = 1;
nodes = (
(158,58,o),
(108,104,o),
(117,178,cs),
(125,243,o),
(175,303,o),
(259,353,c,{
"Letterink-NibData" = {
AngleInDegrees = "104.03624";
};
}),
(194,345,l,{
"Letterink-NibData" = {
AngleInDegrees = "104.03624";
};
}),
(362,311,o),
(421,269,o),
(411,188,cs,{
"Letterink-NibData" = {
AngleInDegrees = "180";
};
}),
(401,109,o),
(338,58,o),
(246,58,cs,{
"Letterink-NibData" = {
AngleInDegrees = "270";
};
})
);
},
{
closed = 1;
nodes = (
(367,374,l,{
"Letterink-NibData" = {
AngleInDegrees = "284.03624";
};
}),
(253,408,ls,{
"Letterink-NibData" = {
AngleInDegrees = "287.59242";
};
}),
(204,423,o),
(186,447,o),
(190,483,cs),
(196,540,o),
(251,584,o),
(317,584,cs,{
"Letterink-NibData" = {
AngleInDegrees = "90";
};
}),
(378,584,o),
(417,546,o),
(411,492,cs,{
"Letterink-NibData" = {
AngleInDegrees = "180";
};
}),
(406,451,o),
(376,415,o),
(300,359,c,{
"Letterink-NibData" = {
AngleInDegrees = "284.03624";
};
})
);
}
);
width = 543;
},
{
layerId = "49C16FD3-6177-408B-A733-AEB3898BB77C";
shapes = (
{
closed = 1;
nodes = (
(364,-15,o),
(463,62,o),
(476,172,cs),
(486,260,o),
(439,325,o),
(335,359,c,{
"Letterink-NibData" = {
AngleInDegrees = 63.43495;
};
}),
(336,351,l,{
"Letterink-NibData" = {
AngleInDegrees = 63.43495;
};
}),
(406,387,o),
(469,445,o),
(477,509,cs),
(487,592,o),
(416,656,o),
(312,656,cs,{
"Letterink-NibData" = {
AngleInDegrees = 270;
};
}),
(209,656,o),
(129,593,o),
(118,502,cs,{
"Letterink-NibData" = {
AngleInDegrees = 180;
};
}),
(110,438,o),
(140,393,o),
(206,364,c,{
"Letterink-NibData" = {
AngleInDegrees = 235.95406;
};
}),
(215,378,l,{
"Letterink-NibData" = {
AngleInDegrees = 235.95406;
};
}),
(90,310,o),
(46,248,o),
(37,174,cs,{
"Letterink-NibData" = {
AngleInDegrees = 180;
};
}),
(23,59,o),
(98,-15,o),
(230,-15,cs,{
"Letterink-NibData" = {
AngleInDegrees = 90;
};
})
);
},
{
closed = 1;
nodes = (
(127,19,o),
(66,80,o),
(76,162,cs),
(86,243,o),
(163,324,o),
(251,362,c,{
"Letterink-NibData" = {
AngleInDegrees = 103.24052;
};
}),
(221,364,l,{
"Letterink-NibData" = {
AngleInDegrees = 103.24052;
};
}),
(409,305,o),
(446,262,o),
(437,184,cs,{
"Letterink-NibData" = {
AngleInDegrees = 180;
};
}),
(425,82,o),
(344,19,o),
(236,19,cs,{
"Letterink-NibData" = {
AngleInDegrees = 270;
};
})
);
},
{
closed = 1;
nodes = (
(328,362,l,{
"Letterink-NibData" = {
AngleInDegrees = 282.52881;
};
}),
(237,391,ls,{
"Letterink-NibData" = {
AngleInDegrees = 286.79837;
};
}),
(186,407,o),
(149,447,o),
(156,502,cs),
(165,570,o),
(233,622,o),
(313,622,cs,{
"Letterink-NibData" = {
AngleInDegrees = "90";
};
}),
(391,622,o),
(447,571,o),
(440,512,cs,{
"Letterink-NibData" = {
AngleInDegrees = "180";
};
}),
(433,450,o),
(382,408,o),
(300,361,c,{
"Letterink-NibData" = {
AngleInDegrees = 282.52881;
};
})
);
}
);
width = 531;
},
{
layerId = m004;
shapes = (
{
closed = 1;
nodes = (
(390,-27,o),
(505,58,o),
(517,165,cs),
(524,227,o),
(506,322,o),
(406,363,c,{
"Letterink-NibData" = {
AngleInDegrees = "52.88314";
};
}),
(363,317,l,{
"Letterink-NibData" = {
AngleInDegrees = "52.88314";
};
}),
(460,350,o),
(510,395,o),
(522,463,cs),
(542,576,o),
(454,654,o),
(321,654,cs,{
"Letterink-NibData" = {
AngleInDegrees = "270";
};
}),
(193,654,o),
(104,582,o),
(93,486,cs,{
"Letterink-NibData" = {
AngleInDegrees = "180";
};
}),
(84,411,o),
(121,359,o),
(167,339,c,{
"Letterink-NibData" = {
AngleInDegrees = "232.33438";
};
}),
(202,376,l,{
"Letterink-NibData" = {
AngleInDegrees = "232.33438";
};
}),
(95,335,o),
(31,272,o),
(21,188,cs,{
"Letterink-NibData" = {
AngleInDegrees = "180";
};
}),
(6,66,o),
(104,-27,o),
(252,-27,cs,{
"Letterink-NibData" = {
AngleInDegrees = "90";
};
})
);
},
{
closed = 1;
nodes = (
(217,117,o),
(183,140,o),
(188,181,cs),
(193,224,o),
(228,278,o),
(320,330,c,{
"Letterink-NibData" = {
AngleInDegrees = "104.03624";
};
}),
(202,311,l,{
"Letterink-NibData" = {
AngleInDegrees = "104.03624";
};
}),
(301,288,o),
(358,241,o),
(351,191,cs,{
"Letterink-NibData" = {
AngleInDegrees = "180";
};
}),
(345,148,o),
(306,117,o),
(258,117,cs,{
"Letterink-NibData" = {
AngleInDegrees = "270";
};
})
);
},
{
closed = 1;
nodes = (
(390,378,l,{
"Letterink-NibData" = {
AngleInDegrees = "284.03624";
};
}),
(307,409,ls,{
"Letterink-NibData" = {
AngleInDegrees = "287.59242";
};
}),
(276,421,o),
(252,439,o),
(255,461,cs),
(259,490,o),
(285,510,o),
(316,510,cs,{
"Letterink-NibData" = {
AngleInDegrees = "90";
};
}),
(344,510,o),
(361,495,o),
(358,473,cs,{
"Letterink-NibData" = {
AngleInDegrees = "180";
};
}),
(354,446,o),
(335,416,o),
(266,367,c,{
"Letterink-NibData" = {
AngleInDegrees = "284.03624";
};
})
);
}
);
width = 558;
}
);
unicode = 56;
userData = {
position = 425;
width = 62;
};
}
{
glyphname = greater;
layers = (
{
layerId = "0CAF3BED-C4AC-4024-B3E1-4C69D1EF7EC0";
shapes = (
{
closed = 1;
nodes = (
(484,256,l),
(495,353,l,{
"Letterink-NibData" = {
AngleInDegrees = 293.69614;
};
}),
(76,550,l,{
"Letterink-NibData" = {
AngleInDegrees = 180;
};
}),
(65,467,l,{
"Letterink-NibData" = {
AngleInDegrees = 112.80454;
};
}),
(422,307,l,{
"Letterink-NibData" = {
AngleInDegrees = 245.73617;
};
}),
(26,143,l,{
"Letterink-NibData" = {
AngleInDegrees = 180;
};
}),
(15,50,l,{
"Letterink-NibData" = {
AngleInDegrees = 65.37643;
};
})
);
}
);
width = 520;
},
{
layerId = "49C16FD3-6177-408B-A733-AEB3898BB77C";
shapes = (
{
closed = 1;
nodes = (
(461,277,l),
(468,329,l,{
"Letterink-NibData" = {
AngleInDegrees = 293.66473;
};
}),
(62,521,l,{
"Letterink-NibData" = {
AngleInDegrees = 180;
};
}),
(57,484,l,{
"Letterink-NibData" = {
AngleInDegrees = 112.85876;
};
}),
(442,303,l,{
"Letterink-NibData" = {
AngleInDegrees = 245.72556;
};
}),
(12,116,l,{
"Letterink-NibData" = {
AngleInDegrees = 180;
};
}),
(7,73,l,{
"Letterink-NibData" = {
AngleInDegrees = 65.35323;
};
})
);
}
);
width = 480;
},
{
layerId = m004;
shapes = (
{
closed = 1;
nodes = (
(525,240,l),
(543,392,l,{
"Letterink-NibData" = {
AngleInDegrees = 293.69614;
};
}),
(65,606,l,{
"Letterink-NibData" = {
AngleInDegrees = 180;
};
}),
(44,429,l,{
"Letterink-NibData" = {
AngleInDegrees = 112.80454;
};
}),
(322,316,l,{
"Letterink-NibData" = {
AngleInDegrees = 245.73617;
};
}),
(15,197,l,{
"Letterink-NibData" = {
AngleInDegrees = 180;
};
}),
(-6,16,l,{
"Letterink-NibData" = {
AngleInDegrees = 65.37643;
};
})
);
}
);
width = 546;
}
);
unicode = 62;
userData = {
position = 49;
width = 298;
};
}
{
glyphname = question;
kernLeft = quest;
kernRight = P;
layers = (
{
layerId = "0CAF3BED-C4AC-4024-B3E1-4C69D1EF7EC0";
shapes = (
{
closed = 1;
nodes = (
(212,136,l),
(219,197,ls),
(228,271,o),
(254,296,o),
(320,325,cs),
(408,364,o),
(493,429,o),
(506,541,cs),
(521,663,o),
(432,752,o),
(298,752,cs),
(163,752,o),
(64,676,o),
(52,578,cs),
(43,503,o),
(103,452,o),
(178,452,c),
(187,521,l),
(155,521,o),
(130,543,o),
(134,578,cs),
(141,632,o),
(197,678,o),
(289,678,cs),
(377,678,o),
(431,621,o),
(421,541,cs),
(412,467,o),
(362,421,o),
(292,391,cs),
(201,349,o),
(156,295,o),
(144,197,cs),
(137,136,l)
);
},
{
pos = (72,0);
ref = period;
}
);
width = 487;
},
{
layerId = "49C16FD3-6177-408B-A733-AEB3898BB77C";
shapes = (
{
closed = 1;
nodes = (
(187,136,l),
(195,205,ls),
(204,279,o),
(237,316,o),
(303,346,cs),
(392,385,o),
(471,444,o),
(484,551,cs),
(497,657,o),
(416,745,o),
(296,745,cs),
(162,745,o),
(71,676,o),
(60,590,cs),
(52,518,o),
(108,473,o),
(176,473,c),
(180,507,l),
(130,507,o),
(92,540,o),
(98,590,cs),
(106,654,o),
(178,709,o),
(292,709,cs),
(391,709,o),
(454,637,o),
(444,551,cs),
(433,462,o),
(371,415,o),
(291,378,cs),
(210,342,o),
(172,293,o),
(161,205,cs),
(153,136,l)
);
},
{
pos = (74,0);
ref = period;
}
);
width = 470;
},
{
layerId = m004;
shapes = (
{
closed = 1;
nodes = (
(285,148,l),
(292,205,ls),
(297,245,o),
(313,264,o),
(365,288,cs),
(473,336,o),
(556,425,o),
(569,529,cs),
(585,656,o),
(491,764,o),
(326,764,cs),
(181,764,o),
(58,679,o),
(45,567,cs),
(33,474,o),
(114,407,o),
(215,407,c),
(230,532,l),
(217,532,o),
(207,544,o),
(210,567,cs),
(213,598,o),
(248,620,o),
(309,620,cs),
(374,620,o),
(406,583,o),
(399,529,cs),
(393,478,o),
(353,432,o),
(311,412,cs),
(195,361,o),
(147,295,o),
(134,205,cs),
(126,148,l)
);
},
{
pos = (70,-34);
ref = period;
}
);
width = 545;
}
);
unicode = 63;
userData = {
position = 359;
width = 53;
};
}
{
glyphname = at;
kernLeft = o;
kernRight = o;
layers = (
{
layerId = "0CAF3BED-C4AC-4024-B3E1-4C69D1EF7EC0";
shapes = (
{
closed = 1;
nodes = (
(468,-68,o),
(557,-45,o),
(627,-10,c,{
"Letterink-NibData" = {
AngleInDegrees = 341.81096;
};
}),
(604,60,l,{
"Letterink-NibData" = {
AngleInDegrees = 233.1301;
};
}),
(551,28,o),
(465,6,o),
(383,6,cs,{
"Letterink-NibData" = {
AngleInDegrees = 270;
};
}),
(206,6,o),
(109,108,o),
(129,275,cs),
(150,447,o),
(280,565,o),
(447,565,cs,{
"Letterink-NibData" = {
AngleInDegrees = 90;
};
}),
(601,565,o),
(696,463,o),
(679,313,cs,{
"Letterink-NibData" = {
AngleInDegrees = 180;
};
}),
(669,227,o),
(625,170,o),
(575,170,cs,{
"Letterink-NibData" = {
AngleInDegrees = 270;
};
}),
(547,170,o),
(531,189,o),
(529,228,c),
(556,461,l,{
"Letterink-NibData" = {
AngleInDegrees = 270;
};
}),
(525,471,o),
(463,482,o),
(428,482,cs,{
"Letterink-NibData" = {
AngleInDegrees = 270;
};
}),
(315,482,o),
(240,399,o),
(227,291,cs,{
"Letterink-NibData" = {
AngleInDegrees = 180;
};
}),
(215,189,o),
(281,113,o),
(358,113,cs,{
"Letterink-NibData" = {
AngleInDegrees = 90;
};
}),
(409,113,o),
(462,139,o),
(477,176,c,{
"Letterink-NibData" = {
AngleInDegrees = 164.29136;
};
}),
(479,136,o),
(527,98,o),
(587,98,cs,{
"Letterink-NibData" = {
AngleInDegrees = 90;
};
}),
(674,98,o),
(745,183,o),
(760,305,cs),
(784,499,o),
(652,641,o),
(446,641,cs,{
"Letterink-NibData" = {
AngleInDegrees = 270;
};
}),
(238,641,o),
(74,495,o),
(48,285,cs,{
"Letterink-NibData" = {
AngleInDegrees = 180;
};
}),
(22,72,o),
(154,-68,o),
(377,-68,cs,{
"Letterink-NibData" = {
AngleInDegrees = 90;
};
})
);
},
{
closed = 1;
nodes = (
(323,190,o),
(298,233,o),
(305,291,cs),
(313,360,o),
(360,407,o),
(422,407,cs,{
"Letterink-NibData" = {
AngleInDegrees = 90;
};
}),
(438,407,o),
(464,404,o),
(476,400,c,{
"Letterink-NibData" = {
AngleInDegrees = 180;
};
}),
(457,258,l,{
"Letterink-NibData" = {
AngleInDegrees = 206.56505;
};
}),
(448,216,o),
(405,188,o),
(370,189,cs,{
"Letterink-NibData" = {
AngleInDegrees = 270;
};
})
);
}
);
width = 793;
},
{
layerId = "49C16FD3-6177-408B-A733-AEB3898BB77C";
shapes = (
{
closed = 1;
nodes = (
(462,-69,o),
(529,-55,o),
(603,-22,c,{
"Letterink-NibData" = {
AngleInDegrees = 343.61046;
};
}),
(593,7,l,{
"Letterink-NibData" = {
AngleInDegrees = 241.99082;
};
}),
(544,-19,o),
(459,-37,o),
(383,-37,cs,{
"Letterink-NibData" = {
AngleInDegrees = 270;
};
}),
(187,-37,o),
(68,88,o),
(91,276,cs),
(114,462,o),
(261,596,o),
(449,596,cs,{
"Letterink-NibData" = {
AngleInDegrees = 90;
};
}),
(625,596,o),
(739,477,o),
(717,307,cs,{
"Letterink-NibData" = {
AngleInDegrees = 180;
};
}),
(704,205,o),
(650,138,o),
(587,138,cs,{
"Letterink-NibData" = {
AngleInDegrees = 270;
};
}),
(540,138,o),
(510,176,o),
(516,216,c),
(544,450,l,{
"Letterink-NibData" = {
AngleInDegrees = 270;
};
}),
(512,463,o),
(466,471,o),
(431,471,cs,{
"Letterink-NibData" = {
AngleInDegrees = 270;
};
}),
(326,471,o),
(243,392,o),
(231,289,cs,{
"Letterink-NibData" = {
AngleInDegrees = 180;
};
}),
(220,194,o),
(272,123,o),
(352,123,cs,{
"Letterink-NibData" = {
AngleInDegrees = 90;
};
}),
(406,123,o),
(463,155,o),
(489,198,c,{
"Letterink-NibData" = {
AngleInDegrees = 168.17851;
};
}),
(481,148,o),
(520,106,o),
(585,106,cs,{
"Letterink-NibData" = {
AngleInDegrees = 90;
};
}),
(670,106,o),
(734,178,o),
(749,299,cs),
(773,493,o),
(649,630,o),
(448,630,cs,{
"Letterink-NibData" = {
AngleInDegrees = 270;
};
}),
(241,630,o),
(79,483,o),
(54,281,cs,{
"Letterink-NibData" = {
AngleInDegrees = 180;
};
}),
(28,73,o),
(162,-69,o),
(391,-69,cs,{
"Letterink-NibData" = {
AngleInDegrees = 90;
};
})
);
},
{
closed = 1;
nodes = (
(294,158,o),
(262,211,o),
(271,285,cs),
(282,373,o),
(345,436,o),
(433,436,cs,{
"Letterink-NibData" = {
AngleInDegrees = 90;
};
}),
(451,436,o),
(478,434,o),
(505,429,c,{
"Letterink-NibData" = {
AngleInDegrees = 180;
};
}),
(479,232,l,{
"Letterink-NibData" = {
AngleInDegrees = 206.56505;
};
}),
(450,185,o),
(406,158,o),
(359,158,cs,{
"Letterink-NibData" = {
AngleInDegrees = 270;
};
})
);
}
);
width = 790;
},
{
layerId = m004;
shapes = (
{
closed = 1;
nodes = (
(478,-84,o),
(601,-55,o),
(677,-9,c,{
"Letterink-NibData" = {
AngleInDegrees = "341.81096";
};
}),
(638,107,l,{
"Letterink-NibData" = {
AngleInDegrees = "233.1301";
};
}),
(573,69,o),
(488,42,o),
(401,42,cs,{
"Letterink-NibData" = {
AngleInDegrees = "270";
};
}),
(251,42,o),
(159,131,o),
(176,264,cs),
(196,421,o),
(304,523,o),
(455,523,cs,{
"Letterink-NibData" = {
AngleInDegrees = "90";
};
}),
(581,523,o),
(656,442,o),
(640,319,cs,{
"Letterink-NibData" = {
AngleInDegrees = "180";
};
}),
(632,257,o),
(610,217,o),
(581,217,cs,{
"Letterink-NibData" = {
AngleInDegrees = "270";
};
}),
(560,217,o),
(553,229,o),
(556,260,c),
(575,431,l,{
"Letterink-NibData" = {
AngleInDegrees = "270";
};
}),
(525,463,o),
(475,478,o),
(417,478,cs,{
"Letterink-NibData" = {
AngleInDegrees = "270";
};
}),
(317,478,o),
(234,402,o),
(221,297,cs,{
"Letterink-NibData" = {
AngleInDegrees = "180";
};
}),
(207,187,o),
(272,101,o),
(372,101,cs,{
"Letterink-NibData" = {
AngleInDegrees = "90";
};
}),
(427,101,o),
(465,131,o),
(489,173,c,{
"Letterink-NibData" = {
AngleInDegrees = "164.29136";
};
}),
(490,130,o),
(527,85,o),
(583,85,cs,{
"Letterink-NibData" = {
AngleInDegrees = "90";
};
}),
(694,85,o),
(770,180,o),
(787,311,cs),
(812,501,o),
(665,649,o),
(453,649,cs,{
"Letterink-NibData" = {
AngleInDegrees = "270";
};
}),
(233,649,o),
(63,499,o),
(36,283,cs,{
"Letterink-NibData" = {
AngleInDegrees = "180";
};
}),
(9,67,o),
(154,-84,o),
(387,-84,cs,{
"Letterink-NibData" = {
AngleInDegrees = "90";
};
})
);
},
{
closed = 1;
nodes = (
(366,236,o),
(358,257,o),
(362,289,cs),
(367,333,o),
(388,356,o),
(415,356,cs,{
"Letterink-NibData" = {
AngleInDegrees = "90";
};
}),
(427,356,o),
(433,353,o),
(440,344,c,{
"Letterink-NibData" = {
AngleInDegrees = "180";
};
}),
(429,275,l,{
"Letterink-NibData" = {
AngleInDegrees = "206.56505";
};
}),
(423,254,o),
(405,236,o),
(386,236,cs,{
"Letterink-NibData" = {
AngleInDegrees = "270";
};
})
);
}
);
width = 809;
}
);
unicode = 64;
userData = {
position = 582;
width = 53;
};
}
{
glyphname = A;
kernLeft = A;
kernRight = A;
layers = (
{
anchors = (
{
name = bottom;
pos = (373,0);
},
{
name = ogonek;
pos = (669,0);
},
{
name = top;
pos = (456,686);
}
);
hints = (
{
name = _corner.caps_diag;
options = 1;
origin = (0,4);
scale = (-1,1);
type = Corner;
}
);
layerId = "0CAF3BED-C4AC-4024-B3E1-4C69D1EF7EC0";
shapes = (
{
closed = 1;
nodes = (
(669,0,l,{
"Letterink-NibData" = {
AngleInDegrees = "336.96218";
};
}),
(473,690,l,{
"Letterink-NibData" = {
AngleInDegrees = "270";
};
}),
(439,690,l,{
"Letterink-NibData" = {
AngleInDegrees = "202.82503";
};
}),
(109,92,l,{
"Letterink-NibData" = {
AngleInDegrees = "202.38014";
};
}),
(176,52,l,{
"Letterink-NibData" = {
AngleInDegrees = "22.71999";
};
}),
(281,243,l,{
"Letterink-NibData" = {
AngleInDegrees = "236.57519";
};
}),
(230,205,l,{
"Letterink-NibData" = {
AngleInDegrees = "90";
};
}),
(566,205,l,{
"Letterink-NibData" = {
AngleInDegrees = "303.42481";
};
}),
(513,268,l,{
"Letterink-NibData" = {
AngleInDegrees = "157.34811";
};
}),
(588,0,l,{
"Letterink-NibData" = {
AngleInDegrees = "90";
};
})
);
},
{
closed = 1;
nodes = (
(435,539,l,{
"Letterink-NibData" = {
AngleInDegrees = "8.130100000000001";
};
}),
(443,564,l,{
"Letterink-NibData" = {
AngleInDegrees = "171.8699";
};
}),
(448,534,l,{
"Letterink-NibData" = {
AngleInDegrees = "159.79358";
};
}),
(515,246,l,{
"Letterink-NibData" = {
AngleInDegrees = "35.21759";
};
}),
(557,279,l,{
"Letterink-NibData" = {
AngleInDegrees = "270";
};
}),
(296,279,l,{
"Letterink-NibData" = {
AngleInDegrees = "145.92281";
};
}),
(301,275,l,{
"Letterink-NibData" = {
AngleInDegrees = "20.73026";
};
})
);
}
);
width = 711;
},
{
anchors = (
{
name = bottom;
pos = (367,0);
},
{
name = ogonek;
pos = (659,0);
},
{
name = top;
pos = (453,684);
}
);
hints = (
{
name = _corner.caps_diag;
options = 1;
origin = (0,4);
scale = (-1,1);
type = Corner;
}
);
layerId = "49C16FD3-6177-408B-A733-AEB3898BB77C";
shapes = (
{
closed = 1;
nodes = (
(659,0,l,{
"Letterink-NibData" = {
AngleInDegrees = "337.30364";
};
}),
(457,692,l,{
"Letterink-NibData" = {
AngleInDegrees = "270";
};
}),
(451,692,l,{
"Letterink-NibData" = {
AngleInDegrees = "202.68401";
};
}),
(113,63,l,{
"Letterink-NibData" = {
AngleInDegrees = "202.61986";
};
}),
(146,45,l,{
"Letterink-NibData" = {
AngleInDegrees = "22.1315";
};
}),
(256,251,l,{
"Letterink-NibData" = {
AngleInDegrees = "235.7843";
};
}),
(225,234,l,{
"Letterink-NibData" = {
AngleInDegrees = "90";
};
}),
(566,234,l,{
"Letterink-NibData" = {
AngleInDegrees = "304.2157";
};
}),
(545,251,l,{
"Letterink-NibData" = {
AngleInDegrees = "157.41269";
};
}),
(618,0,l,{
"Letterink-NibData" = {
AngleInDegrees = "337.30364";
};
})
);
},
{
closed = 1;
nodes = (
(432,584,l,{
"Letterink-NibData" = {
AngleInDegrees = "16.29405";
};
}),
(445,617,l,{
"Letterink-NibData" = {
AngleInDegrees = "163.21735";
};
}),
(450,584,l,{
"Letterink-NibData" = {
AngleInDegrees = "158.19859";
};
}),
(543,257,l,{
"Letterink-NibData" = {
AngleInDegrees = "32.90524";
};
}),
(553,270,l,{
"Letterink-NibData" = {
AngleInDegrees = "270";
};
}),
(244,270,l,{
"Letterink-NibData" = {
AngleInDegrees = "147.09476";
};
}),
(259,257,l,{
"Letterink-NibData" = {
AngleInDegrees = "22.09423";
};
})
);
}
);
width = 709;
},
{
.lastUpdate = 751987242.133;
anchors = (
{
name = bottom;
pos = (401,0);
},
{
name = ogonek;
pos = (731,0);
},
{
name = top;
pos = (486,684);
}
);
hints = (
{
name = _corner.caps_diag;
options = 1;
origin = (0,4);
scale = (-1,1);
type = Corner;
}
);
layerId = m004;
shapes = (
{
closed = 1;
nodes = (
(731,0,l,{
"Letterink-NibData" = {
AngleInDegrees = "337.32254";
};
}),
(544,689,l,{
"Letterink-NibData" = {
AngleInDegrees = "270";
};
}),
(431,689,l,{
"Letterink-NibData" = {
AngleInDegrees = "202.53914";
};
}),
(142,138,l,{
"Letterink-NibData" = {
AngleInDegrees = "90";
};
}),
(277,52,l,{
"Letterink-NibData" = {
AngleInDegrees = "22.65189";
};
}),
(374,239,l,{
"Letterink-NibData" = {
AngleInDegrees = "236.57519";
};
}),
(262,141,l,{
"Letterink-NibData" = {
AngleInDegrees = "90";
};
}),
(580,141,l,{
"Letterink-NibData" = {
AngleInDegrees = "303.42481";
};
}),
(486,276,l,{
"Letterink-NibData" = {
AngleInDegrees = "156.96496";
};
}),
(558,0,l,{
"Letterink-NibData" = {
AngleInDegrees = "90";
};
})
);
},
{
closed = 1;
nodes = (
(477,470,l,{
"Letterink-NibData" = {
AngleInDegrees = "19.98311";
};
}),
(459,490,l,{
"Letterink-NibData" = {
AngleInDegrees = "161.56505";
};
}),
(441,472,l,{
"Letterink-NibData" = {
AngleInDegrees = "158.35875";
};
}),
(488,266,l,{
"Letterink-NibData" = {
AngleInDegrees = "34.87533";
};
}),
(561,279,l,{
"Letterink-NibData" = {
AngleInDegrees = "270";
};
}),
(374,279,l,{
"Letterink-NibData" = {
AngleInDegrees = "145.92281";
};
}),
(388,275,l,{
"Letterink-NibData" = {
AngleInDegrees = "21.36191";
};
})
);
}
);
width = 768;
}
);
unicode = 65;
userData = {
position = 666;
width = 20;
};
}
{
glyphname = B;
kernLeft = E;
kernRight = B;
layers = (
{
anchors = (
{
name = bottom;
pos = (323,0);
},
{
name = center;
pos = (378,363);
},
{
name = top;
pos = (407,684);
}
);
hints = (
{
name = _corner.caps_left;
origin = (0,18);
type = Corner;
}
);
layerId = "0CAF3BED-C4AC-4024-B3E1-4C69D1EF7EC0";
shapes = (
{
closed = 1;
nodes = (
(495,-10,o),
(595,61,o),
(611,186,cs),
(621,262,o),
(593,316,o),
(544,346,cs,{
"Letterink-NibData" = {
AngleInDegrees = 300.96376;
};
}),
(523,359,o),
(498,370,o),
(489,369,c,{
"Letterink-NibData" = {
AngleInDegrees = 71.56505;
};
}),
(503,371,o),
(519,376,o),
(538,383,cs,{
"Letterink-NibData" = {
AngleInDegrees = 63.43495;
};
}),
(585,400,o),
(611,451,o),
(618,507,cs),
(631,615,o),
(558,684,o),
(430,684,cs,{
"Letterink-NibData" = {
AngleInDegrees = 270;
};
}),
(198,684,l,{
"Letterink-NibData" = {
AngleInDegrees = 180;
};
}),
(198,606,l,{
"Letterink-NibData" = {
AngleInDegrees = 90;
};
}),
(425,606,l,{
"Letterink-NibData" = {
AngleInDegrees = 93.91825;
};
}),
(507,601,o),
(543,570,o),
(536,512,cs,{
"Letterink-NibData" = {
AngleInDegrees = 180;
};
}),
(528,445,o),
(471,401,o),
(394,401,cs,{
"Letterink-NibData" = {
AngleInDegrees = 270;
};
}),
(211,401,l,{
"Letterink-NibData" = {
AngleInDegrees = 180;
};
}),
(202,325,l,{
"Letterink-NibData" = {
AngleInDegrees = 90;
};
}),
(396,324,ls,{
"Letterink-NibData" = {
AngleInDegrees = 90;
};
}),
(489,324,o),
(539,275,o),
(529,192,cs,{
"Letterink-NibData" = {
AngleInDegrees = 180;
};
}),
(518,104,o),
(452,68,o),
(325,64,cs,{
"Letterink-NibData" = {
AngleInDegrees = 270;
};
}),
(291,63,o),
(248,65,o),
(211,71,c),
(283,642,l,{
"Letterink-NibData" = {
AngleInDegrees = 270;
};
}),
(200,642,l,{
"Letterink-NibData" = {
AngleInDegrees = 180;
};
}),
(120,2,l,{
"Letterink-NibData" = {
AngleInDegrees = 96.54629;
};
}),
(184,-5,ls,{
"Letterink-NibData" = {
AngleInDegrees = 96.70984;
};
}),
(205,-7,o),
(271,-10,o),
(310,-10,cs,{
"Letterink-NibData" = {
AngleInDegrees = 90;
};
})
);
}
);
width = 655;
},
{
anchors = (
{
name = bottom;
pos = (288,0);
},
{
name = center;
pos = (324,363);
},
{
name = top;
pos = (361,684);
}
);
hints = (
{
name = _corner.caps_left;
origin = (0,18);
type = Corner;
}
);
layerId = "49C16FD3-6177-408B-A733-AEB3898BB77C";
shapes = (
{
closed = 1;
nodes = (
(445,-9,o),
(558,42,o),
(575,179,cs),
(584,253,o),
(553,315,o),
(487,348,cs,{
"Letterink-NibData" = {
AngleInDegrees = 305.53768;
};
}),
(477,353,o),
(456,361,o),
(431,366,c,{
"Letterink-NibData" = {
AngleInDegrees = 75.67728;
};
}),
(462,373,o),
(478,378,o),
(511,397,cs,{
"Letterink-NibData" = {
AngleInDegrees = 53.1301;
};
}),
(544,416,o),
(576,452,o),
(583,513,cs),
(597,632,o),
(519,684,o),
(415,684,cs,{
"Letterink-NibData" = {
AngleInDegrees = 270;
};
}),
(194,684,l,{
"Letterink-NibData" = {
AngleInDegrees = 180;
};
}),
(194,648,l,{
"Letterink-NibData" = {
AngleInDegrees = 90;
};
}),
(428,648,l,{
"Letterink-NibData" = {
AngleInDegrees = 93.81407;
};
}),
(518,641,o),
(554,599,o),
(544,521,cs,{
"Letterink-NibData" = {
AngleInDegrees = 180;
};
}),
(532,426,o),
(455,382,o),
(368,382,cs,{
"Letterink-NibData" = {
AngleInDegrees = 270;
};
}),
(183,382,l,{
"Letterink-NibData" = {
AngleInDegrees = 180;
};
}),
(178,346,l,{
"Letterink-NibData" = {
AngleInDegrees = 90;
};
}),
(372,346,ls,{
"Letterink-NibData" = {
AngleInDegrees = 90;
};
}),
(491,346,o),
(546,272,o),
(535,183,cs,{
"Letterink-NibData" = {
AngleInDegrees = 180;
};
}),
(522,79,o),
(432,26,o),
(316,26,cs,{
"Letterink-NibData" = {
AngleInDegrees = 270;
};
}),
(309,26,o),
(199,26,o),
(151,32,c),
(228,654,l,{
"Letterink-NibData" = {
AngleInDegrees = 270;
};
}),
(189,654,l,{
"Letterink-NibData" = {
AngleInDegrees = 90;
};
}),
(110,3,l,{
"Letterink-NibData" = {
AngleInDegrees = 98.65254;
};
}),
(153,-4,ls,{
"Letterink-NibData" = {
AngleInDegrees = 99.21103;
};
}),
(192,-10,o),
(296,-9,o),
(304,-9,cs,{
"Letterink-NibData" = {
AngleInDegrees = 90;
};
})
);
}
);
width = 626;
},
{
anchors = (
{
name = bottom;
pos = (384,-2);
},
{
name = center;
pos = (428,356);
},
{
name = top;
pos = (463,684);
}
);
hints = (
{
name = _corner.caps_left;
origin = (0,18);
type = Corner;
}
);
layerId = m004;
shapes = (
{
closed = 1;
nodes = (
(592,18,o),
(663,89,o),
(675,187,cs),
(683,250,o),
(654,316,o),
(610,340,cs),
(583,355,o),
(569,360,o),
(545,364,c,{
"Letterink-NibData" = {
AngleInDegrees = 77.90524;
};
}),
(580,368,o),
(588,370,o),
(610,381,cs,{
"Letterink-NibData" = {
AngleInDegrees = "63.90458";
};
}),
(666,409,o),
(677,455,o),
(683,500,cs),
(696,601,o),
(627,686,o),
(494,686,cs,{
"Letterink-NibData" = {
AngleInDegrees = "270";
};
}),
(227,686,l,{
"Letterink-NibData" = {
AngleInDegrees = "180";
};
}),
(226,537,l),
(467,538,ls,{
"Letterink-NibData" = {
AngleInDegrees = "90";
};
}),
(507,538,o),
(522,517,o),
(518,487,cs,{
"Letterink-NibData" = {
AngleInDegrees = "180";
};
}),
(514,455,o),
(492,424,o),
(458,424,cs,{
"Letterink-NibData" = {
AngleInDegrees = "269.3338";
};
}),
(346,424,l,{
"Letterink-NibData" = {
AngleInDegrees = "180.77422";
};
}),
(329,289,l,{
"Letterink-NibData" = {
AngleInDegrees = "90";
};
}),
(449,289,ls,{
"Letterink-NibData" = {
AngleInDegrees = "90";
};
}),
(497,289,o),
(529,262,o),
(524,219,cs,{
"Letterink-NibData" = {
AngleInDegrees = "180";
};
}),
(517,162,o),
(473,132,o),
(396,132,cs,{
"Letterink-NibData" = {
AngleInDegrees = "270";
};
}),
(376,132,o),
(362,132,o),
(338,136,c),
(392,551,l,{
"Letterink-NibData" = {
AngleInDegrees = "90";
};
}),
(227,552,l),
(160,6,l,{
"Letterink-NibData" = {
AngleInDegrees = 96.4416;
};
}),
(214,-1,ls,{
"Letterink-NibData" = {
AngleInDegrees = "96.65443";
};
}),
(305,-13,o),
(415,-20,o),
(485,-5,cs,{
"Letterink-NibData" = {
AngleInDegrees = "90";
};
})
);
}
);
width = 709;
}
);
metricLeft = E;
unicode = 66;
userData = {
position = 514;
width = 59;
};
}
{
glyphname = C;
kernLeft = O;
kernRight = C;
layers = (
{
anchors = (
{
name = bottom;
pos = (333,-5);
},
{
name = top;
pos = (445,689);
}
);
layerId = "0CAF3BED-C4AC-4024-B3E1-4C69D1EF7EC0";
shapes = (
{
closed = 1;
nodes = (
(467,-21,o),
(578,30,o),
(639,117,c),
(581,156,l),
(533,92,o),
(449,53,o),
(359,55,cs),
(206,56,o),
(112,176,o),
(133,341,cs),
(153,510,o),
(287,628,o),
(439,626,cs),
(531,625,o),
(596,584,o),
(589,527,cs),
(587,509,o),
(579,494,o),
(562,494,cs),
(553,494,o),
(547,498,o),
(541,503,c),
(493,449,l),
(508,430,o),
(530,422,o),
(554,422,cs),
(611,421,o),
(657,470,o),
(663,528,cs),
(675,626,o),
(575,698,o),
(445,700,cs),
(240,703,o),
(73,545,o),
(48,337,cs),
(23,136,o),
(149,-17,o),
(350,-19,cs)
);
}
);
width = 676;
},
{
anchors = (
{
name = bottom;
pos = (356,-4);
},
{
name = top;
pos = (445,688);
}
);
layerId = "49C16FD3-6177-408B-A733-AEB3898BB77C";
shapes = (
{
closed = 1;
nodes = (
(476,-10,o),
(588,47,o),
(636,122,c),
(608,140,l),
(565,76,o),
(465,25,o),
(359,25,cs),
(186,25,o),
(72,154,o),
(93,327,cs),
(118,531,o),
(275,662,o),
(442,662,cs),
(536,662,o),
(639,622,o),
(630,541,cs),
(626,516,o),
(608,483,o),
(576,483,cs),
(567,483,o),
(553,486,o),
(544,494,c),
(522,466,l),
(537,453,o),
(555,447,o),
(571,447,cs),
(617,447,o),
(659,485,o),
(666,542,cs),
(674,613,o),
(605,697,o),
(447,697,cs),
(246,697,o),
(81,554,o),
(53,327,cs),
(30,134,o),
(160,-10,o),
(356,-10,cs)
);
}
);
width = 681;
},
{
anchors = (
{
name = bottom;
pos = (371,-10);
},
{
name = top;
pos = (441,699);
}
);
layerId = m004;
shapes = (
{
closed = 1;
nodes = (
(493,-27,o),
(604,24,o),
(671,118,c),
(549,199,l),
(518,152,o),
(446,118,o),
(372,118,cs),
(257,118,o),
(191,212,o),
(206,329,cs),
(224,467,o),
(320,565,o),
(439,565,cs),
(516,565,o),
(565,536,o),
(559,500,cs),
(557,488,o),
(550,480,o),
(540,480,cs),
(539,480,o),
(536,480,o),
(534,482,c),
(443,383,l),
(459,358,o),
(497,338,o),
(545,338,cs),
(628,338,o),
(696,396,o),
(706,479,cs),
(722,608,o),
(603,709,o),
(436,709,cs),
(233,709,o),
(66,557,o),
(39,345,cs),
(12,134,o),
(153,-27,o),
(369,-27,cs)
);
}
);
width = 707;
}
);
metricLeft = O;
unicode = 67;
userData = {
position = 570;
width = 54;
};
}
{
glyphname = D;
kernLeft = E;
kernRight = O;
layers = (
{
anchors = (
{
name = bottom;
pos = (343,-10);
},
{
name = center;
pos = (244,367);
},
{
name = top;
pos = (443,684);
}
);
hints = (
{
name = _corner.caps_left;
origin = (0,6);
type = Corner;
}
);
layerId = "0CAF3BED-C4AC-4024-B3E1-4C69D1EF7EC0";
shapes = (
{
closed = 1;
nodes = (
(549,-10,o),
(708,134,o),
(734,338,cs),
(759,533,o),
(647,684,o),
(445,684,c,{
"Letterink-NibData" = {
AngleInDegrees = 270.21459;
};
}),
(201,685,l,{
"Letterink-NibData" = {
AngleInDegrees = 180;
};
}),
(199,608,l,{
"Letterink-NibData" = {
AngleInDegrees = 90;
};
}),
(439,608,ls,{
"Letterink-NibData" = {
AngleInDegrees = 92.97373;
};
}),
(597,608,o),
(670,503,o),
(650,343,cs,{
"Letterink-NibData" = {
AngleInDegrees = 180;
};
}),
(628,165,o),
(509,65,o),
(316,65,cs,{
"Letterink-NibData" = {
AngleInDegrees = 270;
};
}),
(287,65,o),
(248,67,o),
(207,70,c),
(280,651,l,{
"Letterink-NibData" = {
AngleInDegrees = 270;
};
}),
(197,651,l,{
"Letterink-NibData" = {
AngleInDegrees = 180;
};
}),
(117,1,l,{
"Letterink-NibData" = {
AngleInDegrees = 95.10217;
};
}),
(174,-4,ls,{
"Letterink-NibData" = {
AngleInDegrees = 95.12819;
};
}),
(240,-10,o),
(263,-10,o),
(346,-10,cs,{
"Letterink-NibData" = {
AngleInDegrees = 90;
};
})
);
}
);
width = 760;
},
{
anchors = (
{
name = bottom;
pos = (302,-9);
},
{
name = center;
pos = (193,358);
},
{
name = top;
pos = (404,685);
}
);
hints = (
{
name = _corner.caps_left;
origin = (0,6);
type = Corner;
}
);
layerId = "49C16FD3-6177-408B-A733-AEB3898BB77C";
shapes = (
{
closed = 1;
nodes = (
(542,-9,o),
(692,130,o),
(718,340,cs),
(743,540,o),
(635,683,o),
(430,684,cs,{
"Letterink-NibData" = {
AngleInDegrees = 270.22037;
};
}),
(194,685,l,{
"Letterink-NibData" = {
AngleInDegrees = 180;
};
}),
(194,648,l,{
"Letterink-NibData" = {
AngleInDegrees = 90;
};
}),
(423,648,ls,{
"Letterink-NibData" = {
AngleInDegrees = 93.25195;
};
}),
(609,648,o),
(701,526,o),
(678,341,cs,{
"Letterink-NibData" = {
AngleInDegrees = 180;
};
}),
(653,142,o),
(524,27,o),
(318,27,cs,{
"Letterink-NibData" = {
AngleInDegrees = 270;
};
}),
(254,27,o),
(169,30,o),
(152,32,c),
(229,649,l,{
"Letterink-NibData" = {
AngleInDegrees = 270;
};
}),
(190,649,l,{
"Letterink-NibData" = {
AngleInDegrees = 180;
};
}),
(110,0,l,{
"Letterink-NibData" = {
AngleInDegrees = 94.18492;
};
}),
(150,-3,ls,{
"Letterink-NibData" = {
AngleInDegrees = 94.20536;
};
}),
(216,-8,o),
(260,-9,o),
(340,-9,cs,{
"Letterink-NibData" = {
AngleInDegrees = 90;
};
})
);
}
);
width = 751;
},
{
anchors = (
{
name = bottom;
pos = (390,-10);
},
{
name = center;
pos = (293,353);
},
{
name = top;
pos = (509,684);
}
);
hints = (
{
name = _corner.caps_left;
origin = (0,6);
type = Corner;
}
);
layerId = m004;
shapes = (
{
closed = 1;
nodes = (
(603,-15,o),
(774,131,o),
(800,338,cs),
(824,527,o),
(703,683,o),
(499,684,cs,{
"Letterink-NibData" = {
AngleInDegrees = "270.21459";
};
}),
(223,685,l,{
"Letterink-NibData" = {
AngleInDegrees = "180";
};
}),
(226,537,l,{
"Letterink-NibData" = {
AngleInDegrees = "90";
};
}),
(487,536,ls,{
"Letterink-NibData" = {
AngleInDegrees = "92.97373";
};
}),
(596,536,o),
(646,465,o),
(632,351,cs,{
"Letterink-NibData" = {
AngleInDegrees = "180";
};
}),
(616,221,o),
(532,141,o),
(411,141,cs,{
"Letterink-NibData" = {
AngleInDegrees = "270";
};
}),
(383,141,o),
(368,141,o),
(345,145,c),
(410,655,l,{
"Letterink-NibData" = {
AngleInDegrees = "270";
};
}),
(242,655,l,{
"Letterink-NibData" = {
AngleInDegrees = "180";
};
}),
(163,5,l,{
"Letterink-NibData" = {
AngleInDegrees = "95.10217";
};
}),
(235,-3,ls,{
"Letterink-NibData" = {
AngleInDegrees = "95.12819";
};
}),
(274,-7,o),
(307,-8,o),
(390,-10,cs,{
"Letterink-NibData" = {
AngleInDegrees = "90";
};
})
);
}
);
width = 816;
}
);
metricLeft = E;
metricRight = O;
unicode = 68;
userData = {
position = 674;
width = 60;
};
}
{
glyphname = E;
kernLeft = E;
kernRight = E;
layers = (
{
anchors = (
{
name = bottom;
pos = (381,2);
},
{
name = ogonek;
pos = (592,-1);
},
{
name = top;
pos = (426,684);
},
{
name = topleft;
pos = (135,684);
}
);
hints = (
{
name = _corner.caps_left;
origin = (0,10);
type = Corner;
}
);
layerId = "0CAF3BED-C4AC-4024-B3E1-4C69D1EF7EC0";
shapes = (
{
closed = 1;
nodes = (
(592,-1,l),
(601,75,l,{
"Letterink-NibData" = {
AngleInDegrees = "270";
};
}),
(215,75,l),
(246,323,l,{
"Letterink-NibData" = {
AngleInDegrees = "90";
};
}),
(516,323,l),
(525,399,l,{
"Letterink-NibData" = {
AngleInDegrees = "270";
};
}),
(255,399,l),
(281,608,l,{
"Letterink-NibData" = {
AngleInDegrees = "90";
};
}),
(648,608,l),
(657,684,l,{
"Letterink-NibData" = {
AngleInDegrees = "270";
};
}),
(197,684,l,{
"Letterink-NibData" = {
AngleInDegrees = "180";
};
}),
(198,609,l),
(123,-1,l,{
"Letterink-NibData" = {
AngleInDegrees = "90";
};
})
);
}
);
width = 646;
},
{
anchors = (
{
name = bottom;
pos = (318,0);
},
{
name = ogonek;
pos = (537,1);
},
{
name = top;
pos = (409,684);
},
{
name = topleft;
pos = (95,684);
}
);
hints = (
{
name = _corner.caps_left;
origin = (0,10);
type = Corner;
}
);
layerId = "49C16FD3-6177-408B-A733-AEB3898BB77C";
shapes = (
{
closed = 1;
nodes = (
(538,0,l),
(542,36,l,{
"Letterink-NibData" = {
AngleInDegrees = 270;
};
}),
(156,36,l),
(194,346,l,{
"Letterink-NibData" = {
AngleInDegrees = 90;
};
}),
(457,346,l),
(462,382,l,{
"Letterink-NibData" = {
AngleInDegrees = 270;
};
}),
(199,382,l),
(232,648,l,{
"Letterink-NibData" = {
AngleInDegrees = 90;
};
}),
(610,648,l),
(614,684,l,{
"Letterink-NibData" = {
AngleInDegrees = 269.86613;
};
}),
(194,684,l,{
"Letterink-NibData" = {
AngleInDegrees = 180;
};
}),
(194,649,l),
(113,0,l,{
"Letterink-NibData" = {
AngleInDegrees = 90;
};
})
);
}
);
width = 593;
},
{
.lastUpdate = 751987242.14;
anchors = (
{
name = bottom;
pos = (419,0);
},
{
name = ogonek;
pos = (622,0);
},
{
name = top;
pos = (466,684);
},
{
name = topleft;
pos = (244,684);
}
);
hints = (
{
name = _corner.caps_left;
origin = (0,10);
type = Corner;
}
);
layerId = m004;
shapes = (
{
closed = 1;
nodes = (
(622,0,l),
(640,148,l,{
"Letterink-NibData" = {
AngleInDegrees = "270";
};
}),
(344,148,l),
(360,273,l,{
"Letterink-NibData" = {
AngleInDegrees = "90";
};
}),
(560,273,l),
(578,421,l,{
"Letterink-NibData" = {
AngleInDegrees = "270";
};
}),
(378,421,l),
(392,536,l,{
"Letterink-NibData" = {
AngleInDegrees = "90";
};
}),
(673,536,l),
(691,684,l,{
"Letterink-NibData" = {
AngleInDegrees = "270";
};
}),
(233,684,l,{
"Letterink-NibData" = {
AngleInDegrees = "180";
};
}),
(226,536,l),
(160,0,l,{
"Letterink-NibData" = {
AngleInDegrees = "90";
};
})
);
}
);
width = 682;
}
);
unicode = 69;
userData = {
position = 130;
width = 61;
};
}
{
glyphname = F;
kernLeft = E;
kernRight = F;
layers = (
{
anchors = (
{
name = bottom;
pos = (337,0);
},
{
name = top;
pos = (422,684);
}
);
hints = (
{
name = _corner.caps_left;
origin = (0,8);
type = Corner;
}
);
layerId = "0CAF3BED-C4AC-4024-B3E1-4C69D1EF7EC0";
shapes = (
{
closed = 1;
nodes = (
(206,-1,l),
(246,324,l,{
"Letterink-NibData" = {
AngleInDegrees = 90;
};
}),
(496,324,l),
(505,400,l,{
"Letterink-NibData" = {
AngleInDegrees = 270;
};
}),
(255,400,l),
(281,609,l,{
"Letterink-NibData" = {
AngleInDegrees = 90;
};
}),
(617,609,l),
(626,685,l,{
"Letterink-NibData" = {
AngleInDegrees = 270;
};
}),
(197,685,l,{
"Letterink-NibData" = {
AngleInDegrees = 179.91648;
};
}),
(198,609,l),
(124,-1,l,{
"Letterink-NibData" = {
AngleInDegrees = 90;
};
})
);
}
);
width = 591;
},
{
anchors = (
{
name = bottom;
pos = (326,-18);
},
{
name = top;
pos = (414,684);
}
);
hints = (
{
name = _corner.caps_left;
origin = (0,8);
type = Corner;
}
);
layerId = "49C16FD3-6177-408B-A733-AEB3898BB77C";
shapes = (
{
closed = 1;
nodes = (
(152,0,l),
(195,345,l,{
"Letterink-NibData" = {
AngleInDegrees = 90;
};
}),
(461,345,l),
(466,381,l,{
"Letterink-NibData" = {
AngleInDegrees = 270;
};
}),
(199,381,l),
(232,648,l,{
"Letterink-NibData" = {
AngleInDegrees = 90;
};
}),
(592,648,l),
(596,684,l,{
"Letterink-NibData" = {
AngleInDegrees = 270;
};
}),
(194,684,l,{
"Letterink-NibData" = {
AngleInDegrees = 180;
};
}),
(194,649,l),
(114,0,l,{
"Letterink-NibData" = {
AngleInDegrees = 90;
};
})
);
}
);
width = 562;
},
{
anchors = (
{
name = bottom;
pos = (403,-3);
},
{
name = top;
pos = (489,684);
}
);
hints = (
{
name = _corner.caps_left;
origin = (0,8);
type = Corner;
}
);
layerId = m004;
shapes = (
{
closed = 1;
nodes = (
(327,0,l),
(358,263,l,{
"Letterink-NibData" = {
AngleInDegrees = "90";
};
}),
(558,263,l),
(576,411,l,{
"Letterink-NibData" = {
AngleInDegrees = "270";
};
}),
(376,411,l),
(392,536,l,{
"Letterink-NibData" = {
AngleInDegrees = "90";
};
}),
(678,536,l),
(696,684,l,{
"Letterink-NibData" = {
AngleInDegrees = "270";
};
}),
(229,684,l,{
"Letterink-NibData" = {
AngleInDegrees = "180";
};
}),
(226,538,l),
(160,0,l,{
"Letterink-NibData" = {
AngleInDegrees = "90";
};
})
);
}
);
width = 666;
}
);
metricLeft = E;
metricRight = "=E*.8";
unicode = 70;
userData = {
position = 129;
width = 61;
};
}
{
glyphname = G;
kernLeft = O;
kernRight = O;
layers = (
{
anchors = (
{
name = bottom;
pos = (341,-9);
},
{
name = top;
pos = (427,689);
}
);
layerId = "0CAF3BED-C4AC-4024-B3E1-4C69D1EF7EC0";
shapes = (
{
closed = 1;
nodes = (
(557,-19,o),
(668,137,o),
(700,330,cs),
(702,342,l),
(386,342,l),
(377,272,l),
(656,272,l),
(612,305,l),
(594,187,o),
(512,55,o),
(363,55,cs),
(212,55,o),
(109,162,o),
(130,335,cs),
(150,502,o),
(284,627,o),
(437,627,cs),
(567,627,o),
(605,577,o),
(601,545,cs),
(599,529,o),
(586,508,o),
(567,508,cs),
(563,508,o),
(554,508,o),
(546,513,c),
(502,455,l),
(523,440,o),
(545,434,o),
(565,434,cs),
(617,434,o),
(670,475,o),
(678,537,cs),
(693,651,o),
(575,701,o),
(439,701,cs),
(249,701,o),
(72,540,o),
(48,343,cs),
(22,130,o),
(157,-19,o),
(361,-19,cs)
);
}
);
width = 727;
},
{
anchors = (
{
name = bottom;
pos = (350,0);
},
{
name = top;
pos = (432,688);
}
);
layerId = "49C16FD3-6177-408B-A733-AEB3898BB77C";
shapes = (
{
closed = 1;
nodes = (
(533,-11,o),
(666,120,o),
(695,310,cs),
(698,330,l),
(408,330,l),
(405,294,l),
(675,294,l),
(658,312,l),
(633,148,o),
(515,24,o),
(357,24,cs),
(172,24,o),
(72,152,o),
(95,338,cs),
(118,527,o),
(265,659,o),
(431,659,cs),
(574,659,o),
(636,587,o),
(630,540,cs),
(627,514,o),
(608,482,o),
(578,482,cs),
(568,485,o),
(556,488,o),
(548,491,c),
(523,464,l),
(541,450,o),
(561,446,o),
(577,446,cs),
(617,446,o),
(661,483,o),
(668,536,cs),
(679,618,o),
(587,694,o),
(432,694,cs),
(251,694,o),
(81,555,o),
(55,342,cs),
(29,133,o),
(152,-11,o),
(356,-11,cs)
);
}
);
width = 731;
},
{
anchors = (
{
name = bottom;
pos = (349,-10);
},
{
name = top;
pos = (436,703);
}
);
layerId = m004;
shapes = (
{
closed = 1;
nodes = (
(563,-25,o),
(698,111,o),
(717,338,cs),
(719,362,l),
(401,362,l),
(385,224,l),
(630,224,l),
(563,289,l),
(554,186,o),
(480,119,o),
(371,119,cs),
(254,119,o),
(190,199,o),
(205,325,cs),
(222,469,o),
(321,567,o),
(448,567,cs),
(506,567,o),
(563,546,o),
(561,521,cs),
(560,510,o),
(551,502,o),
(541,502,cs),
(537,502,o),
(534,503,o),
(530,507,c),
(455,422,l),
(475,400,o),
(506,385,o),
(545,385,cs),
(621,385,o),
(691,444,o),
(700,517,cs),
(714,627,o),
(604,711,o),
(448,711,cs),
(236,711,o),
(64,557,o),
(38,343,cs),
(12,130,o),
(144,-25,o),
(353,-25,cs)
);
}
);
width = 733;
}
);
metricLeft = O;
metricRight = "=O*.975";
note = "Bold: 98/95.5%";
unicode = 71;
userData = {
position = 593;
width = 57;
};
}
{
glyphname = H;
kernLeft = E;
layers = (
{
anchors = (
{
name = bottom;
pos = (373,0);
},
{
name = center;
pos = (434,500);
},
{
name = leftstem;
pos = (149,0);
},
{
name = top;
pos = (456,675);
},
{
name = topleft;
pos = (98,684);
}
);
hints = (
{
name = _corner.caps_vert;
options = 1;
origin = (0,9);
type = Corner;
}
);
layerId = "0CAF3BED-C4AC-4024-B3E1-4C69D1EF7EC0";
shapes = (
{
closed = 1;
nodes = (
(190,0,l),
(227,319,l,{
"Letterink-NibData" = {
AngleInDegrees = 90;
};
}),
(584,319,l,{
"Letterink-NibData" = {
AngleInDegrees = 180;
};
}),
(545,-1,l,{
"Letterink-NibData" = {
AngleInDegrees = 90;
};
}),
(628,-1,l),
(712,686,l,{
"Letterink-NibData" = {
AngleInDegrees = 270;
};
}),
(630,686,l,{
"Letterink-NibData" = {
AngleInDegrees = 180;
};
}),
(594,395,l,{
"Letterink-NibData" = {
AngleInDegrees = 270;
};
}),
(236,395,l),
(257,574,l,{
"Letterink-NibData" = {
AngleInDegrees = 269.30131;
};
}),
(174,573,l,{
"Letterink-NibData" = {
AngleInDegrees = 180;
};
}),
(108,0,l,{
"Letterink-NibData" = {
AngleInDegrees = 90;
};
})
);
}
);
width = 738;
},
{
anchors = (
{
name = bottom;
pos = (369,0);
},
{
name = center;
pos = (429,489);
},
{
name = leftstem;
pos = (137,0);
},
{
name = top;
pos = (453,685);
},
{
name = topleft;
pos = (126,684);
}
);
hints = (
{
name = _corner.caps_vert;
options = 1;
origin = (0,9);
type = Corner;
}
);
layerId = "49C16FD3-6177-408B-A733-AEB3898BB77C";
shapes = (
{
closed = 1;
nodes = (
(156,0,l),
(199,340,l,{
"Letterink-NibData" = {
AngleInDegrees = 90;
};
}),
(614,340,l,{
"Letterink-NibData" = {
AngleInDegrees = 180;
};
}),
(572,1,l,{
"Letterink-NibData" = {
AngleInDegrees = 90;
};
}),
(611,1,l),
(695,685,l,{
"Letterink-NibData" = {
AngleInDegrees = 270;
};
}),
(657,685,l,{
"Letterink-NibData" = {
AngleInDegrees = 180;
};
}),
(619,376,l,{
"Letterink-NibData" = {
AngleInDegrees = 270;
};
}),
(203,376,l),
(228,581,l,{
"Letterink-NibData" = {
AngleInDegrees = 270;
};
}),
(190,581,l,{
"Letterink-NibData" = {
AngleInDegrees = 180;
};
}),
(118,0,l,{
"Letterink-NibData" = {
AngleInDegrees = 90;
};
})
);
}
);
width = 726;
},
{
anchors = (
{
name = bottom;
pos = (399,0);
},
{
name = center;
pos = (453,500);
},
{
name = leftstem;
pos = (195,0);
},
{
name = top;
pos = (469,684);
},
{
name = topleft;
pos = (160,684);
}
);
hints = (
{
name = _corner.caps_vert;
options = 1;
origin = (0,9);
type = Corner;
}
);
layerId = m004;
shapes = (
{
closed = 1;
nodes = (
(279,0,l),
(312,270,l,{
"Letterink-NibData" = {
AngleInDegrees = "90";
};
}),
(547,270,l,{
"Letterink-NibData" = {
AngleInDegrees = "180";
};
}),
(514,0,l,{
"Letterink-NibData" = {
AngleInDegrees = "90";
};
}),
(679,0,l),
(763,684,l,{
"Letterink-NibData" = {
AngleInDegrees = "270";
};
}),
(598,684,l,{
"Letterink-NibData" = {
AngleInDegrees = "180";
};
}),
(566,422,l,{
"Letterink-NibData" = {
AngleInDegrees = "270";
};
}),
(330,422,l),
(340,500,l,{
"Letterink-NibData" = {
AngleInDegrees = "270";
};
}),
(174,500,l,{
"Letterink-NibData" = {
AngleInDegrees = "180";
};
}),
(114,0,l,{
"Letterink-NibData" = {
AngleInDegrees = "90";
};
})
);
}
);
width = 776;
}
);
unicode = 72;
userData = {
position = 554;
width = 61;
};
}
{
glyphname = I;
layers = (
{
anchors = (
{
name = bottom;
pos = (90,0);
},
{
name = center;
pos = (131,340);
},
{
name = ogonek;
pos = (131,-1);
},
{
name = top;
pos = (172,684);
},
{
name = topleft;
pos = (67,684);
}
);
layerId = "0CAF3BED-C4AC-4024-B3E1-4C69D1EF7EC0";
shapes = (
{
closed = 1;
nodes = (
(131,-1,l),
(215,684,l,{
"Letterink-NibData" = {
AngleInDegrees = 270;
};
}),
(132,684,l,{
"Letterink-NibData" = {
AngleInDegrees = 180;
};
}),
(48,-1,l,{
"Letterink-NibData" = {
AngleInDegrees = 90;
};
})
);
}
);
width = 241;
},
{
anchors = (
{
name = bottom;
pos = (70,0);
},
{
name = center;
pos = (112,343);
},
{
name = ogonek;
pos = (91,1);
},
{
name = top;
pos = (156,685);
},
{
name = topleft;
pos = (68,684);
}
);
layerId = "49C16FD3-6177-408B-A733-AEB3898BB77C";
shapes = (
{
closed = 1;
nodes = (
(91,1,l),
(175,684,l,{
"Letterink-NibData" = {
AngleInDegrees = 270;
};
}),
(137,684,l,{
"Letterink-NibData" = {
AngleInDegrees = 180;
};
}),
(53,1,l,{
"Letterink-NibData" = {
AngleInDegrees = 90;
};
})
);
}
);
width = 206;
},
{
anchors = (
{
name = bottom;
pos = (119,-1);
},
{
name = center;
pos = (161,339);
},
{
name = ogonek;
pos = (201,0);
},
{
name = top;
pos = (202,684);
},
{
name = topleft;
pos = (58,684);
}
);
layerId = m004;
shapes = (
{
closed = 1;
nodes = (
(201,0,l),
(285,684,l,{
"Letterink-NibData" = {
AngleInDegrees = 270;
};
}),
(119,684,l,{
"Letterink-NibData" = {
AngleInDegrees = 180;
};
}),
(35,0,l,{
"Letterink-NibData" = {
AngleInDegrees = 90;
};
})
);
}
);
width = 298;
}
);
metricLeft = "=|H";
metricRight = H;
unicode = 73;
userData = {
position = 54;
width = 61;
};
}
{
glyphname = J;
kernLeft = J;
kernRight = J;
layers = (
{
anchors = (
{
name = bottom;
pos = (217,0);
},
{
name = top;
pos = (301,684);
}
);
layerId = "0CAF3BED-C4AC-4024-B3E1-4C69D1EF7EC0";
shapes = (
{
closed = 1;
nodes = (
(326,-7,o),
(417,72,o),
(433,201,cs),
(493,689,l,{
"Letterink-NibData" = {
AngleInDegrees = 270;
};
}),
(421,691,l,{
"Letterink-NibData" = {
AngleInDegrees = 211.6075;
};
}),
(411,678,o),
(379,663,o),
(357,663,cs,{
"Letterink-NibData" = {
AngleInDegrees = 270;
};
}),
(317,663,o),
(288,698,o),
(236,698,cs,{
"Letterink-NibData" = {
AngleInDegrees = 270;
};
}),
(202,698,o),
(169,693,o),
(109,665,c,{
"Letterink-NibData" = {
AngleInDegrees = 153.09391;
};
}),
(139,596,l,{
"Letterink-NibData" = {
AngleInDegrees = 67.52057;
};
}),
(168,608,o),
(199,620,o),
(226,620,cs,{
"Letterink-NibData" = {
AngleInDegrees = 90;
};
}),
(272,620,o),
(305,587,o),
(350,587,cs,{
"Letterink-NibData" = {
AngleInDegrees = 90;
};
}),
(370,587,o),
(385,588,o),
(399,593,c,{
"Letterink-NibData" = {
AngleInDegrees = 180;
};
}),
(350,208,ls,{
"Letterink-NibData" = {
AngleInDegrees = 180;
};
}),
(339,123,o),
(282,67,o),
(202,67,cs,{
"Letterink-NibData" = {
AngleInDegrees = 270;
};
}),
(122,67,o),
(81,118,o),
(94,192,c,{
"Letterink-NibData" = {
AngleInDegrees = 274.39871;
};
}),
(16,196,l,{
"Letterink-NibData" = {
AngleInDegrees = 181.88819;
};
}),
(-3,73,o),
(67,-7,o),
(197,-7,cs,{
"Letterink-NibData" = {
AngleInDegrees = 90;
};
})
);
}
);
width = 510;
},
{
anchors = (
{
name = bottom;
pos = (258,0);
},
{
name = top;
pos = (274,684);
}
);
layerId = "49C16FD3-6177-408B-A733-AEB3898BB77C";
shapes = (
{
closed = 1;
nodes = (
(306,-6,o),
(393,71,o),
(408,193,cs),
(468,688,l,{
"Letterink-NibData" = {
AngleInDegrees = "270";
};
}),
(423,689,l,{
"Letterink-NibData" = {
AngleInDegrees = "209.35776";
};
}),
(411,672,o),
(382,660,o),
(359,660,cs,{
"Letterink-NibData" = {
AngleInDegrees = "270";
};
}),
(319,660,o),
(264,696,o),
(220,696,cs,{
"Letterink-NibData" = {
AngleInDegrees = "270";
};
}),
(196,696,o),
(171,696,o),
(122,672,c,{
"Letterink-NibData" = {
AngleInDegrees = "153.43495";
};
}),
(136,640,l,{
"Letterink-NibData" = {
AngleInDegrees = 70.82099;
};
}),
(155,650,o),
(184,661,o),
(215,661,cs,{
"Letterink-NibData" = {
AngleInDegrees = "90";
};
}),
(278,661,o),
(292,625,o),
(356,625,cs,{
"Letterink-NibData" = {
AngleInDegrees = "90";
};
}),
(383,625,o),
(407,631,o),
(426,649,c,{
"Letterink-NibData" = {
AngleInDegrees = "180";
};
}),
(370,198,ls,{
"Letterink-NibData" = {
AngleInDegrees = "180";
};
}),
(357,94,o),
(287,29,o),
(189,29,cs,{
"Letterink-NibData" = {
AngleInDegrees = "270";
};
}),
(88,29,o),
(44,87,o),
(51,167,c,{
"Letterink-NibData" = {
AngleInDegrees = "275.5722";
};
}),
(15,169,l,{
"Letterink-NibData" = {
AngleInDegrees = "176.71075";
};
}),
(9,63,o),
(71,-6,o),
(185,-6,cs,{
"Letterink-NibData" = {
AngleInDegrees = "90";
};
})
);
}
);
width = 491;
},
{
anchors = (
{
name = bottom;
pos = (280,0);
},
{
name = top;
pos = (339,684);
}
);
layerId = m004;
shapes = (
{
closed = 1;
nodes = (
(387,-22,o),
(490,66,o),
(508,213,cs),
(568,699,l,{
"Letterink-NibData" = {
AngleInDegrees = 270;
};
}),
(457,700,l,{
"Letterink-NibData" = {
AngleInDegrees = 211.6075;
};
}),
(439,685,o),
(412,674,o),
(386,674,cs,{
"Letterink-NibData" = {
AngleInDegrees = 270;
};
}),
(350,674,o),
(314,696,o),
(243,696,cs,{
"Letterink-NibData" = {
AngleInDegrees = 270;
};
}),
(191,696,o),
(158,688,o),
(107,655,c,{
"Letterink-NibData" = {
AngleInDegrees = 153.09391;
};
}),
(165,519,l,{
"Letterink-NibData" = {
AngleInDegrees = 67.52057;
};
}),
(191,532,o),
(222,541,o),
(252,541,cs,{
"Letterink-NibData" = {
AngleInDegrees = 90;
};
}),
(290,541,o),
(312,524,o),
(345,524,cs,{
"Letterink-NibData" = {
AngleInDegrees = 90;
};
}),
(363,524,o),
(378,526,o),
(382,530,c,{
"Letterink-NibData" = {
AngleInDegrees = 180;
};
}),
(342,224,ls,{
"Letterink-NibData" = {
AngleInDegrees = 180;
};
}),
(335,172,o),
(299,122,o),
(241,122,cs,{
"Letterink-NibData" = {
AngleInDegrees = 270;
};
}),
(184,122,o),
(157,159,o),
(166,233,c,{
"Letterink-NibData" = {
AngleInDegrees = 274.39871;
};
}),
(15,241,l,{
"Letterink-NibData" = {
AngleInDegrees = 181.88819;
};
}),
(-13,98,o),
(68,-22,o),
(236,-22,cs,{
"Letterink-NibData" = {
AngleInDegrees = 90;
};
})
);
}
);
width = 572;
}
);
metricRight = "=H*.9";
unicode = 74;
userData = {
position = 333;
width = 53;
};
}
{
glyphname = K;
kernLeft = E;
kernRight = K;
lastChange = "2024-10-30 08:29:43 +0000";
layers = (
{
.lastUpdate = 751969783.188;
anchors = (
{
name = bottom;
pos = (330,2);
},
{
name = top;
pos = (330,684);
}
);
hints = (
{
name = _corner.caps_vert;
origin = (1,1);
type = Corner;
}
);
layerId = "0CAF3BED-C4AC-4024-B3E1-4C69D1EF7EC0";
shapes = (
{
closed = 1;
nodes = (
(643,-20,o),
(665,1,o),
(679,19,c),
(626,65,l),
(621,58,o),
(613,54,o),
(602,54,cs),
(582,54,o),
(564,73,o),
(546,106,cs),
(493,208,o),
(498,370,o),
(278,381,c),
(275,319,l),
(426,296,o),
(413,183,o),
(475,66,cs),
(500,19,o),
(542,-20,o),
(598,-20,cs)
);
},
{
closed = 1;
nodes = (
(217,0,l),
(217,583,l,{
"Letterink-NibData" = {
AngleInDegrees = 270;
};
}),
(135,583,l,{
"Letterink-NibData" = {
AngleInDegrees = 180;
};
}),
(135,0,l,{
"Letterink-NibData" = {
AngleInDegrees = 90;
};
})
);
},
{
closed = 1;
nodes = (
(265,319,l),
(520,322,o),
(539,522,o),
(582,684,c),
(498,684,l),
(456,527,o),
(449,393,o),
(269,393,c),
(158,393,l),
(158,319,l)
);
}
);
width = 686;
},
{
.lastUpdate = 751969783.188;
anchors = (
{
name = bottom;
pos = (326,0);
},
{
name = top;
pos = (326,684);
}
);
hints = (
{
name = _corner.caps_vert;
origin = (1,1);
type = Corner;
}
);
layerId = "49C16FD3-6177-408B-A733-AEB3898BB77C";
shapes = (
{
closed = 1;
nodes = (
(629,-5,o),
(646,18,o),
(652,26,c),
(626,48,l),
(617,37,o),
(607,31,o),
(592,31,cs),
(565,31,o),
(550,53,o),
(525,97,cs),
(464,204,o),
(463,342,o),
(266,379,c),
(261,343,l),
(419,319,o),
(425,198,o),
(494,75,cs),
(509,48,o),
(538,-5,o),
(589,-5,cs)
);
},
{
closed = 1;
nodes = (
(183,2,l,{
"Letterink-NibData" = {
AngleInDegrees = 359.89895;
};
}),
(183,598,l,{
"Letterink-NibData" = {
AngleInDegrees = 270;
};
}),
(145,598,l,{
"Letterink-NibData" = {
AngleInDegrees = 180;
};
}),
(145,2,l,{
"Letterink-NibData" = {
AngleInDegrees = 90;
};
})
);
},
{
closed = 1;
nodes = (
(255,343,l),
(470,343,o),
(530,517,o),
(564,684,c),
(525,684,l),
(497,554,o),
(452,380,o),
(256,380,c),
(161,380,l),
(161,343,l)
);
}
);
width = 674;
},
{
.lastUpdate = 751987242.052;
anchors = (
{
name = bottom;
pos = (404,0);
},
{
name = top;
pos = (401,684);
}
);
hints = (
{
name = _corner.caps_vert;
origin = (1,1);
type = Corner;
}
);
layerId = m004;
shapes = (
{
closed = 1;
nodes = (
(679,-24,o),
(722,-2,o),
(755,42,c),
(660,126,l),
(657,122,o),
(653,119,o),
(644,119,cs),
(632,119,o),
(613,144,o),
(600,180,cs),
(580,235,o),
(549,371,o),
(371,384,c),
(343,287,l),
(420,273,o),
(431,175,o),
(462,93,cs),
(489,21,o),
(545,-24,o),
(625,-24,cs)
);
},
{
closed = 1;
nodes = (
(310,-4,l),
(308,528,l,{
"Letterink-NibData" = {
AngleInDegrees = 270;
};
}),
(143,528,l,{
"Letterink-NibData" = {
AngleInDegrees = 180;
};
}),
(143,-4,l,{
"Letterink-NibData" = {
AngleInDegrees = 90;
};
})
);
},
{
closed = 1;
nodes = (
(319,287,l),
(578,287,o),
(636,488,o),
(672,684,c),
(507,684,l),
(481,560,o),
(447,425,o),
(316,425,c),
(217,425,l),
(217,287,l)
);
}
);
width = 758;
}
);
metricLeft = H;
unicode = 75;
userData = {
position = 542;
width = 57;
};
}
{
glyphname = L;
kernRight = L;
layers = (
{
anchors = (
{
name = bottom;
pos = (270,6);
},
{
name = center;
pos = (138,362);
},
{
name = top;
pos = (174,684);
},
{
name = topright;
pos = (350,439);
}
);
layerId = "0CAF3BED-C4AC-4024-B3E1-4C69D1EF7EC0";
shapes = (
{
closed = 1;
nodes = (
(477,-1,l),
(486,75,l,{
"Letterink-NibData" = {
AngleInDegrees = 270;
};
}),
(140,75,l),
(215,684,l,{
"Letterink-NibData" = {
AngleInDegrees = 270;
};
}),
(132,684,l,{
"Letterink-NibData" = {
AngleInDegrees = 180;
};
}),
(48,-1,l,{
"Letterink-NibData" = {
AngleInDegrees = 90;
};
})
);
}
);
width = 521;
},
{
anchors = (
{
name = bottom;
pos = (248,0);
},
{
name = center;
pos = (127,379);
},
{
name = top;
pos = (156,683);
},
{
name = topright;
pos = (326,461);
}
);
layerId = "49C16FD3-6177-408B-A733-AEB3898BB77C";
shapes = (
{
closed = 1;
nodes = (
(469,0,l),
(473,36,l,{
"Letterink-NibData" = {
AngleInDegrees = 270;
};
}),
(96,36,l),
(176,684,l,{
"Letterink-NibData" = {
AngleInDegrees = 270;
};
}),
(138,684,l,{
"Letterink-NibData" = {
AngleInDegrees = 180;
};
}),
(53,0,l,{
"Letterink-NibData" = {
AngleInDegrees = 90;
};
})
);
}
);
width = 517;
},
{
anchors = (
{
name = bottom;
pos = (279,-5);
},
{
name = center;
pos = (165,370);
},
{
name = top;
pos = (202,684);
},
{
name = topright;
pos = (341,436);
}
);
layerId = m004;
shapes = (
{
closed = 1;
nodes = (
(515,0,l),
(533,148,l,{
"Letterink-NibData" = {
AngleInDegrees = 270;
};
}),
(219,148,l),
(285,684,l,{
"Letterink-NibData" = {
AngleInDegrees = 270;
};
}),
(119,684,l,{
"Letterink-NibData" = {
AngleInDegrees = 180;
};
}),
(35,0,l,{
"Letterink-NibData" = {
AngleInDegrees = 90;
};
})
);
}
);
width = 561;
}
);
metricLeft = "=|H";
unicode = 76;
userData = {
position = 54;
width = 61;
};
}
{
glyphname = M;
kernLeft = A;
kernRight = M;
layers = (
{
anchors = (
{
name = bottom;
pos = (493,0);
},
{
name = top;
pos = (575,684);
}
);
hints = (
{
name = _corner.caps_diag;
options = 2;
origin = (0,14);
scale = (-1,1);
type = Corner;
}
);
layerId = "0CAF3BED-C4AC-4024-B3E1-4C69D1EF7EC0";
shapes = (
{
closed = 1;
nodes = (
(529,-1,l,{
"Letterink-NibData" = {
AngleInDegrees = 19.82904;
};
}),
(788,537,l,{
"Letterink-NibData" = {
AngleInDegrees = 10.61966;
};
}),
(795,562,l,{
"Letterink-NibData" = {
AngleInDegrees = 176.42367;
};
}),
(793,537,l,{
"Letterink-NibData" = {
AngleInDegrees = 168.64911;
};
}),
(833,0,l,{
"Letterink-NibData" = {
AngleInDegrees = 90;
};
}),
(916,0,l,{
"Letterink-NibData" = {
AngleInDegrees = 348.40167;
};
}),
(859,684,l,{
"Letterink-NibData" = {
AngleInDegrees = 270;
};
}),
(779,684,l,{
"Letterink-NibData" = {
AngleInDegrees = 200.24505;
};
}),
(519,147,l,{
"Letterink-NibData" = {
AngleInDegrees = 195.78075;
};
}),
(504,101,l,{
"Letterink-NibData" = {
AngleInDegrees = 344.21925;
};
}),
(500,147,l,{
"Letterink-NibData" = {
AngleInDegrees = 339.94696;
};
}),
(374,684,l,{
"Letterink-NibData" = {
AngleInDegrees = 270;
};
}),
(293,684,l,{
"Letterink-NibData" = {
AngleInDegrees = 191.97887;
};
}),
(96,89,l,{
"Letterink-NibData" = {
AngleInDegrees = 201.80141;
};
}),
(170,66,l,{
"Letterink-NibData" = {
AngleInDegrees = 11.90108;
};
}),
(324,531,l,{
"Letterink-NibData" = {
AngleInDegrees = 7.76516;
};
}),
(330,556,l,{
"Letterink-NibData" = {
AngleInDegrees = 172.23484;
};
}),
(332,531,l,{
"Letterink-NibData" = {
AngleInDegrees = 160.25072;
};
}),
(457,-1,l,{
"Letterink-NibData" = {
AngleInDegrees = 90;
};
})
);
}
);
width = 969;
},
{
anchors = (
{
name = bottom;
pos = (513,1);
},
{
name = top;
pos = (596,683);
}
);
hints = (
{
name = _corner.caps_diag;
options = 2;
origin = (0,14);
scale = (-1,1);
type = Corner;
}
);
layerId = "49C16FD3-6177-408B-A733-AEB3898BB77C";
shapes = (
{
closed = 1;
nodes = (
(537,1,l,{
"Letterink-NibData" = {
AngleInDegrees = 19.8453;
};
}),
(814,572,l,{
"Letterink-NibData" = {
AngleInDegrees = 15.73201;
};
}),
(845,649,l,{
"Letterink-NibData" = {
AngleInDegrees = 170.40687;
};
}),
(849,572,l,{
"Letterink-NibData" = {
AngleInDegrees = 168.65127;
};
}),
(896,0,l,{
"Letterink-NibData" = {
AngleInDegrees = 90;
};
}),
(934,0,l,{
"Letterink-NibData" = {
AngleInDegrees = 348.43256;
};
}),
(878,685,l,{
"Letterink-NibData" = {
AngleInDegrees = 270;
};
}),
(830,685,l,{
"Letterink-NibData" = {
AngleInDegrees = 200.22945;
};
}),
(543,103,l,{
"Letterink-NibData" = {
AngleInDegrees = 195.70864;
};
}),
(516,35,l,{
"Letterink-NibData" = {
AngleInDegrees = 344.29136;
};
}),
(505,103,l,{
"Letterink-NibData" = {
AngleInDegrees = 339.85787;
};
}),
(363,685,l,{
"Letterink-NibData" = {
AngleInDegrees = 270;
};
}),
(317,685,l,{
"Letterink-NibData" = {
AngleInDegrees = 191.99471;
};
}),
(108,68,l,{
"Letterink-NibData" = {
AngleInDegrees = "202.61986";
};
}),
(144,55,l,{
GSCorner = {
name = _corner.caps_diag;
options = "1";
scale = "{-1, 1}";
};
"Letterink-NibData" = {
AngleInDegrees = "22.1315";
};
}),
(318,571,l,{
"Letterink-NibData" = {
AngleInDegrees = 8.56914;
};
}),
(340,651,l,{
"Letterink-NibData" = {
AngleInDegrees = 164.67849;
};
}),
(353,571,l,{
"Letterink-NibData" = {
AngleInDegrees = 160.21186;
};
}),
(487,1,l,{
"Letterink-NibData" = {
AngleInDegrees = 90;
};
})
);
}
);
width = 993;
},
{
anchors = (
{
name = bottom;
pos = (508,0);
},
{
name = top;
pos = (592,684);
}
);
hints = (
{
name = _corner.caps_diag;
options = 2;
origin = (0,14);
scale = (-1,1);
type = Corner;
}
);
layerId = m004;
shapes = (
{
closed = 1;
nodes = (
(573,4,l,{
"Letterink-NibData" = {
AngleInDegrees = 19.82904;
};
}),
(775,443,l,{
"Letterink-NibData" = {
AngleInDegrees = 10.61966;
};
}),
(764,495,l,{
"Letterink-NibData" = {
AngleInDegrees = 176.42367;
};
}),
(750,439,l,{
"Letterink-NibData" = {
AngleInDegrees = 168.64911;
};
}),
(776,0,l,{
"Letterink-NibData" = {
AngleInDegrees = 90;
};
}),
(948,2,l,{
"Letterink-NibData" = {
AngleInDegrees = 348.40167;
};
}),
(887,684,l,{
"Letterink-NibData" = {
AngleInDegrees = 270;
};
}),
(740,684,l,{
"Letterink-NibData" = {
AngleInDegrees = 200.24505;
};
}),
(553,302,l,{
"Letterink-NibData" = {
AngleInDegrees = 195.78075;
};
}),
(539,256,l,{
"Letterink-NibData" = {
AngleInDegrees = 344.21925;
};
}),
(535,302,l,{
"Letterink-NibData" = {
AngleInDegrees = 339.94696;
};
}),
(445,684,l,{
"Letterink-NibData" = {
AngleInDegrees = 270;
};
}),
(297,684,l,{
"Letterink-NibData" = {
AngleInDegrees = 191.97887;
};
}),
(123,141,l,{
"Letterink-NibData" = {
AngleInDegrees = 201.80141;
};
}),
(276,94,l,{
"Letterink-NibData" = {
AngleInDegrees = 11.90108;
};
}),
(377,418,l,{
"Letterink-NibData" = {
AngleInDegrees = 7.76516;
};
}),
(367,466,l,{
"Letterink-NibData" = {
AngleInDegrees = 172.23484;
};
}),
(353,418,l,{
"Letterink-NibData" = {
AngleInDegrees = 160.25072;
};
}),
(452,4,l,{
"Letterink-NibData" = {
AngleInDegrees = 90;
};
})
);
}
);
width = 991;
}
);
unicode = 77;
userData = {
position = 664;
width = 20;
};
}
{
glyphname = N;
kernLeft = N;
layers = (
{
anchors = (
{
name = bottom;
pos = (374,0);
},
{
name = eng;
pos = (609,0);
},
{
name = top;
pos = (472,684);
}
);
hints = (
{
name = _corner.caps_vert.001;
origin = (0,10);
scale = (-1,1);
type = Corner;
}
);
layerId = "0CAF3BED-C4AC-4024-B3E1-4C69D1EF7EC0";
shapes = (
{
closed = 1;
nodes = (
(650,-1,l,{
"Letterink-NibData" = {
AngleInDegrees = "180";
};
}),
(734,684,l,{
"Letterink-NibData" = {
AngleInDegrees = "90";
};
}),
(651,684,l),
(591,188,l,{
"Letterink-NibData" = {
AngleInDegrees = 355.66769;
};
}),
(592,141,l,{
"Letterink-NibData" = {
AngleInDegrees = 143.1301;
};
}),
(540,229,l,{
"Letterink-NibData" = {
AngleInDegrees = 140.24946;
};
}),
(313,594,l),
(237,696,l,{
"Letterink-NibData" = {
AngleInDegrees = "270";
};
}),
(189,696,l,{
"Letterink-NibData" = {
AngleInDegrees = "180";
};
}),
(118,117,l,{
"Letterink-NibData" = {
AngleInDegrees = "90";
};
}),
(201,117,l),
(245,477,l,{
"Letterink-NibData" = {
AngleInDegrees = 355.66769;
};
}),
(248,554,l,{
"Letterink-NibData" = {
AngleInDegrees = 143.1301;
};
}),
(300,466,l,{
"Letterink-NibData" = {
AngleInDegrees = 140.24946;
};
}),
(527,101,l),
(603,-1,l,{
"Letterink-NibData" = {
AngleInDegrees = "270";
};
})
);
}
);
width = 760;
},
{
anchors = (
{
name = bottom;
pos = (381,-8);
},
{
name = eng;
pos = (624,0);
},
{
name = top;
pos = (472,695);
}
);
hints = (
{
name = _corner.caps_vert.001;
origin = (0,10);
scale = (-1,1);
type = Corner;
}
);
layerId = "49C16FD3-6177-408B-A733-AEB3898BB77C";
shapes = (
{
closed = 1;
nodes = (
(642,0,l,{
"Letterink-NibData" = {
AngleInDegrees = "180";
};
}),
(726,683,l),
(684,683,l,{
"Letterink-NibData" = {
AngleInDegrees = 359.58179;
};
}),
(617,105,l),
(612,64,l,{
"Letterink-NibData" = {
AngleInDegrees = 145.43748;
};
}),
(592,96,l,{
"Letterink-NibData" = {
AngleInDegrees = 141.25478;
};
}),
(284,601,l,{
"Letterink-NibData" = {
AngleInDegrees = 318.39493;
};
}),
(230,683,l,{
"Letterink-NibData" = {
AngleInDegrees = 270;
};
}),
(203,683,l,{
"Letterink-NibData" = {
AngleInDegrees = 180;
};
}),
(132,101,l,{
"Letterink-NibData" = {
AngleInDegrees = 180;
};
}),
(170,101,l,{
"Letterink-NibData" = {
AngleInDegrees = 359.58179;
};
}),
(228,583,l),
(228,618,l,{
"Letterink-NibData" = {
AngleInDegrees = 145.43748;
};
}),
(246,588,l,{
"Letterink-NibData" = {
AngleInDegrees = 141.25478;
};
}),
(555,79,l),
(611,0,l,{
"Letterink-NibData" = {
AngleInDegrees = "270";
};
})
);
}
);
width = 757;
},
{
anchors = (
{
name = bottom;
pos = (428,0);
},
{
name = eng;
pos = (629,0);
},
{
name = top;
pos = (512,684);
}
);
hints = (
{
name = _corner.caps_vert.001;
origin = (0,10);
scale = (-1,1);
type = Corner;
}
);
layerId = m004;
shapes = (
{
closed = 1;
nodes = (
(711,-5,l,{
"Letterink-NibData" = {
AngleInDegrees = "180";
};
}),
(796,684,l,{
"Letterink-NibData" = {
AngleInDegrees = "90";
};
}),
(631,684,l),
(592,365,l,{
"Letterink-NibData" = {
AngleInDegrees = 355.66769;
};
}),
(588,285,l,{
"Letterink-NibData" = {
AngleInDegrees = 143.1301;
};
}),
(568,323,l,{
"Letterink-NibData" = {
AngleInDegrees = 140.24946;
};
}),
(367,636,l),
(318,698,l,{
"Letterink-NibData" = {
AngleInDegrees = "270";
};
}),
(214,698,l,{
"Letterink-NibData" = {
AngleInDegrees = "180";
};
}),
(147,166,l,{
"Letterink-NibData" = {
AngleInDegrees = "90";
};
}),
(313,166,l),
(330,312,l,{
"Letterink-NibData" = {
AngleInDegrees = 355.66769;
};
}),
(333,408,l,{
"Letterink-NibData" = {
AngleInDegrees = 143.1301;
};
}),
(400,286,l,{
"Letterink-NibData" = {
AngleInDegrees = 140.24946;
};
}),
(562,53,l),
(608,-5,l,{
"Letterink-NibData" = {
AngleInDegrees = "270";
};
})
);
}
);
width = 809;
}
);
metricRight = H;
unicode = 78;
userData = {
position = 642;
width = 56;
};
}
{
glyphname = O;
kernLeft = O;
kernRight = O;
layers = (
{
anchors = (
{
name = bottom;
pos = (350,-6);
},
{
name = center;
pos = (392,341);
},
{
name = horn;
pos = (542,689);
},
{
name = ogonek;
pos = (570,57);
},
{
name = top;
pos = (436,703);
},
{
name = topleft;
pos = (69,684);
},
{
name = topright;
pos = (828,684);
}
);
layerId = "0CAF3BED-C4AC-4024-B3E1-4C69D1EF7EC0";
shapes = (
{
closed = 1;
nodes = (
(547,-19,o),
(709,138,o),
(735,352,cs,{
"Letterink-NibData" = {
AngleInDegrees = "180";
};
}),
(759,551,o),
(630,704,o),
(438,704,cs,{
"Letterink-NibData" = {
AngleInDegrees = "270";
};
}),
(237,704,o),
(74,551,o),
(48,337,cs,{
"Letterink-NibData" = {
AngleInDegrees = "180";
};
}),
(24,138,o),
(153,-19,o),
(342,-19,cs,{
"Letterink-NibData" = {
AngleInDegrees = "270";
};
})
);
},
{
closed = 1;
nodes = (
(207,55,o),
(113,181,o),
(133,344,cs),
(153,510,o),
(282,630,o),
(430,630,cs,{
"Letterink-NibData" = {
AngleInDegrees = "90";
};
}),
(576,630,o),
(670,509,o),
(650,346,cs),
(630,180,o),
(502,55,o),
(352,55,cs,{
"Letterink-NibData" = {
AngleInDegrees = "90";
};
})
);
}
);
width = 759;
},
{
anchors = (
{
name = bottom;
pos = (340,3);
},
{
name = center;
pos = (383,342);
},
{
name = horn;
pos = (521,684);
},
{
name = ogonek;
pos = (538,53);
},
{
name = top;
pos = (424,691);
},
{
name = topleft;
pos = (57,684);
},
{
name = topright;
pos = (815,684);
}
);
layerId = "49C16FD3-6177-408B-A733-AEB3898BB77C";
shapes = (
{
closed = 1;
nodes = (
(522,-10,o),
(677,134,o),
(702,333,cs,{
"Letterink-NibData" = {
AngleInDegrees = "180";
};
}),
(727,540,o),
(611,694,o),
(424,694,cs,{
"Letterink-NibData" = {
AngleInDegrees = "270";
};
}),
(234,694,o),
(80,546,o),
(56,349,cs,{
"Letterink-NibData" = {
AngleInDegrees = "180";
};
}),
(30,140,o),
(148,-10,o),
(333,-10,cs,{
"Letterink-NibData" = {
AngleInDegrees = "270";
};
})
);
},
{
closed = 1;
nodes = (
(173,25,o),
(72,160,o),
(96,349,cs),
(118,523,o),
(256,659,o),
(420,659,cs,{
"Letterink-NibData" = {
AngleInDegrees = "90";
};
}),
(587,659,o),
(685,524,o),
(662,338,cs),
(640,162,o),
(504,25,o),
(337,25,cs,{
"Letterink-NibData" = {
AngleInDegrees = "90";
};
})
);
}
);
width = 736;
},
{
anchors = (
{
name = bottom;
pos = (358,-15);
},
{
name = center;
pos = (400,337);
},
{
name = horn;
pos = (583,687);
},
{
name = ogonek;
pos = (574,37);
},
{
name = top;
pos = (449,699);
},
{
name = topleft;
pos = (100,643);
},
{
name = topright;
pos = (805,643);
}
);
layerId = m004;
shapes = (
{
closed = 1;
nodes = (
(569,-32,o),
(738,111,o),
(765,333,cs,{
"Letterink-NibData" = {
AngleInDegrees = "180";
};
}),
(790,535,o),
(648,711,o),
(449,711,cs,{
"Letterink-NibData" = {
AngleInDegrees = "270";
};
}),
(236,711,o),
(67,562,o),
(38,338,cs,{
"Letterink-NibData" = {
AngleInDegrees = "180";
};
}),
(13,142,o),
(160,-32,o),
(354,-32,cs,{
"Letterink-NibData" = {
AngleInDegrees = "270";
};
})
);
},
{
closed = 1;
nodes = (
(264,115,o),
(188,210,o),
(203,332,cs),
(219,466,o),
(314,563,o),
(430,563,cs,{
"Letterink-NibData" = {
AngleInDegrees = "90";
};
}),
(543,563,o),
(616,474,o),
(600,344,cs),
(584,212,o),
(491,115,o),
(373,115,cs,{
"Letterink-NibData" = {
AngleInDegrees = "90";
};
})
);
}
);
width = 782;
}
);
unicode = 79;
userData = {
position = 683;
width = 56;
};
}
{
glyphname = P;
kernLeft = E;
kernRight = P;
layers = (
{
anchors = (
{
name = bottom;
pos = (357,0);
},
{
name = top;
pos = (357,684);
}
);
hints = (
{
name = _corner.caps_left;
origin = (0,22);
type = Corner;
}
);
layerId = "0CAF3BED-C4AC-4024-B3E1-4C69D1EF7EC0";
shapes = (
{
closed = 1;
nodes = (
(198,-1,l),
(273,610,l,{
"Letterink-NibData" = {
AngleInDegrees = 90;
};
}),
(401,610,ls,{
"Letterink-NibData" = {
AngleInDegrees = 90;
};
}),
(490,610,o),
(543,561,o),
(531,462,cs,{
"Letterink-NibData" = {
AngleInDegrees = 180;
};
}),
(517,345,o),
(430,301,o),
(358,301,cs,{
"Letterink-NibData" = {
AngleInDegrees = 270;
};
}),
(343,301,o),
(315,302,o),
(270,308,c,{
"Letterink-NibData" = {
AngleInDegrees = 180;
};
}),
(265,235,l,{
"Letterink-NibData" = {
AngleInDegrees = 104.03624;
};
}),
(305,227,o),
(336,225,o),
(360,225,cs,{
"Letterink-NibData" = {
AngleInDegrees = 90;
};
}),
(468,225,o),
(595,295,o),
(615,455,cs),
(630,578,o),
(560,686,o),
(420,686,cs,{
"Letterink-NibData" = {
AngleInDegrees = 270;
};
}),
(190,686,l,{
"Letterink-NibData" = {
AngleInDegrees = 180;
};
}),
(190,610,l),
(115,-1,l,{
"Letterink-NibData" = {
AngleInDegrees = 90;
};
})
);
}
);
width = 619;
},
{
anchors = (
{
name = bottom;
pos = (340,0);
},
{
name = top;
pos = (361,684);
}
);
hints = (
{
name = _corner.caps_left;
origin = (0,22);
type = Corner;
}
);
layerId = "49C16FD3-6177-408B-A733-AEB3898BB77C";
shapes = (
{
closed = 1;
nodes = (
(148,0,l),
(227,647,l,{
"Letterink-NibData" = {
AngleInDegrees = 90;
};
}),
(387,649,ls,{
"Letterink-NibData" = {
AngleInDegrees = 90;
};
}),
(488,650,o),
(557,591,o),
(541,468,cs,{
"Letterink-NibData" = {
AngleInDegrees = 180;
};
}),
(524,334,o),
(434,283,o),
(324,283,cs,{
"Letterink-NibData" = {
AngleInDegrees = 270;
};
}),
(312,283,o),
(280,284,o),
(245,286,c,{
"Letterink-NibData" = {
AngleInDegrees = 180;
};
}),
(243,252,l,{
"Letterink-NibData" = {
AngleInDegrees = 97.59464;
};
}),
(272,248,o),
(309,247,o),
(328,247,cs,{
"Letterink-NibData" = {
AngleInDegrees = 90;
};
}),
(448,247,o),
(561,312,o),
(581,465,cs),
(597,590,o),
(535,686,o),
(403,685,cs,{
"Letterink-NibData" = {
AngleInDegrees = 269.72846;
};
}),
(190,684,l,{
"Letterink-NibData" = {
AngleInDegrees = 180;
};
}),
(189,648,l),
(109,0,l,{
"Letterink-NibData" = {
AngleInDegrees = 90;
};
})
);
}
);
width = 592;
},
{
anchors = (
{
name = bottom;
pos = (417,0);
},
{
name = top;
pos = (417,684);
}
);
hints = (
{
name = _corner.caps_left;
origin = (0,22);
type = Corner;
}
);
layerId = m004;
shapes = (
{
closed = 1;
nodes = (
(318,-1,l),
(383,531,l,{
"Letterink-NibData" = {
AngleInDegrees = 90;
};
}),
(447,531,ls,{
"Letterink-NibData" = {
AngleInDegrees = 90;
};
}),
(488,531,o),
(531,500,o),
(523,432,cs,{
"Letterink-NibData" = {
AngleInDegrees = 180;
};
}),
(517,380,o),
(481,350,o),
(434,350,cs,{
"Letterink-NibData" = {
AngleInDegrees = 270;
};
}),
(420,350,o),
(413,350,o),
(396,356,c,{
"Letterink-NibData" = {
AngleInDegrees = 180;
};
}),
(384,209,l,{
"Letterink-NibData" = {
AngleInDegrees = 104.03624;
};
}),
(405,202,o),
(423,199,o),
(457,199,cs,{
"Letterink-NibData" = {
AngleInDegrees = 90;
};
}),
(581,199,o),
(680,308,o),
(693,429,cs),
(708,572,o),
(616,683,o),
(479,683,cs,{
"Letterink-NibData" = {
AngleInDegrees = 270;
};
}),
(223,683,l,{
"Letterink-NibData" = {
AngleInDegrees = 180;
};
}),
(217,535,l),
(151,-1,l,{
"Letterink-NibData" = {
AngleInDegrees = 90;
};
})
);
}
);
width = 692;
}
);
metricLeft = H;
unicode = 80;
userData = {
position = 480;
width = 59;
};
}
{
glyphname = Q;
kernLeft = O;
kernRight = O;
layers = (
{
anchors = (
{
name = bottom;
pos = (333,0);
},
{
name = top;
pos = (417,684);
}
);
layerId = "0CAF3BED-C4AC-4024-B3E1-4C69D1EF7EC0";
shapes = (
{
closed = 1;
nodes = (
(210,-137,l,{
"Letterink-NibData" = {
AngleInDegrees = 108.2394;
};
}),
(237,-143,o),
(266,-155,o),
(295,-165,cs,{
"Letterink-NibData" = {
AngleInDegrees = 107.52557;
};
}),
(330,-177,o),
(363,-188,o),
(422,-188,cs,{
"Letterink-NibData" = {
AngleInDegrees = 90;
};
}),
(458,-188,o),
(504,-176,o),
(552,-139,c,{
"Letterink-NibData" = {
AngleInDegrees = 330.25512;
};
}),
(521,-74,l,{
"Letterink-NibData" = {
AngleInDegrees = 234.34467;
};
}),
(471,-107,o),
(450,-114,o),
(417,-114,cs,{
"Letterink-NibData" = {
AngleInDegrees = 270;
};
}),
(388,-114,o),
(352,-107,o),
(316,-96,cs,{
"Letterink-NibData" = {
AngleInDegrees = 288.43495;
};
}),
(297,-90,o),
(278,-77,o),
(257,-74,c,{
"Letterink-NibData" = {
AngleInDegrees = 34.09498;
};
}),
(322,4,l,{
"Letterink-NibData" = {
AngleInDegrees = 90;
};
}),
(242,17,l,{
"Letterink-NibData" = {
AngleInDegrees = 215.43331;
};
}),
(102,-152,l,{
"Letterink-NibData" = {
AngleInDegrees = 128.07278;
};
}),
(158,-199,l,{
"Letterink-NibData" = {
AngleInDegrees = 34.74318;
};
})
);
},
{
ref = O;
}
);
width = 759;
},
{
anchors = (
{
name = bottom;
pos = (327,0);
},
{
name = top;
pos = (411,684);
}
);
layerId = "49C16FD3-6177-408B-A733-AEB3898BB77C";
shapes = (
{
closed = 1;
nodes = (
(184,-129,l,{
"Letterink-NibData" = {
AngleInDegrees = 108.43495;
};
}),
(220,-134,o),
(255,-153,o),
(291,-164,cs,{
"Letterink-NibData" = {
AngleInDegrees = 108.79988;
};
}),
(338,-179,o),
(373,-188,o),
(420,-188,cs,{
"Letterink-NibData" = {
AngleInDegrees = 90;
};
}),
(451,-188,o),
(485,-181,o),
(528,-152,c,{
"Letterink-NibData" = {
AngleInDegrees = 329.03624;
};
}),
(514,-121,l,{
"Letterink-NibData" = {
AngleInDegrees = 236.30993;
};
}),
(470,-148,o),
(441,-152,o),
(414,-152,cs,{
"Letterink-NibData" = {
AngleInDegrees = 270;
};
}),
(379,-152,o),
(340,-146,o),
(297,-132,cs,{
"Letterink-NibData" = {
AngleInDegrees = 288.62158;
};
}),
(266,-122,o),
(238,-107,o),
(207,-99,c,{
"Letterink-NibData" = {
AngleInDegrees = 34.33965;
};
}),
(297,9,l,{
"Letterink-NibData" = {
AngleInDegrees = 90;
};
}),
(259,16,l,{
"Letterink-NibData" = {
AngleInDegrees = 215.53768;
};
}),
(109,-164,l,{
"Letterink-NibData" = {
AngleInDegrees = 126.57303;
};
}),
(134,-187,l,{
"Letterink-NibData" = {
AngleInDegrees = 33.25437;
};
})
);
},
{
ref = O;
}
);
width = 736;
},
{
anchors = (
{
name = bottom;
pos = (342,0);
},
{
name = top;
pos = (426,684);
}
);
layerId = m004;
shapes = (
{
closed = 1;
nodes = (
(222,-203,l,{
"Letterink-NibData" = {
AngleInDegrees = 108.2394;
};
}),
(240,-210,o),
(262,-218,o),
(283,-222,cs,{
"Letterink-NibData" = {
AngleInDegrees = 107.52557;
};
}),
(310,-227,o),
(345,-245,o),
(413,-245,cs,{
"Letterink-NibData" = {
AngleInDegrees = 90;
};
}),
(476,-245,o),
(530,-228,o),
(616,-173,c,{
"Letterink-NibData" = {
AngleInDegrees = 330.25512;
};
}),
(555,-48,l,{
"Letterink-NibData" = {
AngleInDegrees = 234.34467;
};
}),
(507,-81,o),
(466,-98,o),
(419,-98,cs,{
"Letterink-NibData" = {
AngleInDegrees = 270;
};
}),
(395,-98,o),
(371,-97,o),
(353,-94,cs,{
"Letterink-NibData" = {
AngleInDegrees = 288.43495;
};
}),
(341,-92,o),
(326,-85,o),
(314,-80,c,{
"Letterink-NibData" = {
AngleInDegrees = 34.09498;
};
}),
(441,67,l,{
"Letterink-NibData" = {
AngleInDegrees = 90;
};
}),
(279,94,l,{
"Letterink-NibData" = {
AngleInDegrees = 215.43331;
};
}),
(56,-171,l,{
"Letterink-NibData" = {
AngleInDegrees = 128.07278;
};
}),
(170,-265,l,{
"Letterink-NibData" = {
AngleInDegrees = 34.74318;
};
})
);
},
{
ref = O;
}
);
width = 782;
}
);
metricLeft = O;
metricRight = O;
unicode = 81;
userData = {
position = 652;
width = 60;
};
}
{
glyphname = R;
kernLeft = E;
kernRight = R;
layers = (
{
anchors = (
{
name = bottom;
pos = (312,0);
},
{
name = top;
pos = (383,684);
}
);
hints = (
{
name = _corner.caps_left;
origin = (0,25);
type = Corner;
}
);
layerId = "0CAF3BED-C4AC-4024-B3E1-4C69D1EF7EC0";
shapes = (
{
closed = 1;
nodes = (
(574,-15,o),
(603,2,o),
(623,31,c,{
"Letterink-NibData" = {
AngleInDegrees = "304.93094";
};
}),
(571,78,l,{
"Letterink-NibData" = {
AngleInDegrees = "201.80141";
};
}),
(565,69,o),
(557,61,o),
(549,61,cs,{
"Letterink-NibData" = {
AngleInDegrees = "270";
};
}),
(541,61,o),
(536,63,o),
(532,70,cs,{
"Letterink-NibData" = {
AngleInDegrees = "324.61211";
};
}),
(504,118,o),
(500,173,o),
(475,220,cs,{
"Letterink-NibData" = {
AngleInDegrees = "323.74616";
};
}),
(456,254,o),
(437,281,o),
(414,288,c,{
"Letterink-NibData" = {
AngleInDegrees = "90";
};
}),
(443,289,o),
(474,294,o),
(492,305,cs,{
"Letterink-NibData" = {
AngleInDegrees = "58.17255";
};
}),
(561,345,o),
(608,402,o),
(617,472,cs),
(631,590,o),
(559,686,o),
(433,686,cs,{
"Letterink-NibData" = {
AngleInDegrees = "270";
};
}),
(203,686,l,{
"Letterink-NibData" = {
AngleInDegrees = "180";
};
}),
(200,613,l),
(124,-1,l,{
"Letterink-NibData" = {
AngleInDegrees = "90";
};
}),
(207,-1,l),
(282,611,l,{
"Letterink-NibData" = {
AngleInDegrees = "90";
};
}),
(425,611,ls,{
"Letterink-NibData" = {
AngleInDegrees = "90";
};
}),
(499,611,o),
(542,556,o),
(533,476,cs,{
"Letterink-NibData" = {
AngleInDegrees = "180";
};
}),
(523,396,o),
(462,345,o),
(378,345,cs,{
"Letterink-NibData" = {
AngleInDegrees = "270";
};
}),
(305,345,l,{
"Letterink-NibData" = {
AngleInDegrees = "180";
};
}),
(297,268,l,{
"Letterink-NibData" = {
AngleInDegrees = "93.27049";
};
}),
(365,264,o),
(370,242,o),
(398,194,cs,{
"Letterink-NibData" = {
AngleInDegrees = "144.29331";
};
}),
(429,142,o),
(434,81,o),
(465,29,cs,{
"Letterink-NibData" = {
AngleInDegrees = "144.09028";
};
}),
(482,0,o),
(510,-15,o),
(540,-15,cs,{
"Letterink-NibData" = {
AngleInDegrees = "90";
};
})
);
}
);
width = 663;
},
{
anchors = (
{
name = bottom;
pos = (275,0);
},
{
name = top;
pos = (355,684);
}
);
hints = (
{
name = _corner.caps_left;
origin = (0,25);
type = Corner;
}
);
layerId = "49C16FD3-6177-408B-A733-AEB3898BB77C";
shapes = (
{
closed = 1;
nodes = (
(555,-9,o),
(580,10,o),
(591,28,c,{
"Letterink-NibData" = {
AngleInDegrees = "304.11447";
};
}),
(567,51,l,{
"Letterink-NibData" = {
AngleInDegrees = "225";
};
}),
(560,39,o),
(542,26,o),
(529,26,cs,{
"Letterink-NibData" = {
AngleInDegrees = "270";
};
}),
(515,26,o),
(506,35,o),
(500,46,cs,{
"Letterink-NibData" = {
AngleInDegrees = "323.49856";
};
}),
(462,110,o),
(448,183,o),
(401,250,cs,{
"Letterink-NibData" = {
AngleInDegrees = "322.59464";
};
}),
(384,275,o),
(376,282,o),
(348,293,c,{
"Letterink-NibData" = {
AngleInDegrees = "90";
};
}),
(362,293,o),
(375,293,o),
(388,293,cs,{
"Letterink-NibData" = {
AngleInDegrees = "90";
};
}),
(478,291,o),
(565,372,o),
(579,482,cs),
(593,597,o),
(525,685,o),
(411,685,cs,{
"Letterink-NibData" = {
AngleInDegrees = "269.73838";
};
}),
(194,685,l,{
"Letterink-NibData" = {
AngleInDegrees = "180";
};
}),
(194,658,l),
(113,1,l,{
"Letterink-NibData" = {
AngleInDegrees = "90";
};
}),
(152,1,l),
(231,649,l,{
"Letterink-NibData" = {
AngleInDegrees = "90";
};
}),
(405,649,ls,{
"Letterink-NibData" = {
AngleInDegrees = "90";
};
}),
(494,649,o),
(551,578,o),
(539,484,cs,{
"Letterink-NibData" = {
AngleInDegrees = "180";
};
}),
(528,387,o),
(458,321,o),
(352,321,cs,{
"Letterink-NibData" = {
AngleInDegrees = "270";
};
}),
(264,321,l,{
"Letterink-NibData" = {
AngleInDegrees = "180";
};
}),
(260,286,l,{
"Letterink-NibData" = {
AngleInDegrees = "97.30576000000001";
};
}),
(337,281,o),
(371,236,o),
(394,197,cs,{
"Letterink-NibData" = {
AngleInDegrees = "143.79054";
};
}),
(431,136,o),
(433,90,o),
(470,28,cs,{
"Letterink-NibData" = {
AngleInDegrees = "143.84181";
};
}),
(486,2,o),
(505,-9,o),
(528,-9,cs,{
"Letterink-NibData" = {
AngleInDegrees = "90";
};
})
);
}
);
width = 637;
},
{
anchors = (
{
name = bottom;
pos = (397,-10);
},
{
name = top;
pos = (465,684);
}
);
hints = (
{
name = _corner.caps_left;
origin = (0,25);
type = Corner;
}
);
layerId = m004;
shapes = (
{
closed = 1;
nodes = (
(659,-27,o),
(704,0,o),
(733,40,c,{
"Letterink-NibData" = {
AngleInDegrees = "330.25512";
};
}),
(650,131,l,{
"Letterink-NibData" = {
AngleInDegrees = "225";
};
}),
(645,127,o),
(642,122,o),
(635,122,cs,{
"Letterink-NibData" = {
AngleInDegrees = "270";
};
}),
(620,122,o),
(611,131,o),
(600,155,cs,{
"Letterink-NibData" = {
AngleInDegrees = "321.54629";
};
}),
(587,187,o),
(590,211,o),
(575,242,cs,{
"Letterink-NibData" = {
AngleInDegrees = "321.07246";
};
}),
(561,269,o),
(548,286,o),
(511,300,c,{
"Letterink-NibData" = {
AngleInDegrees = "90";
};
}),
(533,301,o),
(556,303,o),
(574,308,cs),
(658,331,o),
(708,401,o),
(718,484,cs),
(732,597,o),
(653,684,o),
(518,684,cs,{
"Letterink-NibData" = {
AngleInDegrees = "270";
};
}),
(229,684,l,{
"Letterink-NibData" = {
AngleInDegrees = "180";
};
}),
(226,546,l),
(156,0,l),
(317,0,l),
(387,536,l),
(476,536,ls,{
"Letterink-NibData" = {
AngleInDegrees = "90";
};
}),
(537,536,o),
(560,517,o),
(554,467,cs,{
"Letterink-NibData" = {
AngleInDegrees = "180";
};
}),
(548,420,o),
(512,389,o),
(447,389,cs,{
"Letterink-NibData" = {
AngleInDegrees = "270";
};
}),
(410,389,l,{
"Letterink-NibData" = {
AngleInDegrees = "180";
};
}),
(394,233,l,{
"Letterink-NibData" = {
AngleInDegrees = "91.4688";
};
}),
(405,233,o),
(422,210,o),
(435,181,cs,{
"Letterink-NibData" = {
AngleInDegrees = "143.88701";
};
}),
(455,137,o),
(476,55,o),
(491,34,cs,{
"Letterink-NibData" = {
AngleInDegrees = "143.47114";
};
}),
(512,4,o),
(545,-27,o),
(613,-27,cs,{
"Letterink-NibData" = {
AngleInDegrees = "90";
};
})
);
}
);
width = 762;
}
);
metricLeft = E;
unicode = 82;
userData = {
position = 619;
width = 57;
};
}
{
glyphname = S;
kernLeft = S;
kernRight = S;
layers = (
{
anchors = (
{
name = bottom;
pos = (243,-5);
},
{
name = top;
pos = (327,696);
}
);
layerId = "0CAF3BED-C4AC-4024-B3E1-4C69D1EF7EC0";
shapes = (
{
closed = 1;
nodes = (
(372,-18,o),
(485,63,o),
(503,175,cs),
(525,301,o),
(408,364,o),
(332,392,cs),
(267,416,o),
(182,453,o),
(191,529,cs),
(199,588,o),
(259,625,o),
(323,624,cs,{
"Letterink-NibData" = {
AngleInDegrees = 90;
};
}),
(372,623,o),
(420,601,o),
(417,569,cs,{
"Letterink-NibData" = {
AngleInDegrees = 180;
};
}),
(415,550,o),
(398,539,o),
(385,543,c,{
"Letterink-NibData" = {
AngleInDegrees = 185.04245;
};
}),
(360,478,l,{
"Letterink-NibData" = {
AngleInDegrees = 98.48894;
};
}),
(416,462,o),
(484,502,o),
(493,569,cs),
(503,649,o),
(426,699,o),
(331,700,cs,{
"Letterink-NibData" = {
AngleInDegrees = 270;
};
}),
(219,701,o),
(123,633,o),
(109,526,cs,{
"Letterink-NibData" = {
AngleInDegrees = 180;
};
}),
(95,408,o),
(196,360,o),
(281,328,cs),
(366,296,o),
(431,254,o),
(422,182,cs,{
"Letterink-NibData" = {
AngleInDegrees = 180;
};
}),
(413,109,o),
(337,57,o),
(248,58,cs,{
"Letterink-NibData" = {
AngleInDegrees = 270;
};
}),
(157,59,o),
(95,117,o),
(86,198,c,{
"Letterink-NibData" = {
AngleInDegrees = 246.50143;
};
}),
(12,173,l,{
"Letterink-NibData" = {
AngleInDegrees = 168.29356;
};
}),
(22,62,o),
(110,-14,o),
(238,-16,cs,{
"Letterink-NibData" = {
AngleInDegrees = 90;
};
})
);
}
);
width = 541;
},
{
anchors = (
{
name = bottom;
pos = (247,13);
},
{
name = top;
pos = (319,684);
}
);
layerId = "49C16FD3-6177-408B-A733-AEB3898BB77C";
shapes = (
{
closed = 1;
nodes = (
(366,-14,o),
(472,67,o),
(486,180,cs),
(497,272,o),
(445,329,o),
(294,388,cs),
(178,432,o),
(147,479,o),
(154,539,cs),
(163,611,o),
(235,662,o),
(326,661,cs,{
"Letterink-NibData" = {
AngleInDegrees = 90;
};
}),
(397,660,o),
(442,627,o),
(436,580,cs,{
"Letterink-NibData" = {
AngleInDegrees = 180;
};
}),
(433,552,o),
(412,532,o),
(388,536,c,{
"Letterink-NibData" = {
AngleInDegrees = 184.51399;
};
}),
(377,504,l,{
"Letterink-NibData" = {
AngleInDegrees = 96.48307;
};
}),
(424,492,o),
(467,530,o),
(474,585,cs),
(482,647,o),
(419,695,o),
(330,696,cs,{
"Letterink-NibData" = {
AngleInDegrees = 270;
};
}),
(215,697,o),
(126,632,o),
(113,538,cs,{
"Letterink-NibData" = {
AngleInDegrees = 180;
};
}),
(103,457,o),
(142,406,o),
(274,355,cs),
(410,304,o),
(457,253,o),
(448,179,cs,{
"Letterink-NibData" = {
AngleInDegrees = 180;
};
}),
(437,90,o),
(344,22,o),
(237,23,cs,{
"Letterink-NibData" = {
AngleInDegrees = 270;
};
}),
(141,24,o),
(68,83,o),
(51,170,c,{
"Letterink-NibData" = {
AngleInDegrees = 248.45902;
};
}),
(15,157,l,{
"Letterink-NibData" = {
AngleInDegrees = 162.61303;
};
}),
(35,53,o),
(119,-11,o),
(233,-12,cs,{
"Letterink-NibData" = {
AngleInDegrees = 90;
};
})
);
}
);
width = 530;
},
{
anchors = (
{
name = bottom;
pos = (264,-10);
},
{
name = top;
pos = (345,696);
}
);
layerId = m004;
shapes = (
{
closed = 1;
nodes = (
(396,-27,o),
(511,57,o),
(527,187,cs),
(539,290,o),
(482,361,o),
(366,404,cs),
(268,441,o),
(248,484,o),
(252,516,cs),
(256,548,o),
(285,579,o),
(336,579,cs),
(363,578,o),
(391,572,o),
(389,553,cs),
(388,543,o),
(379,538,o),
(372,542,c),
(335,445,l),
(439,407,o),
(509,477,o),
(518,551,cs),
(530,652,o),
(457,713,o),
(342,715,cs),
(200,717,o),
(102,630,o),
(87,514,cs),
(77,431,o),
(106,347,o),
(264,285,cs),
(339,256,o),
(362,224,o),
(356,184,cs),
(351,137,o),
(314,113,o),
(263,114,cs),
(198,115,o),
(155,154,o),
(145,218,c),
(3,170,l),
(10,55,o),
(103,-36,o),
(255,-31,cs)
);
}
);
width = 553;
}
);
unicode = 83;
userData = {
position = 433;
width = 55;
};
}
{
glyphname = T;
kernLeft = T;
kernRight = T;
layers = (
{
anchors = (
{
name = bottom;
pos = (267,0);
},
{
name = center;
pos = (307,345);
},
{
name = top;
pos = (351,684);
}
);
hints = (
{
name = _corner.caps_left;
options = 1;
origin = (0,4);
type = Corner;
}
);
layerId = "0CAF3BED-C4AC-4024-B3E1-4C69D1EF7EC0";
shapes = (
{
closed = 1;
nodes = (
(307,0,l),
(382,608,l,{
"Letterink-NibData" = {
AngleInDegrees = 90;
};
}),
(592,608,l),
(601,684,l,{
"Letterink-NibData" = {
AngleInDegrees = 270;
};
}),
(197,684,l,{
"Letterink-NibData" = {
AngleInDegrees = 270;
};
}),
(189,608,l,{
"Letterink-NibData" = {
AngleInDegrees = 90;
};
}),
(299,608,l,{
"Letterink-NibData" = {
AngleInDegrees = 180;
};
}),
(224,0,l,{
"Letterink-NibData" = {
AngleInDegrees = 90;
};
})
);
}
);
width = 564;
},
{
anchors = (
{
name = bottom;
pos = (265,0);
},
{
name = center;
pos = (306,352);
},
{
name = top;
pos = (347,684);
}
);
hints = (
{
name = _corner.caps_left;
options = 2;
origin = (0,4);
type = Corner;
}
);
layerId = "49C16FD3-6177-408B-A733-AEB3898BB77C";
shapes = (
{
closed = 1;
nodes = (
(282,0,l),
(362,648,l,{
"Letterink-NibData" = {
AngleInDegrees = 90;
};
}),
(582,648,l),
(586,684,l,{
"Letterink-NibData" = {
AngleInDegrees = 270;
};
}),
(194,684,l,{
"Letterink-NibData" = {
AngleInDegrees = 270;
};
}),
(194,648,l,{
"Letterink-NibData" = {
AngleInDegrees = 90;
};
}),
(324,648,l,{
"Letterink-NibData" = {
AngleInDegrees = 180;
};
}),
(244,0,l,{
"Letterink-NibData" = {
AngleInDegrees = 90;
};
})
);
}
);
width = 553;
},
{
anchors = (
{
name = bottom;
pos = (282,0);
},
{
name = center;
pos = (325,347);
},
{
name = top;
pos = (366,684);
}
);
hints = (
{
name = _corner.caps_left;
options = 1;
origin = (0,4);
type = Corner;
}
);
layerId = m004;
shapes = (
{
closed = 1;
nodes = (
(364,0,l),
(430,536,l,{
"Letterink-NibData" = {
AngleInDegrees = 90;
};
}),
(616,536,l),
(634,684,l,{
"Letterink-NibData" = {
AngleInDegrees = 270;
};
}),
(225,684,l,{
"Letterink-NibData" = {
AngleInDegrees = 270;
};
}),
(206,536,l,{
"Letterink-NibData" = {
AngleInDegrees = 90;
};
}),
(264,536,l,{
"Letterink-NibData" = {
AngleInDegrees = 180;
};
}),
(198,0,l,{
"Letterink-NibData" = {
AngleInDegrees = 90;
};
})
);
}
);
width = 597;
}
);
metricLeft = E;
unicode = 84;
userData = {
position = 277;
width = 61;
};
}
{
glyphname = U;
kernLeft = E;
kernRight = U;
layers = (
{
anchors = (
{
name = bottom;
pos = (368,2);
},
{
name = center;
pos = (411,362);
},
{
name = horn;
pos = (692,682);
},
{
name = ogonek;
pos = (539,35);
},
{
name = top;
pos = (449,679);
},
{
name = topright;
pos = (762,684);
}
);
hints = (
{
name = _corner.caps_vert;
options = 1;
origin = (0,12);
type = Corner;
}
);
layerId = "0CAF3BED-C4AC-4024-B3E1-4C69D1EF7EC0";
shapes = (
{
closed = 1;
nodes = (
(558,-17,o),
(657,126,o),
(674,260,cs),
(726,682,l,{
"Letterink-NibData" = {
AngleInDegrees = 270;
};
}),
(644,682,l,{
"Letterink-NibData" = {
AngleInDegrees = 180;
};
}),
(592,264,ls,{
"Letterink-NibData" = {
AngleInDegrees = 180;
};
}),
(580,166,o),
(510,57,o),
(378,57,cs,{
"Letterink-NibData" = {
AngleInDegrees = 270;
};
}),
(259,57,o),
(207,151,o),
(220,260,cs),
(257,573,l,{
"Letterink-NibData" = {
AngleInDegrees = 270;
};
}),
(174,573,l,{
"Letterink-NibData" = {
AngleInDegrees = 180;
};
}),
(137,264,ls,{
"Letterink-NibData" = {
AngleInDegrees = 180;
};
}),
(119,117,o),
(204,-17,o),
(377,-17,cs,{
"Letterink-NibData" = {
AngleInDegrees = 90;
};
})
);
}
);
width = 744;
},
{
anchors = (
{
name = bottom;
pos = (371,0);
},
{
name = center;
pos = (414,362);
},
{
name = horn;
pos = (705,684);
},
{
name = ogonek;
pos = (537,38);
},
{
name = top;
pos = (445,685);
},
{
name = topright;
pos = (754,684);
}
);
hints = (
{
name = _corner.caps_vert;
options = 1;
origin = (0,12);
type = Corner;
}
);
layerId = "49C16FD3-6177-408B-A733-AEB3898BB77C";
shapes = (
{
closed = 1;
nodes = (
(557,-10,o),
(653,128,o),
(670,262,cs),
(722,684,l,{
"Letterink-NibData" = {
AngleInDegrees = 270;
};
}),
(684,684,l,{
"Letterink-NibData" = {
AngleInDegrees = 180;
};
}),
(632,264,ls,{
"Letterink-NibData" = {
AngleInDegrees = 180;
};
}),
(618,152,o),
(533,24,o),
(379,24,cs,{
"Letterink-NibData" = {
AngleInDegrees = 270;
};
}),
(237,24,o),
(173,133,o),
(189,262,cs),
(228,581,l,{
"Letterink-NibData" = {
AngleInDegrees = 270;
};
}),
(190,581,l,{
"Letterink-NibData" = {
AngleInDegrees = 180;
};
}),
(151,264,ls,{
"Letterink-NibData" = {
AngleInDegrees = 180;
};
}),
(133,116,o),
(208,-10,o),
(379,-10,cs,{
"Letterink-NibData" = {
AngleInDegrees = 90;
};
})
);
}
);
width = 745;
},
{
.lastUpdate = 751987241.997;
anchors = (
{
name = bottom;
pos = (394,-10);
},
{
name = center;
pos = (432,362);
},
{
name = horn;
pos = (707,683);
},
{
name = ogonek;
pos = (579,26);
},
{
name = top;
pos = (469,671);
},
{
name = topright;
pos = (806,684);
}
);
hints = (
{
name = _corner.caps_vert;
options = 1;
origin = (0,12);
type = Corner;
}
);
layerId = m004;
shapes = (
{
closed = 1;
nodes = (
(577,-29,o),
(697,79,o),
(719,258,cs),
(771,684,l,{
"Letterink-NibData" = {
AngleInDegrees = 270;
};
}),
(606,684,l,{
"Letterink-NibData" = {
AngleInDegrees = 180;
};
}),
(555,266,ls,{
"Letterink-NibData" = {
AngleInDegrees = 180;
};
}),
(544,176,o),
(487,115,o),
(409,115,cs,{
"Letterink-NibData" = {
AngleInDegrees = 270;
};
}),
(338,115,o),
(300,168,o),
(311,258,cs),
(341,503,l,{
"Letterink-NibData" = {
AngleInDegrees = 270;
};
}),
(176,511,l,{
"Letterink-NibData" = {
AngleInDegrees = 180;
};
}),
(147,266,ls,{
"Letterink-NibData" = {
AngleInDegrees = 180;
};
}),
(126,87,o),
(226,-29,o),
(405,-29,cs,{
"Letterink-NibData" = {
AngleInDegrees = 90;
};
})
);
}
);
width = 777;
}
);
metricLeft = H;
metricRight = "=H*.9";
unicode = 85;
userData = {
position = 606;
width = 61;
};
}
{
glyphname = V;
kernLeft = V;
kernRight = V;
layers = (
{
anchors = (
{
name = bottom;
pos = (346,0);
},
{
name = top;
pos = (427,684);
}
);
hints = (
{
name = _corner.caps_diag;
options = 1;
origin = (0,6);
type = Corner;
}
);
layerId = "0CAF3BED-C4AC-4024-B3E1-4C69D1EF7EC0";
shapes = (
{
closed = 1;
nodes = (
(386,-6,l,{
"Letterink-NibData" = {
AngleInDegrees = 19.08205;
};
}),
(709,684,l,{
"Letterink-NibData" = {
AngleInDegrees = 199.25107;
};
}),
(624,684,l,{
"Letterink-NibData" = {
AngleInDegrees = 199.25107;
};
}),
(376,153,l,{
"Letterink-NibData" = {
AngleInDegrees = 194.03624;
};
}),
(361,113,l,{
"Letterink-NibData" = {
AngleInDegrees = 345.25644;
};
}),
(356,151,l,{
"Letterink-NibData" = {
AngleInDegrees = 340.32286;
};
}),
(246,609,l,{
"Letterink-NibData" = {
AngleInDegrees = 247.54306;
};
}),
(172,585,l,{
"Letterink-NibData" = {
AngleInDegrees = 160.22488;
};
}),
(310,-6,l,{
"Letterink-NibData" = {
AngleInDegrees = 90;
};
})
);
}
);
width = 671;
},
{
anchors = (
{
name = bottom;
pos = (346,0);
},
{
name = top;
pos = (430,684);
}
);
hints = (
{
name = _corner.caps_diag;
options = 1;
origin = (0,6);
type = Corner;
}
);
layerId = "49C16FD3-6177-408B-A733-AEB3898BB77C";
shapes = (
{
closed = 1;
nodes = (
(364,1,l,{
"Letterink-NibData" = {
AngleInDegrees = 19.38314;
};
}),
(691,684,l,{
"Letterink-NibData" = {
AngleInDegrees = 270;
};
}),
(650,684,l,{
"Letterink-NibData" = {
AngleInDegrees = 199.22057;
};
}),
(368,91,l,{
"Letterink-NibData" = {
AngleInDegrees = 193.73627;
};
}),
(352,45,l,{
"Letterink-NibData" = {
AngleInDegrees = 345.96376;
};
}),
(345,90,l,{
"Letterink-NibData" = {
AngleInDegrees = 339.97391;
};
}),
(217,618,l,{
"Letterink-NibData" = {
AngleInDegrees = 251.99584;
};
}),
(181,607,l,{
"Letterink-NibData" = {
AngleInDegrees = 160.32269;
};
}),
(327,1,l,{
"Letterink-NibData" = {
AngleInDegrees = 90;
};
})
);
}
);
width = 660;
},
{
anchors = (
{
name = bottom;
pos = (386,2);
},
{
name = top;
pos = (468,674);
}
);
hints = (
{
name = _corner.caps_diag;
options = 1;
origin = (0,6);
type = Corner;
}
);
layerId = m004;
shapes = (
{
closed = 1;
nodes = (
(448,-13,l,{
"Letterink-NibData" = {
AngleInDegrees = "19.08205";
};
}),
(770,685,l,{
"Letterink-NibData" = {
AngleInDegrees = "270";
};
}),
(605,685,l,{
"Letterink-NibData" = {
AngleInDegrees = "199.25107";
};
}),
(431,288,l,{
"Letterink-NibData" = {
AngleInDegrees = "194.03624";
};
}),
(411,221,l,{
"Letterink-NibData" = {
AngleInDegrees = "345.25644";
};
}),
(406,288,l,{
"Letterink-NibData" = {
AngleInDegrees = "340.32286";
};
}),
(343,586,l,{
"Letterink-NibData" = {
AngleInDegrees = "247.54306";
};
}),
(192,527,l,{
"Letterink-NibData" = {
AngleInDegrees = "160.22488";
};
}),
(314,-13,l,{
"Letterink-NibData" = {
AngleInDegrees = "90";
};
})
);
}
);
width = 726;
}
);
metricLeft = H;
unicode = 86;
userData = {
position = 631;
width = 59;
};
}
{
glyphname = W;
kernLeft = V;
kernRight = V;
layers = (
{
anchors = (
{
name = bottom;
pos = (535,0);
},
{
name = top;
pos = (619,684);
}
);
hints = (
{
name = _corner.caps_diag;
options = 1;
origin = (0,16);
type = Corner;
}
);
layerId = "0CAF3BED-C4AC-4024-B3E1-4C69D1EF7EC0";
shapes = (
{
closed = 1;
nodes = (
(360,-1,l,{
"Letterink-NibData" = {
AngleInDegrees = 17.90008;
};
}),
(584,509,l),
(602,557,l,{
"Letterink-NibData" = {
AngleInDegrees = 161.91077;
};
}),
(609,509,l),
(710,-1,l,{
"Letterink-NibData" = {
AngleInDegrees = 90;
};
}),
(790,-1,l,{
"Letterink-NibData" = {
AngleInDegrees = 18.03429;
};
}),
(1095,686,l,{
"Letterink-NibData" = {
AngleInDegrees = 197.23182;
};
}),
(1013,686,l,{
"Letterink-NibData" = {
AngleInDegrees = 197.23182;
};
}),
(770,126,l,{
"Letterink-NibData" = {
AngleInDegrees = 186.78897;
};
}),
(760,84,l,{
"Letterink-NibData" = {
AngleInDegrees = 350.53768;
};
}),
(758,126,l,{
"Letterink-NibData" = {
AngleInDegrees = 343.04811;
};
}),
(656,687,l,{
"Letterink-NibData" = {
AngleInDegrees = 270;
};
}),
(582,687,l,{
"Letterink-NibData" = {
AngleInDegrees = 197.23182;
};
}),
(339,126,l,{
"Letterink-NibData" = {
AngleInDegrees = 187.30576;
};
}),
(330,92,l,{
"Letterink-NibData" = {
AngleInDegrees = 354.14399;
};
}),
(330,131,l,{
"Letterink-NibData" = {
AngleInDegrees = 342.7185;
};
}),
(245,607,l,{
"Letterink-NibData" = {
AngleInDegrees = 252.01267;
};
}),
(169,588,l,{
"Letterink-NibData" = {
AngleInDegrees = 161.56505;
};
}),
(280,-1,l,{
"Letterink-NibData" = {
AngleInDegrees = 90;
};
})
);
}
);
width = 1052;
},
{
anchors = (
{
name = bottom;
pos = (546,0);
},
{
name = top;
pos = (630,684);
}
);
hints = (
{
name = _corner.caps_diag;
options = 1;
origin = (0,16);
type = Corner;
}
);
layerId = "49C16FD3-6177-408B-A733-AEB3898BB77C";
shapes = (
{
closed = 1;
nodes = (
(339,1,l,{
"Letterink-NibData" = {
AngleInDegrees = 17.98951;
};
}),
(605,597,l),
(624,647,l,{
"Letterink-NibData" = {
AngleInDegrees = 161.9268;
};
}),
(631,597,l),
(750,1,l,{
"Letterink-NibData" = {
AngleInDegrees = 90;
};
}),
(795,1,l,{
"Letterink-NibData" = {
AngleInDegrees = 17.95687;
};
}),
(1101,686,l,{
"Letterink-NibData" = {
AngleInDegrees = 270;
};
}),
(1061,686,l,{
"Letterink-NibData" = {
AngleInDegrees = 197.79382;
};
}),
(797,91,l,{
"Letterink-NibData" = {
AngleInDegrees = 191.11304;
};
}),
(777,31,l,{
"Letterink-NibData" = {
AngleInDegrees = 347.90524;
};
}),
(771,91,l,{
"Letterink-NibData" = {
AngleInDegrees = 342.20618;
};
}),
(653,686,l,{
"Letterink-NibData" = {
AngleInDegrees = 270;
};
}),
(605,686,l,{
"Letterink-NibData" = {
AngleInDegrees = 197.79382;
};
}),
(341,91,l,{
"Letterink-NibData" = {
AngleInDegrees = 192.75753;
};
}),
(321,34,l,{
"Letterink-NibData" = {
AngleInDegrees = 348.27489;
};
}),
(316,91,l,{
"Letterink-NibData" = {
AngleInDegrees = 342.13672;
};
}),
(216,618,l,{
"Letterink-NibData" = {
AngleInDegrees = 251.99584;
};
}),
(179,611,l,{
"Letterink-NibData" = {
AngleInDegrees = 162.03536;
};
}),
(294,1,l,{
"Letterink-NibData" = {
AngleInDegrees = 90;
};
})
);
}
);
width = 1066;
},
{
anchors = (
{
name = bottom;
pos = (553,0);
},
{
name = top;
pos = (635,684);
}
);
hints = (
{
name = _corner.caps_diag;
options = 1;
origin = (0,16);
type = Corner;
}
);
layerId = m004;
shapes = (
{
closed = 1;
nodes = (
(440,0,l,{
"Letterink-NibData" = {
AngleInDegrees = 17.90008;
};
}),
(586,353,l),
(598,399,l,{
"Letterink-NibData" = {
AngleInDegrees = 161.91077;
};
}),
(604,353,l),
(671,0,l,{
"Letterink-NibData" = {
AngleInDegrees = 90;
};
}),
(834,0,l,{
"Letterink-NibData" = {
AngleInDegrees = 18.03429;
};
}),
(1133,684,l,{
"Letterink-NibData" = {
AngleInDegrees = 270;
};
}),
(943,684,l,{
"Letterink-NibData" = {
AngleInDegrees = 197.23182;
};
}),
(742,191,l,{
"Letterink-NibData" = {
AngleInDegrees = 186.78897;
};
}),
(768,117,l,{
"Letterink-NibData" = {
AngleInDegrees = 350.53768;
};
}),
(792,191,l,{
"Letterink-NibData" = {
AngleInDegrees = 343.04811;
};
}),
(707,684,l,{
"Letterink-NibData" = {
AngleInDegrees = 270;
};
}),
(556,684,l,{
"Letterink-NibData" = {
AngleInDegrees = 197.23182;
};
}),
(361,191,l,{
"Letterink-NibData" = {
AngleInDegrees = 187.30576;
};
}),
(375,117,l,{
"Letterink-NibData" = {
AngleInDegrees = 354.14399;
};
}),
(409,190,l,{
"Letterink-NibData" = {
AngleInDegrees = 342.7185;
};
}),
(341,578,l,{
"Letterink-NibData" = {
AngleInDegrees = 252.01267;
};
}),
(185,542,l,{
"Letterink-NibData" = {
AngleInDegrees = 161.56505;
};
}),
(283,0,l,{
"Letterink-NibData" = {
AngleInDegrees = 90;
};
})
);
}
);
width = 1086;
}
);
metricLeft = V;
metricRight = A;
unicode = 87;
userData = {
position = 665;
width = 20;
};
}
{
glyphname = X;
kernLeft = X;
kernRight = X;
layers = (
{
anchors = (
{
name = bottom;
pos = (265,0);
},
{
name = top;
pos = (349,684);
}
);
hints = (
{
name = _corner.caps_diag;
options = 1;
origin = (0,11);
type = Corner;
},
{
name = _corner.caps_diag_xs;
options = 1;
origin = (0,3);
type = Corner;
}
);
layerId = "0CAF3BED-C4AC-4024-B3E1-4C69D1EF7EC0";
shapes = (
{
closed = 1;
nodes = (
(93,0,l,{
"Letterink-NibData" = {
AngleInDegrees = 29.44299;
};
}),
(324,333,l,{
"Letterink-NibData" = {
AngleInDegrees = 152.6001;
};
}),
(286,328,l,{
"Letterink-NibData" = {
AngleInDegrees = 152.6001;
};
}),
(393,60,l,{
"Letterink-NibData" = {
AngleInDegrees = 152.87869;
};
}),
(465,96,l,{
"Letterink-NibData" = {
AngleInDegrees = 330.96328;
};
}),
(343,399,l,{
"Letterink-NibData" = {
AngleInDegrees = 33.49168;
};
}),
(331,327,l,{
"Letterink-NibData" = {
AngleInDegrees = 33.49168;
};
}),
(592,684,l,{
"Letterink-NibData" = {
AngleInDegrees = 270;
};
}),
(497,684,l,{
"Letterink-NibData" = {
AngleInDegrees = 213.02387;
};
}),
(296,400,l,{
"Letterink-NibData" = {
AngleInDegrees = 330.65478;
};
}),
(338,399,l,{
"Letterink-NibData" = {
AngleInDegrees = 330.65478;
};
}),
(248,626,l,{
"Letterink-NibData" = {
AngleInDegrees = 238.67131;
};
}),
(176,596,l,{
"Letterink-NibData" = {
AngleInDegrees = 149.38861;
};
}),
(281,335,l,{
"Letterink-NibData" = {
AngleInDegrees = 210.47246;
};
}),
(286,402,l,{
"Letterink-NibData" = {
AngleInDegrees = 210.47246;
};
}),
(-1,0,l,{
"Letterink-NibData" = {
AngleInDegrees = 90;
};
})
);
}
);
width = 575;
},
{
anchors = (
{
name = bottom;
pos = (253,0);
},
{
name = top;
pos = (344,684);
}
);
hints = (
{
name = _corner.caps_diag;
options = 1;
origin = (0,11);
type = Corner;
},
{
name = _corner.caps_diag_xs;
options = 2;
origin = (0,3);
type = Corner;
}
);
layerId = "49C16FD3-6177-408B-A733-AEB3898BB77C";
shapes = (
{
closed = 1;
nodes = (
(65,0,l,{
"Letterink-NibData" = {
AngleInDegrees = 30.13266;
};
}),
(309,343,l,{
"Letterink-NibData" = {
AngleInDegrees = 152.1857;
};
}),
(296,343,l,{
"Letterink-NibData" = {
AngleInDegrees = 152.1857;
};
}),
(436,37,l,{
"Letterink-NibData" = {
AngleInDegrees = 151.99082;
};
}),
(469,54,l,{
"Letterink-NibData" = {
AngleInDegrees = 331.40464;
};
}),
(320,382,l,{
"Letterink-NibData" = {
AngleInDegrees = 32.92671;
};
}),
(322,354,l,{
"Letterink-NibData" = {
AngleInDegrees = 32.92671;
};
}),
(567,684,l,{
"Letterink-NibData" = {
AngleInDegrees = 270;
};
}),
(520,684,l,{
"Letterink-NibData" = {
AngleInDegrees = 212.67527;
};
}),
(300,384,l,{
"Letterink-NibData" = {
AngleInDegrees = 331.61665;
};
}),
(321,384,l,{
"Letterink-NibData" = {
AngleInDegrees = 331.61665;
};
}),
(219,633,l,{
"Letterink-NibData" = {
AngleInDegrees = 241.60698;
};
}),
(184,619,l,{
"Letterink-NibData" = {
AngleInDegrees = 151.62076;
};
}),
(293,353,l,{
"Letterink-NibData" = {
AngleInDegrees = 210.06858;
};
}),
(293,381,l,{
"Letterink-NibData" = {
AngleInDegrees = 210.06858;
};
}),
(19,0,l,{
"Letterink-NibData" = {
AngleInDegrees = 90;
};
})
);
}
);
width = 586;
},
{
anchors = (
{
name = bottom;
pos = (312,0);
},
{
name = top;
pos = (399,684);
}
);
hints = (
{
name = _corner.caps_diag;
options = 1;
origin = (0,11);
type = Corner;
},
{
name = _corner.caps_diag_xs;
options = 2;
origin = (0,3);
type = Corner;
}
);
layerId = m004;
shapes = (
{
closed = 1;
nodes = (
(187,0,l,{
"Letterink-NibData" = {
AngleInDegrees = 29.44299;
};
}),
(372,296,l,{
"Letterink-NibData" = {
AngleInDegrees = 152.6001;
};
}),
(317,285,l,{
"Letterink-NibData" = {
AngleInDegrees = 152.6001;
};
}),
(405,65,l,{
"Letterink-NibData" = {
AngleInDegrees = 152.87869;
};
}),
(546,152,l,{
"Letterink-NibData" = {
AngleInDegrees = 330.96328;
};
}),
(414,430,l,{
"Letterink-NibData" = {
AngleInDegrees = 33.49168;
};
}),
(410,311,l,{
"Letterink-NibData" = {
AngleInDegrees = 33.49168;
};
}),
(697,684,l,{
"Letterink-NibData" = {
AngleInDegrees = 270;
};
}),
(502,684,l,{
"Letterink-NibData" = {
AngleInDegrees = 213.02387;
};
}),
(333,439,l,{
"Letterink-NibData" = {
AngleInDegrees = 330.65478;
};
}),
(408,448,l,{
"Letterink-NibData" = {
AngleInDegrees = 330.65478;
};
}),
(344,609,l,{
"Letterink-NibData" = {
AngleInDegrees = 238.67131;
};
}),
(200,539,l,{
"Letterink-NibData" = {
AngleInDegrees = 149.38861;
};
}),
(308,311,l,{
"Letterink-NibData" = {
AngleInDegrees = 210.47246;
};
}),
(298,427,l,{
"Letterink-NibData" = {
AngleInDegrees = 210.47246;
};
}),
(-3,0,l,{
"Letterink-NibData" = {
AngleInDegrees = 90;
};
})
);
}
);
width = 670;
}
);
metricLeft = H;
unicode = 88;
userData = {
position = 566;
width = 58;
};
}
{
glyphname = Y;
kernLeft = Y;
kernRight = Y;
layers = (
{
anchors = (
{
name = bottom;
pos = (301,12);
},
{
name = top;
pos = (382,675);
},
{
name = topleft;
pos = (194,684);
}
);
hints = (
{
name = _corner.caps_diag;
options = 1;
origin = (0,7);
type = Corner;
}
);
layerId = "0CAF3BED-C4AC-4024-B3E1-4C69D1EF7EC0";
shapes = (
{
closed = 1;
nodes = (
(346,0,l,{
"Letterink-NibData" = {
AngleInDegrees = 359.80837;
};
}),
(382,298,l,{
"Letterink-NibData" = {
AngleInDegrees = 29.15455;
};
}),
(647,686,l,{
"Letterink-NibData" = {
AngleInDegrees = 270;
};
}),
(552,686,l,{
"Letterink-NibData" = {
AngleInDegrees = 208.65033;
};
}),
(371,418,l),
(347,369,l,{
"Letterink-NibData" = {
AngleInDegrees = 331.686;
};
}),
(335,418,l),
(246,625,l,{
"Letterink-NibData" = {
AngleInDegrees = 238.67131;
};
}),
(175,592,l,{
"Letterink-NibData" = {
AngleInDegrees = 151.29749;
};
}),
(298,296,l,{
"Letterink-NibData" = {
AngleInDegrees = 179.42127;
};
}),
(264,0,l,{
"Letterink-NibData" = {
AngleInDegrees = 90;
};
})
);
}
);
width = 603;
},
{
anchors = (
{
name = bottom;
pos = (299,-1);
},
{
name = top;
pos = (382,685);
},
{
name = topleft;
pos = (76,684);
}
);
hints = (
{
name = _corner.caps_diag;
options = 1;
origin = (0,7);
type = Corner;
}
);
layerId = "49C16FD3-6177-408B-A733-AEB3898BB77C";
shapes = (
{
closed = 1;
nodes = (
(322,1,l,{
"Letterink-NibData" = {
AngleInDegrees = 359.6193;
};
}),
(358,303,l,{
"Letterink-NibData" = {
AngleInDegrees = 29.35776;
};
}),
(618,686,l,{
"Letterink-NibData" = {
AngleInDegrees = 270;
};
}),
(574,686,l,{
"Letterink-NibData" = {
AngleInDegrees = 208.95376;
};
}),
(357,366,l),
(344,340,l,{
"Letterink-NibData" = {
AngleInDegrees = 330.99358;
};
}),
(334,366,l),
(219,633,l,{
"Letterink-NibData" = {
AngleInDegrees = 239.74356;
};
}),
(186,614,l,{
"Letterink-NibData" = {
AngleInDegrees = 150.98964;
};
}),
(320,301,l,{
"Letterink-NibData" = {
AngleInDegrees = 180;
};
}),
(282,1,l,{
"Letterink-NibData" = {
AngleInDegrees = 90;
};
})
);
}
);
width = 581;
},
{
.lastUpdate = 751987241.988;
anchors = (
{
name = bottom;
pos = (328,0);
},
{
name = top;
pos = (402,684);
},
{
name = topleft;
pos = (23,682);
}
);
hints = (
{
name = _corner.caps_diag;
options = 1;
origin = (0,7);
type = Corner;
}
);
layerId = m004;
shapes = (
{
closed = 1;
nodes = (
(415,0,l,{
"Letterink-NibData" = {
AngleInDegrees = 359.80837;
};
}),
(451,294,l,{
"Letterink-NibData" = {
AngleInDegrees = 29.15455;
};
}),
(699,682,l,{
"Letterink-NibData" = {
AngleInDegrees = 270;
};
}),
(505,682,l,{
"Letterink-NibData" = {
AngleInDegrees = 208.65033;
};
}),
(395,489,l),
(381,445,l,{
"Letterink-NibData" = {
AngleInDegrees = 331.686;
};
}),
(377,489,l),
(344,595,l,{
"Letterink-NibData" = {
AngleInDegrees = 238.67131;
};
}),
(195,535,l,{
"Letterink-NibData" = {
AngleInDegrees = 151.29749;
};
}),
(285,292,l,{
"Letterink-NibData" = {
AngleInDegrees = 179.42127;
};
}),
(249,0,l,{
"Letterink-NibData" = {
AngleInDegrees = 90;
};
})
);
}
);
width = 652;
}
);
unicode = 89;
userData = {
position = 308;
width = 66;
};
}
{
glyphname = Z;
kernLeft = Z;
kernRight = Z;
layers = (
{
anchors = (
{
name = bottom;
pos = (244,0);
},
{
name = center;
pos = (286,342);
},
{
name = top;
pos = (326,682);
}
);
layerId = "0CAF3BED-C4AC-4024-B3E1-4C69D1EF7EC0";
shapes = (
{
closed = 1;
nodes = (
(115,74,l,{
"Letterink-NibData" = {
AngleInDegrees = "101.43368";
};
}),
(69,48,l,{
"Letterink-NibData" = {
AngleInDegrees = "101.43368";
};
}),
(170,33,o),
(237,-14,o),
(333,-14,cs,{
"Letterink-NibData" = {
AngleInDegrees = "90";
};
}),
(392,-14,o),
(456,6,o),
(519,62,c,{
"Letterink-NibData" = {
AngleInDegrees = "314.46454";
};
}),
(469,117,l,{
"Letterink-NibData" = {
AngleInDegrees = "224.16968";
};
}),
(431,82,o),
(383,61,o),
(335,61,cs,{
"Letterink-NibData" = {
AngleInDegrees = "270";
};
}),
(282,61,o),
(215,90,o),
(152,103,cs,{
"Letterink-NibData" = {
AngleInDegrees = "280.61965";
};
}),
(137,106,o),
(121,111,o),
(104,114,c,{
"Letterink-NibData" = {
AngleInDegrees = "30.80285";
};
}),
(120,76,l,{
"Letterink-NibData" = {
AngleInDegrees = "30.80285";
};
}),
(556,684,l,{
"Letterink-NibData" = {
AngleInDegrees = "270";
};
}),
(109,684,l,{
"Letterink-NibData" = {
AngleInDegrees = "180";
};
}),
(100,608,l,{
"Letterink-NibData" = {
AngleInDegrees = "90";
};
}),
(450,608,l,{
"Letterink-NibData" = {
AngleInDegrees = "210.93514";
};
}),
(433,639,l,{
"Letterink-NibData" = {
AngleInDegrees = "210.93514";
};
}),
(-12,20,l,{
"Letterink-NibData" = {
AngleInDegrees = "120.69972";
};
}),
(50,-19,l,{
"Letterink-NibData" = {
AngleInDegrees = "30.82766";
};
})
);
}
);
width = 554;
},
{
anchors = (
{
name = bottom;
pos = (232,0);
},
{
name = center;
pos = (274,342);
},
{
name = top;
pos = (317,684);
}
);
layerId = "49C16FD3-6177-408B-A733-AEB3898BB77C";
shapes = (
{
closed = 1;
nodes = (
(74,63,l,{
"Letterink-NibData" = {
AngleInDegrees = 99.91275;
};
}),
(53,51,l,{
"Letterink-NibData" = {
AngleInDegrees = 99.91275;
};
}),
(164,35,o),
(244,-13,o),
(339,-13,cs,{
"Letterink-NibData" = {
AngleInDegrees = 90;
};
}),
(390,-13,o),
(434,1,o),
(490,46,c,{
"Letterink-NibData" = {
AngleInDegrees = 315;
};
}),
(467,74,l,{
"Letterink-NibData" = {
AngleInDegrees = 228.46823;
};
}),
(429,43,o),
(388,23,o),
(340,23,cs,{
"Letterink-NibData" = {
AngleInDegrees = 270;
};
}),
(278,23,o),
(201,54,o),
(139,69,cs,{
"Letterink-NibData" = {
AngleInDegrees = 280.0806;
};
}),
(115,75,o),
(93,80,o),
(68,82,c,{
"Letterink-NibData" = {
AngleInDegrees = 30.76773;
};
}),
(76,65,l,{
"Letterink-NibData" = {
AngleInDegrees = 30.76773;
};
}),
(520,684,l,{
"Letterink-NibData" = {
AngleInDegrees = 270;
};
}),
(110,684,l,{
"Letterink-NibData" = {
AngleInDegrees = 180;
};
}),
(106,648,l,{
"Letterink-NibData" = {
AngleInDegrees = 90;
};
}),
(468,648,l,{
"Letterink-NibData" = {
AngleInDegrees = 210.7643;
};
}),
(460,662,l,{
"Letterink-NibData" = {
AngleInDegrees = 210.7643;
};
}),
(-9,9,l,{
"Letterink-NibData" = {
AngleInDegrees = 120.46555;
};
}),
(21,-10,l,{
"Letterink-NibData" = {
AngleInDegrees = 30.96376;
};
})
);
}
);
width = 533;
},
{
anchors = (
{
name = bottom;
pos = (278,0);
},
{
name = center;
pos = (320,342);
},
{
name = top;
pos = (359,674);
}
);
layerId = m004;
shapes = (
{
closed = 1;
nodes = (
(194,93,l,{
"Letterink-NibData" = {
AngleInDegrees = 101.43368;
};
}),
(107,44,l,{
"Letterink-NibData" = {
AngleInDegrees = 101.43368;
};
}),
(236,32,o),
(271,-14,o),
(369,-14,cs,{
"Letterink-NibData" = {
AngleInDegrees = 90;
};
}),
(444,-14,o),
(525,20,o),
(594,86,c,{
"Letterink-NibData" = {
AngleInDegrees = 314.46454;
};
}),
(507,197,l,{
"Letterink-NibData" = {
AngleInDegrees = 224.16968;
};
}),
(461,153,o),
(422,134,o),
(374,134,cs,{
"Letterink-NibData" = {
AngleInDegrees = 270;
};
}),
(333,134,o),
(276,164,o),
(209,164,cs,{
"Letterink-NibData" = {
AngleInDegrees = 280.61965;
};
}),
(201,164,o),
(191,164,o),
(180,164,c,{
"Letterink-NibData" = {
AngleInDegrees = 30.80285;
};
}),
(202,91,l,{
"Letterink-NibData" = {
AngleInDegrees = 30.80285;
};
}),
(628,684,l,{
"Letterink-NibData" = {
AngleInDegrees = 270;
};
}),
(121,684,l,{
"Letterink-NibData" = {
AngleInDegrees = 180;
};
}),
(103,536,l,{
"Letterink-NibData" = {
AngleInDegrees = 90;
};
}),
(434,536,l,{
"Letterink-NibData" = {
AngleInDegrees = 210.93514;
};
}),
(382,594,l,{
"Letterink-NibData" = {
AngleInDegrees = 210.93514;
};
}),
(-17,44,l,{
"Letterink-NibData" = {
AngleInDegrees = 120.69972;
};
}),
(106,-30,l,{
"Letterink-NibData" = {
AngleInDegrees = 30.82766;
};
})
);
}
);
width = 620;
}
);
unicode = 90;
userData = {
position = 628;
width = 53;
};
}
{
glyphname = bracketleft;
kernLeft = parclosed;
kernRight = paropen;
layers = (
{
layerId = "0CAF3BED-C4AC-4024-B3E1-4C69D1EF7EC0";
shapes = (
{
closed = 1;
nodes = (
(277,-169,l),
(286,-93,l,{
"Letterink-NibData" = {
AngleInDegrees = 270;
};
}),
(115,-93,l),
(209,674,l,{
"Letterink-NibData" = {
AngleInDegrees = 90;
};
}),
(380,674,l),
(389,750,l,{
"Letterink-NibData" = {
AngleInDegrees = 270;
};
}),
(135,750,l,{
"Letterink-NibData" = {
AngleInDegrees = 180;
};
}),
(23,-169,l,{
"Letterink-NibData" = {
AngleInDegrees = 90;
};
})
);
}
);
width = 342;
},
{
layerId = "49C16FD3-6177-408B-A733-AEB3898BB77C";
shapes = (
{
closed = 1;
nodes = (
(247,-178,l),
(251,-143,l,{
"Letterink-NibData" = {
AngleInDegrees = 270;
};
}),
(68,-143,l),
(174,716,l,{
"Letterink-NibData" = {
AngleInDegrees = 90;
};
}),
(357,716,l),
(361,752,l,{
"Letterink-NibData" = {
AngleInDegrees = 270;
};
}),
(140,752,l,{
"Letterink-NibData" = {
AngleInDegrees = 180;
};
}),
(26,-178,l,{
"Letterink-NibData" = {
AngleInDegrees = 90;
};
})
);
}
);
width = 315;
},
{
layerId = m004;
shapes = (
{
closed = 1;
nodes = (
(326,-175,l),
(344,-27,l,{
"Letterink-NibData" = {
AngleInDegrees = "270";
};
}),
(192,-27,l),
(270,603,l,{
"Letterink-NibData" = {
AngleInDegrees = "90";
};
}),
(422,603,l),
(440,751,l,{
"Letterink-NibData" = {
AngleInDegrees = "270";
};
}),
(122,751,l,{
"Letterink-NibData" = {
AngleInDegrees = "180";
};
}),
(8,-175,l,{
"Letterink-NibData" = {
AngleInDegrees = "90";
};
})
);
}
);
width = 397;
}
);
unicode = 91;
userData = {
position = 54;
width = 61;
};
}
{
glyphname = asciicircum;
layers = (
{
layerId = "0CAF3BED-C4AC-4024-B3E1-4C69D1EF7EC0";
shapes = (
{
closed = 1;
nodes = (
(436,360,l,{
"Letterink-NibData" = {
AngleInDegrees = 325.20145;
};
}),
(288,619,l,{
"Letterink-NibData" = {
AngleInDegrees = 270;
};
}),
(257,619,l,{
"Letterink-NibData" = {
AngleInDegrees = 214.79855;
};
}),
(45,360,l,{
"Letterink-NibData" = {
AngleInDegrees = 124.28688;
};
}),
(107,315,l,{
"Letterink-NibData" = {
AngleInDegrees = 34.82449;
};
}),
(258,499,l,{
"Letterink-NibData" = {
AngleInDegrees = 145.04935;
};
}),
(365,313,l,{
"Letterink-NibData" = {
AngleInDegrees = 54.95062;
};
})
);
}
);
width = 520;
},
{
layerId = "49C16FD3-6177-408B-A733-AEB3898BB77C";
shapes = (
{
closed = 1;
nodes = (
(407,367,l,{
"Letterink-NibData" = {
AngleInDegrees = 325.25682;
};
}),
(265,614,l,{
"Letterink-NibData" = {
AngleInDegrees = 270;
};
}),
(254,614,l,{
"Letterink-NibData" = {
AngleInDegrees = 214.89888;
};
}),
(52,367,l,{
"Letterink-NibData" = {
AngleInDegrees = 124.38034;
};
}),
(85,343,l,{
"Letterink-NibData" = {
AngleInDegrees = 34.6655;
};
}),
(250,545,l,{
"Letterink-NibData" = {
AngleInDegrees = 145.02693;
};
}),
(369,341,l,{
"Letterink-NibData" = {
AngleInDegrees = 54.32359;
};
})
);
}
);
width = 480;
},
{
layerId = m004;
shapes = (
{
closed = 1;
nodes = (
(501,349,l,{
"Letterink-NibData" = {
AngleInDegrees = 325.20145;
};
}),
(336,634,l,{
"Letterink-NibData" = {
AngleInDegrees = 270;
};
}),
(264,634,l,{
"Letterink-NibData" = {
AngleInDegrees = 214.79855;
};
}),
(31,349,l,{
"Letterink-NibData" = {
AngleInDegrees = 124.28688;
};
}),
(156,258,l,{
"Letterink-NibData" = {
AngleInDegrees = 34.82449;
};
}),
(276,405,l,{
"Letterink-NibData" = {
AngleInDegrees = 145.04935;
};
}),
(361,256,l,{
"Letterink-NibData" = {
AngleInDegrees = 54.95062;
};
})
);
}
);
width = 546;
}
);
unicode = 94;
userData = {
position = 328;
width = 287;
};
}
{
glyphname = underscore;
kernLeft = uscore_l;
kernRight = uscrore_r;
layers = (
{
layerId = "0CAF3BED-C4AC-4024-B3E1-4C69D1EF7EC0";
shapes = (
{
closed = 1;
nodes = (
(492,-76,l),
(501,0,l,{
"Letterink-NibData" = {
AngleInDegrees = 270;
};
}),
(51,0,l,{
"Letterink-NibData" = {
AngleInDegrees = 180;
};
}),
(42,-76,l,{
"Letterink-NibData" = {
AngleInDegrees = 90;
};
})
);
}
);
width = 614;
},
{
layerId = "49C16FD3-6177-408B-A733-AEB3898BB77C";
shapes = (
{
closed = 1;
nodes = (
(485,-36,l),
(489,0,l,{
"Letterink-NibData" = {
AngleInDegrees = 270;
};
}),
(55,0,l,{
"Letterink-NibData" = {
AngleInDegrees = 180;
};
}),
(51,-36,l,{
"Letterink-NibData" = {
AngleInDegrees = 90;
};
})
);
}
);
width = 606;
},
{
layerId = m004;
shapes = (
{
closed = 1;
nodes = (
(505,-148,l),
(523,0,l,{
"Letterink-NibData" = {
AngleInDegrees = 270;
};
}),
(35,0,l,{
"Letterink-NibData" = {
AngleInDegrees = 180;
};
}),
(17,-148,l,{
"Letterink-NibData" = {
AngleInDegrees = 90;
};
})
);
}
);
width = 620;
}
);
unicode = 95;
userData = {
position = "-133";
width = 55;
};
}
{
glyphname = a;
kernLeft = o;
kernRight = m;
layers = (
{
anchors = (
{
name = bottom;
pos = (230,0);
},
{
name = ogonek;
pos = (550,13);
},
{
name = top;
pos = (291,505);
}
);
hints = (
{
name = _corner.right_swash;
origin = (0,5);
type = Corner;
}
);
layerId = "0CAF3BED-C4AC-4024-B3E1-4C69D1EF7EC0";
shapes = (
{
closed = 1;
nodes = (
(467,85,l),
(516,472,l,{
"Letterink-NibData" = {
AngleInDegrees = 270;
};
}),
(492,484,o),
(463,494,o),
(437,500,c),
(385,88,l,{
"Letterink-NibData" = {
AngleInDegrees = 180;
};
})
);
},
{
angle = 180;
pos = (563,506);
ref = bowl;
}
);
width = 602;
},
{
anchors = (
{
name = bottom;
pos = (228,0);
},
{
name = ogonek;
pos = (510,-4);
},
{
name = top;
pos = (294,500);
}
);
hints = (
{
name = _corner.right_swash;
origin = (0,5);
type = Corner;
}
);
layerId = "49C16FD3-6177-408B-A733-AEB3898BB77C";
shapes = (
{
closed = 1;
nodes = (
(443,77,l),
(492,470,l,{
"Letterink-NibData" = {
AngleInDegrees = 270;
};
}),
(480,477,o),
(464,484,o),
(456,486,c),
(405,80,l,{
"Letterink-NibData" = {
AngleInDegrees = 92.86241;
};
})
);
},
{
angle = 180;
pos = (550,501);
ref = bowl;
}
);
width = 575;
},
{
.lastUpdate = 751987240.543;
anchors = (
{
name = bottom;
pos = (241,0);
},
{
name = ogonek;
pos = (596,20);
},
{
name = top;
pos = (309,515);
}
);
hints = (
{
name = _corner.right_swash;
origin = (0,5);
type = Corner;
}
);
layerId = m004;
shapes = (
{
closed = 1;
nodes = (
(509,121,l),
(550,460,l,{
"Letterink-NibData" = {
AngleInDegrees = 270;
};
}),
(511,483,o),
(451,507,o),
(392,518,c),
(343,131,l,{
"Letterink-NibData" = {
AngleInDegrees = 180;
};
})
);
},
{
angle = 180;
pos = (535,505);
ref = bowl;
}
);
width = 636;
}
);
metricLeft = o;
metricRight = n;
unicode = 97;
userData = {
position = 407;
width = 55;
};
}
{
glyphname = b;
kernRight = o;
layers = (
{
anchors = (
{
name = bottom;
pos = (287,0);
},
{
name = center;
pos = (288,250);
},
{
name = top;
pos = (167,728);
}
);
layerId = "0CAF3BED-C4AC-4024-B3E1-4C69D1EF7EC0";
shapes = (
{
closed = 1;
nodes = (
(209,729,l,{
"Letterink-NibData" = {
AngleInDegrees = 270;
};
}),
(127,729,l,{
"Letterink-NibData" = {
AngleInDegrees = 180;
};
}),
(43,31,l,{
"Letterink-NibData" = {
AngleInDegrees = 111.80141;
};
}),
(57,26,o),
(97,8,o),
(121,4,c,{
"Letterink-NibData" = {
AngleInDegrees = 97.59464;
};
})
);
},
{
pos = (-6,-2);
ref = bowl;
}
);
width = 556;
},
{
anchors = (
{
name = bottom;
pos = (234,0);
},
{
name = center;
pos = (246,250);
},
{
name = top;
pos = (152,726);
}
);
layerId = "49C16FD3-6177-408B-A733-AEB3898BB77C";
shapes = (
{
closed = 1;
nodes = (
(170,730,l,{
"Letterink-NibData" = {
AngleInDegrees = 270;
};
}),
(132,730,l,{
"Letterink-NibData" = {
AngleInDegrees = 180;
};
}),
(48,26,l,{
"Letterink-NibData" = {
AngleInDegrees = 106.69924;
};
}),
(59,21,o),
(73,16,o),
(85,13,c)
);
},
{
pos = (-9,-2);
ref = bowl;
}
);
width = 541;
},
{
anchors = (
{
name = bottom;
pos = (284,0);
},
{
name = center;
pos = (312,250);
},
{
name = top;
pos = (193,732);
}
);
layerId = m004;
shapes = (
{
closed = 1;
nodes = (
(275,731,l,{
"Letterink-NibData" = {
AngleInDegrees = 270;
};
}),
(110,731,l,{
"Letterink-NibData" = {
AngleInDegrees = 180;
};
}),
(24,22,l,{
"Letterink-NibData" = {
AngleInDegrees = 111.80141;
};
}),
(48,12,o),
(123,-5,o),
(186,-13,c,{
"Letterink-NibData" = {
AngleInDegrees = 97.59464;
};
})
);
},
{
pos = (41,0);
ref = bowl;
}
);
width = 575;
}
);
metricLeft = l;
metricRight = o;
unicode = 98;
userData = {
position = 415;
width = 57;
};
}
{
glyphname = c;
kernLeft = o;
kernRight = c;
layers = (
{
anchors = (
{
name = bottom;
pos = (252,-12);
},
{
name = center;
pos = (273,262);
},
{
name = top;
pos = (307,511);
}
);
layerId = "0CAF3BED-C4AC-4024-B3E1-4C69D1EF7EC0";
shapes = (
{
closed = 1;
nodes = (
(332,-17,o),
(396,7,o),
(454,57,c,{
"Letterink-NibData" = {
AngleInDegrees = 328.49573;
};
}),
(417,114,l,{
"Letterink-NibData" = {
AngleInDegrees = 241.22019;
};
}),
(370,78,o),
(319,57,o),
(265,57,cs,{
"Letterink-NibData" = {
AngleInDegrees = 270;
};
}),
(160,57,o),
(108,134,o),
(121,241,cs),
(137,371,o),
(213,442,o),
(301,442,cs,{
"Letterink-NibData" = {
AngleInDegrees = 90;
};
}),
(376,442,o),
(410,399,o),
(404,349,c,{
"Letterink-NibData" = {
AngleInDegrees = 90;
};
}),
(485,349,l,{
"Letterink-NibData" = {
AngleInDegrees = 4.81355;
};
}),
(497,444,o),
(424,516,o),
(309,516,cs,{
"Letterink-NibData" = {
AngleInDegrees = 270;
};
}),
(167,516,o),
(56,407,o),
(37,249,cs,{
"Letterink-NibData" = {
AngleInDegrees = 180;
};
}),
(18,94,o),
(108,-17,o),
(253,-17,cs,{
"Letterink-NibData" = {
AngleInDegrees = 90;
};
})
);
}
);
width = 504;
},
{
anchors = (
{
name = bottom;
pos = (252,-8);
},
{
name = center;
pos = (264,262);
},
{
name = top;
pos = (306,508);
}
);
layerId = "49C16FD3-6177-408B-A733-AEB3898BB77C";
shapes = (
{
closed = 1;
nodes = (
(318,-12,o),
(378,7,o),
(433,48,c,{
"Letterink-NibData" = {
AngleInDegrees = 328.49573;
};
}),
(415,76,l,{
"Letterink-NibData" = {
AngleInDegrees = 242.76485;
};
}),
(366,38,o),
(311,23,o),
(256,23,cs,{
"Letterink-NibData" = {
AngleInDegrees = 270;
};
}),
(135,23,o),
(67,107,o),
(83,239,cs),
(101,385,o),
(191,473,o),
(306,473,cs,{
"Letterink-NibData" = {
AngleInDegrees = 90;
};
}),
(389,473,o),
(444,418,o),
(437,360,c,{
"Letterink-NibData" = {
AngleInDegrees = 90;
};
}),
(472,360,l,{
"Letterink-NibData" = {
AngleInDegrees = 357.27369;
};
}),
(482,440,o),
(407,508,o),
(306,508,cs,{
"Letterink-NibData" = {
AngleInDegrees = 270;
};
}),
(167,508,o),
(62,403,o),
(43,244,cs,{
"Letterink-NibData" = {
AngleInDegrees = 180;
};
}),
(24,89,o),
(106,-12,o),
(254,-12,cs,{
"Letterink-NibData" = {
AngleInDegrees = 90;
};
})
);
}
);
width = 488;
},
{
anchors = (
{
name = bottom;
pos = (250,-12);
},
{
name = center;
pos = (281,262);
},
{
name = top;
pos = (310,516);
}
);
layerId = m004;
shapes = (
{
closed = 1;
nodes = (
(358,-23,o),
(437,13,o),
(488,66,c,{
"Letterink-NibData" = {
AngleInDegrees = 328.49573;
};
}),
(413,175,l,{
"Letterink-NibData" = {
AngleInDegrees = 241.22019;
};
}),
(376,141,o),
(335,122,o),
(283,122,cs,{
"Letterink-NibData" = {
AngleInDegrees = 270;
};
}),
(218,122,o),
(184,170,o),
(196,258,cs),
(206,331,o),
(256,380,o),
(308,380,cs,{
"Letterink-NibData" = {
AngleInDegrees = 90;
};
}),
(346,380,o),
(369,354,o),
(369,317,c,{
"Letterink-NibData" = {
AngleInDegrees = 90;
};
}),
(515,317,l,{
"Letterink-NibData" = {
AngleInDegrees = 4.81355;
};
}),
(530,425,o),
(453,524,o),
(312,524,cs,{
"Letterink-NibData" = {
AngleInDegrees = 270;
};
}),
(168,524,o),
(50,422,o),
(28,263,cs,{
"Letterink-NibData" = {
AngleInDegrees = 180;
};
}),
(5,96,o),
(104,-23,o),
(269,-23,cs,{
"Letterink-NibData" = {
AngleInDegrees = 90;
};
})
);
}
);
width = 529;
}
);
metricLeft = o;
unicode = 99;
userData = {
position = 382;
width = 57;
};
}
{
glyphname = d;
kernLeft = o;
kernRight = m;
layers = (
{
anchors = (
{
name = bottom;
pos = (241,0);
},
{
name = center;
pos = (456,610);
},
{
name = top;
pos = (505,729);
},
{
name = topright;
pos = (488,500);
}
);
hints = (
{
name = _corner.right_swash;
origin = (0,2);
type = Corner;
}
);
layerId = "0CAF3BED-C4AC-4024-B3E1-4C69D1EF7EC0";
shapes = (
{
closed = 1;
nodes = (
(546,728,l,{
"Letterink-NibData" = {
AngleInDegrees = 270;
};
}),
(463,728,l,{
"Letterink-NibData" = {
AngleInDegrees = 180;
};
}),
(385,88,l,{
"Letterink-NibData" = {
AngleInDegrees = 180;
};
}),
(467,86,l)
);
},
{
angle = 180;
pos = (563,507);
ref = bowl;
}
);
width = 602;
},
{
anchors = (
{
name = bottom;
pos = (226,0);
},
{
name = center;
pos = (468,602);
},
{
name = top;
pos = (504,729);
},
{
name = topright;
pos = (484,500);
}
);
hints = (
{
name = _corner.right_swash;
origin = (0,2);
type = Corner;
}
);
layerId = "49C16FD3-6177-408B-A733-AEB3898BB77C";
shapes = (
{
closed = 1;
nodes = (
(524,728,l,{
"Letterink-NibData" = {
AngleInDegrees = 270;
};
}),
(486,728,l,{
"Letterink-NibData" = {
AngleInDegrees = 180;
};
}),
(405,76,l,{
"Letterink-NibData" = {
AngleInDegrees = 90;
};
}),
(443,75,l)
);
},
{
angle = 180;
pos = (549,496);
ref = bowl;
}
);
width = 579;
},
{
anchors = (
{
name = bottom;
pos = (240,0);
},
{
name = center;
pos = (445,610);
},
{
name = top;
pos = (503,732);
},
{
name = topright;
pos = (548,500);
}
);
hints = (
{
name = _corner.right_swash;
origin = (0,2);
type = Corner;
}
);
layerId = m004;
shapes = (
{
closed = 1;
nodes = (
(585,736,l,{
"Letterink-NibData" = {
AngleInDegrees = 270;
};
}),
(418,736,l,{
"Letterink-NibData" = {
AngleInDegrees = 180;
};
}),
(344,134,l,{
"Letterink-NibData" = {
AngleInDegrees = 180;
};
}),
(509,121,l)
);
},
{
angle = 180;
pos = (535,504);
ref = bowl;
}
);
width = 635;
}
);
metricLeft = o;
metricRight = n;
unicode = 100;
userData = {
position = 404;
width = 55;
};
}
{
glyphname = e;
kernLeft = o;
kernRight = o;
layers = (
{
anchors = (
{
name = bottom;
pos = (233,6);
},
{
name = ogonek;
pos = (430,53);
},
{
name = top;
pos = (287,500);
}
);
layerId = "0CAF3BED-C4AC-4024-B3E1-4C69D1EF7EC0";
shapes = (
{
closed = 1;
nodes = (
(109,198,l),
(131,197,o),
(169,191,o),
(199,190,cs,{
"Letterink-NibData" = {
AngleInDegrees = 91.29217;
};
}),
(364,183,o),
(468,251,o),
(480,352,cs),
(491,446,o),
(420,517,o),
(312,517,cs,{
"Letterink-NibData" = {
AngleInDegrees = 270;
};
}),
(172,517,o),
(56,402,o),
(37,247,cs,{
"Letterink-NibData" = {
AngleInDegrees = 180;
};
}),
(18,91,o),
(102,-11,o),
(248,-11,cs,{
"Letterink-NibData" = {
AngleInDegrees = 90;
};
}),
(317,-11,o),
(394,15,o),
(451,60,c,{
"Letterink-NibData" = {
AngleInDegrees = 321.70984;
};
}),
(414,119,l,{
"Letterink-NibData" = {
AngleInDegrees = 233.56914;
};
}),
(360,81,o),
(305,63,o),
(254,63,cs,{
"Letterink-NibData" = {
AngleInDegrees = 270;
};
}),
(146,63,o),
(111,140,o),
(122,250,cs),
(134,367,o),
(219,443,o),
(311,443,cs,{
"Letterink-NibData" = {
AngleInDegrees = 90;
};
}),
(369,443,o),
(402,409,o),
(396,360,cs,{
"Letterink-NibData" = {
AngleInDegrees = 180;
};
}),
(388,296,o),
(323,264,o),
(201,264,cs,{
"Letterink-NibData" = {
AngleInDegrees = 270;
};
}),
(178,264,o),
(136,267,o),
(109,271,c,{
"Letterink-NibData" = {
AngleInDegrees = 3.91825;
};
})
);
}
);
width = 507;
},
{
anchors = (
{
name = bottom;
pos = (242,-5);
},
{
name = ogonek;
pos = (421,56);
},
{
name = top;
pos = (293,500);
}
);
layerId = "49C16FD3-6177-408B-A733-AEB3898BB77C";
shapes = (
{
closed = 1;
nodes = (
(77,219,l),
(91,216,o),
(181,210,o),
(224,210,cs,{
"Letterink-NibData" = {
AngleInDegrees = 90;
};
}),
(363,210,o),
(453,264,o),
(465,360,cs),
(476,446,o),
(414,508,o),
(313,508,cs,{
"Letterink-NibData" = {
AngleInDegrees = 270;
};
}),
(174,508,o),
(61,394,o),
(43,242,cs,{
"Letterink-NibData" = {
AngleInDegrees = 180;
};
}),
(24,84,o),
(102,-6,o),
(246,-6,cs,{
"Letterink-NibData" = {
AngleInDegrees = 90;
};
}),
(315,-6,o),
(371,13,o),
(434,59,c,{
"Letterink-NibData" = {
AngleInDegrees = 324.09028;
};
}),
(416,87,l,{
"Letterink-NibData" = {
AngleInDegrees = 237.68038;
};
}),
(367,52,o),
(313,29,o),
(247,29,cs,{
"Letterink-NibData" = {
AngleInDegrees = 270;
};
}),
(130,29,o),
(68,95,o),
(84,243,cs),
(97,371,o),
(201,473,o),
(314,473,cs,{
"Letterink-NibData" = {
AngleInDegrees = 90;
};
}),
(387,473,o),
(433,428,o),
(425,363,cs,{
"Letterink-NibData" = {
AngleInDegrees = 180;
};
}),
(416,287,o),
(340,244,o),
(224,246,cs,{
"Letterink-NibData" = {
AngleInDegrees = 270;
};
}),
(146,247,o),
(132,248,o),
(73,253,c,{
"Letterink-NibData" = {
AngleInDegrees = 357.92997;
};
})
);
}
);
width = 495;
},
{
anchors = (
{
name = bottom;
pos = (245,-12);
},
{
name = ogonek;
pos = (475,67);
},
{
name = top;
pos = (310,512);
}
);
layerId = m004;
shapes = (
{
closed = 1;
nodes = (
(169,179,l),
(207,175,o),
(260,175,o),
(269,175,cs,{
"Letterink-NibData" = {
AngleInDegrees = 91.29217;
};
}),
(401,175,o),
(491,237,o),
(503,337,cs),
(515,441,o),
(440,521,o),
(316,524,cs,{
"Letterink-NibData" = {
AngleInDegrees = 270;
};
}),
(172,527,o),
(46,418,o),
(26,254,cs,{
"Letterink-NibData" = {
AngleInDegrees = 180;
};
}),
(5,82,o),
(99,-22,o),
(251,-24,cs,{
"Letterink-NibData" = {
AngleInDegrees = 90;
};
}),
(335,-25,o),
(411,6,o),
(476,64,c,{
"Letterink-NibData" = {
AngleInDegrees = 321.70984;
};
}),
(405,178,l,{
"Letterink-NibData" = {
AngleInDegrees = "241.22019";
};
}),
(373,147,o),
(314,120,o),
(264,120,cs,{
"Letterink-NibData" = {
AngleInDegrees = "270";
};
}),
(201,120,o),
(187,190,o),
(194,243,cs),
(205,337,o),
(255,387,o),
(303,387,cs,{
"Letterink-NibData" = {
AngleInDegrees = 90;
};
}),
(328,387,o),
(347,371,o),
(345,352,cs,{
"Letterink-NibData" = {
AngleInDegrees = 180;
};
}),
(340,320,o),
(315,306,o),
(266,299,cs,{
"Letterink-NibData" = {
AngleInDegrees = 270;
};
}),
(241,295,o),
(195,296,o),
(174,298,c,{
"Letterink-NibData" = {
AngleInDegrees = 3.91825;
};
})
);
}
);
width = 523;
}
);
metricLeft = o;
note = "99% 98% 2000";
unicode = 101;
userData = {
position = 382;
width = 57;
};
}
{
glyphname = f;
kernRight = f;
layers = (
{
anchors = (
{
name = bottom;
pos = (166,0);
},
{
name = top;
pos = (299,743);
}
);
layerId = "0CAF3BED-C4AC-4024-B3E1-4C69D1EF7EC0";
shapes = (
{
closed = 1;
nodes = (
(87,-260,l),
(170,404,l,{
"Letterink-NibData" = {
AngleInDegrees = 95.19443;
};
}),
(184,401,o),
(197,400,o),
(213,400,cs,{
"Letterink-NibData" = {
AngleInDegrees = 95.19443;
};
}),
(334,400,o),
(418,469,o),
(431,581,cs),
(443,683,o),
(393,743,o),
(294,743,cs,{
"Letterink-NibData" = {
AngleInDegrees = 270;
};
}),
(190,743,o),
(121,675,o),
(106,552,cs,{
"Letterink-NibData" = {
AngleInDegrees = 180;
};
}),
(5,-260,l,{
"Letterink-NibData" = {
AngleInDegrees = 90;
};
})
);
},
{
closed = 1;
nodes = (
(287,195,l),
(296,269,l,{
"Letterink-NibData" = {
AngleInDegrees = 270;
};
}),
(136,269,l),
(127,195,l)
);
},
{
closed = 1;
nodes = (
(188,555,ls),
(199,627,o),
(236,669,o),
(284,669,cs,{
"Letterink-NibData" = {
AngleInDegrees = 90;
};
}),
(333,669,o),
(354,640,o),
(347,589,cs,{
"Letterink-NibData" = {
AngleInDegrees = 180;
};
}),
(337,516,o),
(285,474,o),
(203,474,cs,{
"Letterink-NibData" = {
AngleInDegrees = 270;
};
}),
(191,474,o),
(183,475,o),
(176,476,c)
);
}
);
width = 375;
},
{
anchors = (
{
name = bottom;
pos = (31,-260);
},
{
name = top;
pos = (287,744);
}
);
layerId = "49C16FD3-6177-408B-A733-AEB3898BB77C";
shapes = (
{
closed = 1;
nodes = (
(48,-260,l),
(133,429,l,{
"Letterink-NibData" = {
AngleInDegrees = 92.04541;
};
}),
(152,428,o),
(172,427,o),
(192,427,cs,{
"Letterink-NibData" = {
AngleInDegrees = 91.86262;
};
}),
(316,427,o),
(393,486,o),
(406,598,cs),
(416,687,o),
(367,744,o),
(286,744,cs,{
"Letterink-NibData" = {
AngleInDegrees = 270;
};
}),
(190,744,o),
(126,677,o),
(111,557,cs,{
"Letterink-NibData" = {
AngleInDegrees = 180;
};
}),
(10,-260,l,{
"Letterink-NibData" = {
AngleInDegrees = 90;
};
})
);
},
{
closed = 1;
nodes = (
(262,208,l),
(266,242,l,{
"Letterink-NibData" = {
AngleInDegrees = 270;
};
}),
(101,242,l),
(97,208,l)
);
},
{
closed = 1;
nodes = (
(149,555,ls),
(163,657,o),
(208,710,o),
(280,710,cs,{
"Letterink-NibData" = {
AngleInDegrees = 90;
};
}),
(344,710,o),
(376,669,o),
(368,603,cs,{
"Letterink-NibData" = {
AngleInDegrees = 180;
};
}),
(357,510,o),
(297,461,o),
(193,461,cs,{
"Letterink-NibData" = {
AngleInDegrees = 270;
};
}),
(175,461,o),
(155,461,o),
(136,461,c)
);
}
);
width = 346;
},
{
anchors = (
{
name = bottom;
pos = (74,-260);
},
{
name = top;
pos = (307,747);
}
);
layerId = m004;
shapes = (
{
closed = 1;
nodes = (
(155,-259,l),
(232,362,l,{
"Letterink-NibData" = {
AngleInDegrees = 95.19443;
};
}),
(243,362,o),
(256,362,o),
(270,362,cs,{
"Letterink-NibData" = {
AngleInDegrees = 95.19443;
};
}),
(377,362,o),
(459,441,o),
(471,541,cs),
(487,675,o),
(420,747,o),
(298,747,cs,{
"Letterink-NibData" = {
AngleInDegrees = 270;
};
}),
(184,747,o),
(104,674,o),
(89,553,cs,{
"Letterink-NibData" = {
AngleInDegrees = 180;
};
}),
(-11,-259,l,{
"Letterink-NibData" = {
AngleInDegrees = 90;
};
})
);
},
{
closed = 1;
nodes = (
(350,165,l),
(366,293,l,{
"Letterink-NibData" = {
AngleInDegrees = 270;
};
}),
(206,293,l),
(190,165,l)
);
},
{
closed = 1;
nodes = (
(249,539,ls),
(255,585,o),
(276,608,o),
(303,608,cs,{
"Letterink-NibData" = {
AngleInDegrees = 90;
};
}),
(326,608,o),
(335,589,o),
(331,557,cs,{
"Letterink-NibData" = {
AngleInDegrees = 180;
};
}),
(327,527,o),
(309,490,o),
(261,490,cs,{
"Letterink-NibData" = {
AngleInDegrees = 270;
};
}),
(257,490,o),
(250,490,o),
(243,490,c)
);
}
);
width = 430;
}
);
metricLeft = l;
unicode = 102;
userData = {
position = 298;
width = 57;
};
}
{
glyphname = g;
kernLeft = o;
kernRight = j;
layers = (
{
anchors = (
{
name = bottom;
pos = (378,-260);
},
{
name = top;
pos = (347,504);
}
);
layerId = "0CAF3BED-C4AC-4024-B3E1-4C69D1EF7EC0";
shapes = (
{
closed = 1;
nodes = (
(363,-272,o),
(431,-208,o),
(444,-103,cs),
(515,473,l,{
"Letterink-NibData" = {
AngleInDegrees = 270;
};
}),
(488,484,o),
(462,492,o),
(435,500,c),
(364,-92,ls,{
"Letterink-NibData" = {
AngleInDegrees = 180;
};
}),
(356,-156,o),
(320,-198,o),
(271,-198,cs,{
"Letterink-NibData" = {
AngleInDegrees = 270;
};
}),
(222,-198,o),
(196,-171,o),
(202,-123,cs),
(207,-80,o),
(231,-41,o),
(265,-25,cs,{
"Letterink-NibData" = {
AngleInDegrees = 58.81503;
};
}),
(306,-6,o),
(332,5,o),
(353,21,c,{
"Letterink-NibData" = {
AngleInDegrees = 47.29061;
};
}),
(215,7,l),
(166,-28,o),
(130,-69,o),
(123,-123,cs,{
"Letterink-NibData" = {
AngleInDegrees = 180;
};
}),
(111,-213,o),
(169,-272,o),
(267,-272,cs,{
"Letterink-NibData" = {
AngleInDegrees = 90;
};
})
);
},
{
angle = 180;
pos = (563,505);
ref = bowl;
}
);
width = 556;
},
{
anchors = (
{
name = bottom;
pos = (321,-253);
},
{
name = top;
pos = (286,502);
}
);
layerId = "49C16FD3-6177-408B-A733-AEB3898BB77C";
shapes = (
{
closed = 1;
nodes = (
(339,-283,o),
(407,-223,o),
(418,-133,cs),
(491,473,l,{
"Letterink-NibData" = {
AngleInDegrees = "270";
};
}),
(479,478,o),
(467,482,o),
(455,486,c),
(381,-123,ls,{
"Letterink-NibData" = {
AngleInDegrees = "183.66779";
};
}),
(372,-201,o),
(321,-247,o),
(257,-247,cs,{
"Letterink-NibData" = {
AngleInDegrees = "270";
};
}),
(193,-247,o),
(157,-205,o),
(163,-143,cs),
(168,-93,o),
(194,-66,o),
(235,-41,cs,{
"Letterink-NibData" = {
AngleInDegrees = "55.30485";
};
}),
(253,-30,o),
(312,1,o),
(338,22,c,{
"Letterink-NibData" = {
AngleInDegrees = "51.07246";
};
}),
(228,-9,l),
(174,-36,o),
(132,-77,o),
(124,-145,cs,{
"Letterink-NibData" = {
AngleInDegrees = "180";
};
}),
(115,-224,o),
(169,-283,o),
(254,-283,cs,{
"Letterink-NibData" = {
AngleInDegrees = "90";
};
})
);
},
{
angle = 180;
pos = (550,500);
ref = bowl;
}
);
width = 538;
},
{
anchors = (
{
name = bottom;
pos = (372,-273);
},
{
name = top;
pos = (341,512);
}
);
layerId = m004;
shapes = (
{
closed = 1;
nodes = (
(400,-289,o),
(469,-198,o),
(483,-79,c),
(550,468,l,{
"Letterink-NibData" = {
AngleInDegrees = 270;
};
}),
(512,484,o),
(464,505,o),
(389,517,c),
(318,-82,ls,{
"Letterink-NibData" = {
AngleInDegrees = 180;
};
}),
(313,-127,o),
(292,-154,o),
(266,-154,cs,{
"Letterink-NibData" = {
AngleInDegrees = 270;
};
}),
(244,-154,o),
(232,-137,o),
(236,-100,cs),
(240,-67,o),
(257,-37,o),
(298,-19,cs,{
"Letterink-NibData" = {
AngleInDegrees = 58.81503;
};
}),
(325,-7,o),
(347,5,o),
(365,21,c,{
"Letterink-NibData" = {
AngleInDegrees = 47.29061;
};
}),
(159,-2,l),
(141,-10,o),
(88,-47,o),
(80,-110,cs,{
"Letterink-NibData" = {
AngleInDegrees = 180;
};
}),
(67,-213,o),
(141,-289,o),
(262,-289,cs,{
"Letterink-NibData" = {
AngleInDegrees = 90;
};
})
);
},
{
angle = 180;
pos = (534,503);
ref = bowl;
}
);
width = 574;
}
);
metricLeft = o;
metricRight = "=|l";
unicode = 103;
userData = {
position = 405;
width = 53;
};
}
{
glyphname = h;
kernRight = m;
layers = (
{
.lastUpdate = 751988541.835;
anchors = (
{
name = arch;
pos = (168,341);
},
{
name = bottom;
pos = (278,0);
},
{
name = center;
pos = (169,602);
},
{
name = top;
pos = (167,730);
}
);
layerId = "0CAF3BED-C4AC-4024-B3E1-4C69D1EF7EC0";
shapes = (
{
closed = 1;
nodes = (
(119,0,l),
(209,730,l,{
"Letterink-NibData" = {
AngleInDegrees = 270;
};
}),
(127,730,l,{
"Letterink-NibData" = {
AngleInDegrees = 180;
};
}),
(37,0,l,{
"Letterink-NibData" = {
AngleInDegrees = 90;
};
})
);
},
{
pos = (102,0);
ref = arch_n;
}
);
width = 609;
},
{
.lastUpdate = 751988468.999;
anchors = (
{
name = arch;
pos = (130,355);
},
{
name = bottom;
pos = (258,0);
},
{
name = center;
pos = (129,607);
},
{
name = top;
pos = (150,730);
}
);
layerId = "49C16FD3-6177-408B-A733-AEB3898BB77C";
shapes = (
{
closed = 1;
nodes = (
(80,0,l),
(170,730,l,{
"Letterink-NibData" = {
AngleInDegrees = 270;
};
}),
(132,730,l,{
"Letterink-NibData" = {
AngleInDegrees = 180;
};
}),
(42,0,l,{
"Letterink-NibData" = {
AngleInDegrees = 90;
};
})
);
},
{
pos = (72,0);
ref = arch_n;
}
);
width = 577;
},
{
.lastUpdate = 751988463.494;
anchors = (
{
name = arch;
pos = (231,349);
},
{
name = bottom;
pos = (278,0);
},
{
name = center;
pos = (202,611);
},
{
name = top;
pos = (192,731);
}
);
layerId = m004;
shapes = (
{
closed = 1;
nodes = (
(185,1,l),
(276,732,l,{
"Letterink-NibData" = {
AngleInDegrees = 270;
};
}),
(111,732,l,{
"Letterink-NibData" = {
AngleInDegrees = 180;
};
}),
(20,1,l,{
"Letterink-NibData" = {
AngleInDegrees = 90;
};
})
);
},
{
pos = (131,0);
ref = arch_n;
}
);
width = 644;
}
);
metricLeft = l;
metricRight = n;
unicode = 104;
userData = {
position = 385;
width = 55;
};
}
{
glyphname = k;
kernRight = k;
lastChange = "2024-10-30 12:13:44 +0000";
layers = (
{
.lastUpdate = 751983224.49;
anchors = (
{
name = bottom;
pos = (225,-1);
},
{
name = top;
pos = (168,728);
}
);
background = {
hints = (
{
name = _corner.caps_diag_xs;
options = 1;
origin = (1,3);
scale = (0.9604,0.9604);
type = Corner;
}
);
shapes = (
{
closed = 1;
nodes = (
(120,0,l),
(120,193,l,{
"Letterink-NibData" = {
AngleInDegrees = "90";
};
}),
(153,188,o),
(188,189,o),
(221,189,cs),
(289,189,o),
(439,230,o),
(439,363,cs),
(439,457,o),
(370,520,o),
(274,520,cs,{
"Letterink-NibData" = {
AngleInDegrees = "270";
};
}),
(208,520,o),
(121,477,o),
(104,391,c,{
"Letterink-NibData" = {
AngleInDegrees = "359.80174";
};
}),
(120,392,l,{
"Letterink-NibData" = {
AngleInDegrees = "359.80174";
};
}),
(120,728,l,{
"Letterink-NibData" = {
AngleInDegrees = "270";
};
}),
(38,728,l,{
"Letterink-NibData" = {
AngleInDegrees = "180";
};
}),
(38,0,l,{
"Letterink-NibData" = {
AngleInDegrees = "90";
};
})
);
},
{
closed = 1;
nodes = (
(409,89,l,{
"Letterink-NibData" = {
AngleInDegrees = "329.77455";
};
}),
(319,231,l,{
"Letterink-NibData" = {
AngleInDegrees = "69.56717";
};
}),
(246,207,l),
(343,49,l,{
"Letterink-NibData" = {
AngleInDegrees = "149.62087";
};
})
);
},
{
closed = 1;
nodes = (
(121,286,o),
(125,305,o),
(131,326,cs,{
"Letterink-NibData" = {
AngleInDegrees = "15.9454";
};
}),
(153,404,o),
(214,446,o),
(272,446,cs,{
"Letterink-NibData" = {
AngleInDegrees = "90";
};
}),
(326,446,o),
(357,410,o),
(357,362,cs,{
"Letterink-NibData" = {
AngleInDegrees = "180";
};
}),
(357,291,o),
(280,263,o),
(221,263,cs,{
"Letterink-NibData" = {
AngleInDegrees = "270";
};
}),
(189,263,o),
(152,262,o),
(120,267,c,{
"Letterink-NibData" = {
AngleInDegrees = "3.01279";
};
})
);
}
);
};
layerId = "0CAF3BED-C4AC-4024-B3E1-4C69D1EF7EC0";
shapes = (
{
closed = 1;
nodes = (
(120,0,l),
(144,193,l,{
"Letterink-NibData" = {
AngleInDegrees = 90;
};
}),
(176,188,o),
(211,189,o),
(244,189,cs),
(311,189,o),
(464,230,o),
(481,363,cs),
(495,457,o),
(434,520,o),
(335,520,cs,{
"Letterink-NibData" = {
AngleInDegrees = 270;
};
}),
(270,520,o),
(180,477,o),
(152,391,c,{
"Letterink-NibData" = {
AngleInDegrees = 359.80174;
};
}),
(168,392,l,{
"Letterink-NibData" = {
AngleInDegrees = 359.80174;
};
}),
(209,728,l,{
"Letterink-NibData" = {
AngleInDegrees = 270;
};
}),
(127,728,l,{
"Letterink-NibData" = {
AngleInDegrees = 180;
};
}),
(38,0,l,{
"Letterink-NibData" = {
AngleInDegrees = 90;
};
})
);
},
{
closed = 1;
nodes = (
(156,286,o),
(162,305,o),
(171,326,cs,{
"Letterink-NibData" = {
AngleInDegrees = 15.9454;
};
}),
(203,404,o),
(267,446,o),
(324,446,cs,{
"Letterink-NibData" = {
AngleInDegrees = 90;
};
}),
(381,446,o,{
"Letterink-NibData" = {
AngleInDegrees = 90;
};
}),
(407,410,o),
(398,362,c,{
"Letterink-NibData" = {
AngleInDegrees = 180;
};
}),
(390,291,o),
(311,263,o),
(253,263,cs,{
"Letterink-NibData" = {
AngleInDegrees = 270;
};
}),
(221,263,o),
(184,262,o),
(153,267,c,{
"Letterink-NibData" = {
AngleInDegrees = 3.01279;
};
})
);
},
{
closed = 1;
nodes = (
(431,64,o),
(426,60,o),
(418,60,cs),
(404,60,o),
(393,96,o),
(373,150,cs),
(351,210,o),
(317,246,o),
(240,246,c),
(233,189,l),
(268,189,o),
(283,166,o),
(301,116,cs),
(325,53,o),
(339,-15,o),
(407,-15,cs),
(441,-15,o),
(462,1,o),
(482,20,c),
(437,70,l)
);
}
);
width = 524;
},
{
.lastUpdate = 751983224.475;
anchors = (
{
name = bottom;
pos = (206,-4);
},
{
name = top;
pos = (149,728);
}
);
background = {
hints = (
{
name = _corner.caps_diag_xs;
origin = (1,3);
type = Corner;
}
);
shapes = (
{
closed = 1;
nodes = (
(80,0,l),
(80,214,l,{
"Letterink-NibData" = {
AngleInDegrees = "90";
};
}),
(111,209,o),
(179,206,o),
(210,206,cs),
(341,206,o),
(418,262,o),
(418,359,cs),
(418,444,o),
(348,507,o),
(257,507,cs,{
"Letterink-NibData" = {
AngleInDegrees = "270";
};
}),
(173,507,o),
(94,451,o),
(71,347,c),
(80,348,l),
(80,728,l,{
"Letterink-NibData" = {
AngleInDegrees = "270";
};
}),
(42,728,l,{
"Letterink-NibData" = {
AngleInDegrees = "180";
};
}),
(42,0,l,{
"Letterink-NibData" = {
AngleInDegrees = "90";
};
})
);
},
{
closed = 1;
nodes = (
(388,55,l,{
"Letterink-NibData" = {
AngleInDegrees = "329.78868";
};
}),
(279,225,l,{
"Letterink-NibData" = {
AngleInDegrees = "65.72556";
};
}),
(245,216,l),
(356,36,l,{
"Letterink-NibData" = {
AngleInDegrees = "149.85862";
};
})
);
},
{
closed = 1;
nodes = (
(80,270,o),
(86,306,o),
(94,333,cs,{
"Letterink-NibData" = {
AngleInDegrees = "16.03234";
};
}),
(119,419,o),
(179,471,o),
(253,471,cs,{
"Letterink-NibData" = {
AngleInDegrees = "90";
};
}),
(330,471,o),
(378,420,o),
(378,359,cs,{
"Letterink-NibData" = {
AngleInDegrees = "180";
};
}),
(378,285,o),
(318,242,o),
(214,242,cs,{
"Letterink-NibData" = {
AngleInDegrees = "270";
};
}),
(169,242,o),
(125,242,o),
(82,247,c,{
"Letterink-NibData" = {
AngleInDegrees = "358.02507";
};
})
);
},
{
attr = {
strokeWidth = 36;
};
closed = 0;
nodes = (
(222,225,l),
(278,225,o),
(293,176,o),
(320,121,cs),
(348,71,o),
(381,16,o),
(436,11,c)
);
}
);
};
layerId = "49C16FD3-6177-408B-A733-AEB3898BB77C";
shapes = (
{
closed = 1;
nodes = (
(80,0,l),
(106,214,l,{
"Letterink-NibData" = {
AngleInDegrees = 90;
};
}),
(137,209,o),
(204,206,o),
(235,206,cs),
(363,206,o),
(445,262,o),
(457,359,cs),
(468,444,o),
(405,507,o),
(314,507,cs,{
"Letterink-NibData" = {
AngleInDegrees = "270";
};
}),
(232,507,o),
(148,451,o),
(114,347,c),
(123,348,l),
(169,728,l,{
"Letterink-NibData" = {
AngleInDegrees = 270;
};
}),
(131,728,l,{
"Letterink-NibData" = {
AngleInDegrees = 180;
};
}),
(42,0,l,{
"Letterink-NibData" = {
AngleInDegrees = "90";
};
})
);
},
{
closed = 1;
nodes = (
(113,270,o),
(124,306,o),
(135,333,cs,{
"Letterink-NibData" = {
AngleInDegrees = 16.03234;
};
}),
(170,419,o),
(234,471,o),
(306,471,cs,{
"Letterink-NibData" = {
AngleInDegrees = 90;
};
}),
(383,471,o),
(425,420,o),
(417,359,cs,{
"Letterink-NibData" = {
AngleInDegrees = 180;
};
}),
(408,285,o),
(345,242,o),
(244,242,cs,{
"Letterink-NibData" = {
AngleInDegrees = 270;
};
}),
(199,242,o),
(155,242,o),
(112,247,c,{
"Letterink-NibData" = {
AngleInDegrees = 358.02507;
};
})
);
},
{
closed = 1;
nodes = (
(438,33,o),
(430,28,o),
(412,28,cs),
(382,28,o),
(372,76,o),
(353,128,cs),
(333,184,o),
(305,232,o),
(238,232,c),
(235,206,l),
(280,206,o),
(298,166,o),
(319,112,cs),
(337,62,o),
(351,-8,o),
(408,-8,cs),
(440,-8,o),
(459,7,o),
(471,19,c),
(448,43,l)
);
}
);
width = 514;
},
{
.lastUpdate = 751983224.502;
anchors = (
{
name = bottom;
pos = (255,0);
},
{
name = top;
pos = (206,728);
}
);
background = {
hints = (
{
name = _corner.caps_diag_xs;
options = 1;
origin = (1,3);
scale = (0.9604,0.9604);
type = Corner;
}
);
shapes = (
{
closed = 1;
nodes = (
(190,0,l),
(190,169,l,{
"Letterink-NibData" = {
AngleInDegrees = "90";
};
}),
(198,168,o),
(212,168,o),
(229,168,cs),
(346,168,o),
(499,214,o),
(499,362,cs),
(499,449,o),
(421,524,o),
(318,524,cs,{
"Letterink-NibData" = {
AngleInDegrees = "270";
};
}),
(253,524,o),
(183,489,o),
(158,426,c,{
"Letterink-NibData" = {
AngleInDegrees = "359.80174";
};
}),
(190,410,l,{
"Letterink-NibData" = {
AngleInDegrees = "359.80174";
};
}),
(190,730,l,{
"Letterink-NibData" = {
AngleInDegrees = "270";
};
}),
(25,730,l,{
"Letterink-NibData" = {
AngleInDegrees = "180";
};
}),
(25,0,l,{
"Letterink-NibData" = {
AngleInDegrees = "90";
};
})
);
},
{
closed = 1;
nodes = (
(448,143,l,{
"Letterink-NibData" = {
AngleInDegrees = "329.77455";
};
}),
(403,231,l,{
"Letterink-NibData" = {
AngleInDegrees = "69.56717";
};
}),
(249,187,l),
(306,72,l,{
"Letterink-NibData" = {
AngleInDegrees = "149.62087";
};
})
);
},
{
closed = 1;
nodes = (
(193,299,o),
(196,334,o),
(218,362,cs,{
"Letterink-NibData" = {
AngleInDegrees = "15.9454";
};
}),
(233,380,o),
(255,390,o),
(284,390,cs,{
"Letterink-NibData" = {
AngleInDegrees = "90";
};
}),
(314,390,o),
(335,372,o),
(337,346,cs,{
"Letterink-NibData" = {
AngleInDegrees = "180";
};
}),
(339,319,o),
(320,300,o),
(289,290,cs,{
"Letterink-NibData" = {
AngleInDegrees = "270";
};
}),
(262,281,o),
(215,278,o),
(193,282,c,{
"Letterink-NibData" = {
AngleInDegrees = "3.01279";
};
})
);
}
);
};
layerId = m004;
shapes = (
{
closed = 1;
nodes = (
(190,0,l),
(211,169,l,{
"Letterink-NibData" = {
AngleInDegrees = 90;
};
}),
(219,168,o),
(233,168,o,{
"Letterink-NibData" = {
AngleInDegrees = 90;
};
}),
(250,168,cs),
(367,168,o),
(525,214,o),
(543,362,cs),
(554,449,o),
(485,524,o),
(382,524,cs,{
"Letterink-NibData" = {
AngleInDegrees = 270;
};
}),
(317,524,o),
(243,489,o),
(210,426,c,{
"Letterink-NibData" = {
AngleInDegrees = 359.80174;
};
}),
(240,410,l,{
"Letterink-NibData" = {
AngleInDegrees = 359.80174;
};
}),
(280,730,l,{
"Letterink-NibData" = {
AngleInDegrees = 270;
};
}),
(115,730,l,{
"Letterink-NibData" = {
AngleInDegrees = 180;
};
}),
(25,0,l,{
"Letterink-NibData" = {
AngleInDegrees = 90;
};
})
);
},
{
closed = 1;
nodes = (
(230,299,o),
(237,334,o),
(262,362,cs,{
"Letterink-NibData" = {
AngleInDegrees = 15.9454;
};
}),
(280,380,o),
(303,390,o),
(332,390,cs,{
"Letterink-NibData" = {
AngleInDegrees = 90;
};
}),
(362,390,o),
(381,372,o),
(379,346,cs,{
"Letterink-NibData" = {
AngleInDegrees = 180;
};
}),
(378,319,o),
(357,300,o),
(325,290,cs,{
"Letterink-NibData" = {
AngleInDegrees = 270;
};
}),
(297,281,o),
(249,278,o),
(228,282,c,{
"Letterink-NibData" = {
AngleInDegrees = 3.01279;
};
})
);
},
{
closed = 1;
nodes = (
(456,120,o),
(450,117,o),
(444,117,cs),
(434,117,o),
(429,126,o),
(410,166,cs),
(378,232,o),
(329,279,o),
(247,279,c),
(234,168,l),
(250,168,o),
(255,158,o),
(276,100,cs),
(306,21,o),
(343,-31,o),
(418,-31,cs),
(475,-31,o),
(523,1,o),
(547,28,c),
(459,124,l)
);
}
);
width = 580;
},
{
.lastUpdate = 751983192.671;
anchors = (
{
name = bottom;
pos = (242,-4);
},
{
name = top;
pos = (96,728);
}
);
associatedMasterId = "49C16FD3-6177-408B-A733-AEB3898BB77C";
hints = (
{
name = _corner.caps_diag_xs;
origin = (1,3);
type = Corner;
}
);
layerId = "BD169E0A-4FA9-4F83-9DB0-DBD1580A9661";
name = "Oct 30, 24 at 12:24";
shapes = (
{
closed = 1;
nodes = (
(116,0,l),
(116,214,l,{
"Letterink-NibData" = {
AngleInDegrees = 90;
};
}),
(147,209,o),
(215,206,o),
(246,206,cs),
(377,206,o),
(454,262,o),
(454,359,cs),
(454,444,o),
(384,507,o),
(293,507,cs,{
"Letterink-NibData" = {
AngleInDegrees = "270";
};
}),
(209,507,o),
(130,451,o),
(107,347,c),
(116,348,l),
(116,728,l,{
"Letterink-NibData" = {
AngleInDegrees = 270;
};
}),
(78,728,l,{
"Letterink-NibData" = {
AngleInDegrees = 180;
};
}),
(78,0,l,{
"Letterink-NibData" = {
AngleInDegrees = "90";
};
})
);
},
{
closed = 1;
nodes = (
(424,55,l,{
"Letterink-NibData" = {
AngleInDegrees = 329.78868;
};
}),
(315,225,l,{
"Letterink-NibData" = {
AngleInDegrees = 65.72556;
};
}),
(281,216,l),
(392,36,l,{
"Letterink-NibData" = {
AngleInDegrees = 149.85862;
};
})
);
},
{
closed = 1;
nodes = (
(116,270,o),
(122,306,o),
(130,333,cs,{
"Letterink-NibData" = {
AngleInDegrees = 16.03234;
};
}),
(155,419,o),
(215,471,o),
(289,471,cs,{
"Letterink-NibData" = {
AngleInDegrees = 90;
};
}),
(366,471,o),
(414,420,o),
(414,359,cs,{
"Letterink-NibData" = {
AngleInDegrees = 180;
};
}),
(414,285,o),
(354,242,o),
(250,242,cs,{
"Letterink-NibData" = {
AngleInDegrees = 270;
};
}),
(205,242,o),
(161,242,o),
(118,247,c,{
"Letterink-NibData" = {
AngleInDegrees = 358.02507;
};
})
);
}
);
width = 521;
},
{
.lastUpdate = 751983192.671;
anchors = (
{
name = bottom;
pos = (253,-1);
},
{
name = top;
pos = (107,728);
}
);
associatedMasterId = "0CAF3BED-C4AC-4024-B3E1-4C69D1EF7EC0";
background = {
hints = (
{
name = _corner.caps_diag_xs;
options = 1;
scale = (0.9604,0.9604);
type = Corner;
}
);
shapes = (
{
closed = 1;
nodes = (
(148,0,l),
(148,193,l,{
"Letterink-NibData" = {
AngleInDegrees = "90";
};
}),
(181,188,o),
(216,189,o),
(249,189,cs),
(317,189,o),
(467,230,o),
(467,363,cs),
(467,457,o),
(398,520,o),
(302,520,cs,{
"Letterink-NibData" = {
AngleInDegrees = "270";
};
}),
(236,520,o),
(149,477,o),
(132,391,c,{
"Letterink-NibData" = {
AngleInDegrees = "359.80174";
};
}),
(148,392,l,{
"Letterink-NibData" = {
AngleInDegrees = "359.80174";
};
}),
(148,728,l,{
"Letterink-NibData" = {
AngleInDegrees = "270";
};
}),
(66,728,l,{
"Letterink-NibData" = {
AngleInDegrees = "180";
};
}),
(66,0,l,{
"Letterink-NibData" = {
AngleInDegrees = "90";
};
})
);
},
{
closed = 1;
nodes = (
(437,89,l,{
"Letterink-NibData" = {
AngleInDegrees = "329.77455";
};
}),
(347,231,l,{
"Letterink-NibData" = {
AngleInDegrees = "69.56717";
};
}),
(274,207,l),
(371,49,l,{
"Letterink-NibData" = {
AngleInDegrees = "149.62087";
};
})
);
},
{
closed = 1;
nodes = (
(149,286,o),
(153,305,o),
(159,326,cs,{
"Letterink-NibData" = {
AngleInDegrees = "15.9454";
};
}),
(181,404,o),
(242,446,o),
(300,446,cs,{
"Letterink-NibData" = {
AngleInDegrees = "90";
};
}),
(354,446,o),
(385,410,o),
(385,362,cs,{
"Letterink-NibData" = {
AngleInDegrees = "180";
};
}),
(385,291,o),
(308,263,o),
(249,263,cs,{
"Letterink-NibData" = {
AngleInDegrees = "270";
};
}),
(217,263,o),
(180,262,o),
(148,267,c,{
"Letterink-NibData" = {
AngleInDegrees = "3.01279";
};
})
);
}
);
};
layerId = "7CC84356-1276-4958-BC13-8A27ABF25045";
name = "Oct 30, 24 at 13:10";
shapes = (
{
closed = 1;
nodes = (
(148,0,l),
(148,193,l,{
"Letterink-NibData" = {
AngleInDegrees = 90;
};
}),
(181,188,o),
(216,189,o),
(249,189,cs),
(316,189,o),
(464,230,o),
(464,363,cs),
(467,457,o),
(398,520,o),
(299,520,cs,{
"Letterink-NibData" = {
AngleInDegrees = 270;
};
}),
(234,520,o),
(149,477,o),
(132,391,c,{
"Letterink-NibData" = {
AngleInDegrees = 359.80174;
};
}),
(148,392,l,{
"Letterink-NibData" = {
AngleInDegrees = 359.80174;
};
}),
(148,728,l,{
"Letterink-NibData" = {
AngleInDegrees = 270;
};
}),
(66,728,l,{
"Letterink-NibData" = {
AngleInDegrees = 180;
};
}),
(66,0,l,{
"Letterink-NibData" = {
AngleInDegrees = 90;
};
})
);
},
{
closed = 1;
nodes = (
(149,286,o),
(153,305,o),
(159,326,cs,{
"Letterink-NibData" = {
AngleInDegrees = 15.9454;
};
}),
(181,404,o),
(240,446,o),
(297,446,cs,{
"Letterink-NibData" = {
AngleInDegrees = 90;
};
}),
(354,446,o),
(385,410,o),
(382,362,cs,{
"Letterink-NibData" = {
AngleInDegrees = 180;
};
}),
(382,291,o),
(307,263,o),
(249,263,cs,{
"Letterink-NibData" = {
AngleInDegrees = 270;
};
}),
(217,263,o),
(180,262,o),
(148,267,c,{
"Letterink-NibData" = {
AngleInDegrees = 3.01279;
};
})
);
},
{
attr = {
strokeWidth = 76;
};
closed = 0;
nodes = (
(238,225,l),
(294,225,o,{
"Letterink-NibData" = {
AngleInDegrees = "65.72556";
};
}),
(322,188,o),
(349,133,cs),
(374,82,o),
(393,23,o),
(437,23,cs),
(462,23,o),
(474,33,o),
(484,44,c)
);
}
);
width = 539;
},
{
.lastUpdate = 751983192.671;
anchors = (
{
name = bottom;
pos = (236,-4);
},
{
name = top;
pos = (90,728);
}
);
associatedMasterId = "49C16FD3-6177-408B-A733-AEB3898BB77C";
background = {
hints = (
{
name = _corner.caps_diag_xs;
type = Corner;
}
);
shapes = (
{
closed = 1;
nodes = (
(110,0,l),
(110,214,l,{
"Letterink-NibData" = {
AngleInDegrees = "90";
};
}),
(141,209,o),
(209,206,o),
(240,206,cs),
(371,206,o),
(448,262,o),
(448,359,cs),
(448,444,o),
(378,507,o),
(287,507,cs,{
"Letterink-NibData" = {
AngleInDegrees = "270";
};
}),
(203,507,o),
(124,451,o),
(101,347,c),
(110,348,l),
(110,728,l,{
"Letterink-NibData" = {
AngleInDegrees = "270";
};
}),
(72,728,l,{
"Letterink-NibData" = {
AngleInDegrees = "180";
};
}),
(72,0,l,{
"Letterink-NibData" = {
AngleInDegrees = "90";
};
})
);
},
{
closed = 1;
nodes = (
(418,55,l,{
"Letterink-NibData" = {
AngleInDegrees = "329.78868";
};
}),
(309,225,l,{
"Letterink-NibData" = {
AngleInDegrees = "65.72556";
};
}),
(275,216,l),
(386,36,l,{
"Letterink-NibData" = {
AngleInDegrees = "149.85862";
};
})
);
},
{
closed = 1;
nodes = (
(110,270,o),
(116,306,o),
(124,333,cs,{
"Letterink-NibData" = {
AngleInDegrees = "16.03234";
};
}),
(149,419,o),
(209,471,o),
(283,471,cs,{
"Letterink-NibData" = {
AngleInDegrees = "90";
};
}),
(360,471,o),
(408,420,o),
(408,359,cs,{
"Letterink-NibData" = {
AngleInDegrees = "180";
};
}),
(408,285,o),
(348,242,o),
(244,242,cs,{
"Letterink-NibData" = {
AngleInDegrees = "270";
};
}),
(199,242,o),
(155,242,o),
(112,247,c,{
"Letterink-NibData" = {
AngleInDegrees = "358.02507";
};
})
);
},
{
attr = {
strokeWidth = 36;
};
closed = 0;
nodes = (
(252,225,l),
(308,225,o),
(323,176,o),
(350,121,cs),
(378,71,o),
(411,16,o),
(466,11,c)
);
}
);
};
layerId = "5B634F17-390D-451E-9F23-1672B9F3BA6D";
name = "Oct 30, 24 at 13:11";
shapes = (
{
closed = 1;
nodes = (
(110,0,l),
(110,214,l,{
"Letterink-NibData" = {
AngleInDegrees = 90;
};
}),
(141,209,o),
(209,206,o),
(240,206,cs),
(368,206,o),
(443,262,o),
(443,359,cs),
(443,444,o),
(373,507,o),
(282,507,cs,{
"Letterink-NibData" = {
AngleInDegrees = "270";
};
}),
(200,507,o),
(123,451,o),
(101,347,c),
(110,348,l),
(110,728,l,{
"Letterink-NibData" = {
AngleInDegrees = 270;
};
}),
(72,728,l,{
"Letterink-NibData" = {
AngleInDegrees = 180;
};
}),
(72,0,l,{
"Letterink-NibData" = {
AngleInDegrees = "90";
};
})
);
},
{
closed = 1;
nodes = (
(110,270,o),
(116,306,o),
(124,333,cs,{
"Letterink-NibData" = {
AngleInDegrees = 16.03234;
};
}),
(149,419,o),
(206,471,o),
(278,471,cs,{
"Letterink-NibData" = {
AngleInDegrees = 90;
};
}),
(355,471,o),
(403,420,o),
(403,359,cs,{
"Letterink-NibData" = {
AngleInDegrees = 180;
};
}),
(403,285,o),
(345,242,o),
(244,242,cs,{
"Letterink-NibData" = {
AngleInDegrees = 270;
};
}),
(199,242,o),
(155,242,o),
(112,247,c,{
"Letterink-NibData" = {
AngleInDegrees = 358.02507;
};
})
);
},
{
attr = {
strokeWidth = 36;
};
closed = 0;
nodes = (
(240,225,l),
(296,225,o,{
"Letterink-NibData" = {
AngleInDegrees = 65.72556;
};
}),
(324,176,o),
(351,121,cs),
(376,70,o),
(395,11,o),
(439,11,cs),
(464,11,o),
(476,21,o),
(486,32,c)
);
}
);
width = 523;
}
);
metricLeft = l.ss01;
unicode = 107;
userData = {
position = 54;
width = 55;
};
}
